<?xml version="1.0" encoding="utf-8"?>
<!-- Generator: Adobe Illustrator 18.1.1, SVG Export Plug-In . SVG Version: 6.00 Build 0)  -->
<svg version="1.1" id="Layer_1" xmlns="http://www.w3.org/2000/svg" xmlns:xlink="http://www.w3.org/1999/xlink" x="0px" y="0px"
	 viewBox="111.7 0 226.4 165.6" enable-background="new 111.7 0 226.4 165.6" xml:space="preserve">
<rect x="111.7" y="0" fill="#50B4C0" width="226.4" height="165.6"/>
<rect x="177.3" y="101.6" fill="#7C6C78" width="99" height="55"/>
<polygon fill="#B19490" points="177.4,101.7 213.2,81.1 298.1,81.1 277.5,101.6 "/>
<polygon fill="#554B65" points="182.4,100.6 208.1,82.9 293.7,82.9 274.9,100.6 "/>
<polygon fill="#554B65" points="276.2,156.7 297.8,135.3 297.8,81.1 276.2,101.6 "/>
<g>
	<polygon fill="#DCF7F9" points="198,72.7 291.1,72 291.3,84 198,83.1 	"/>
	<polygon fill="#DEF8F9" stroke="#9F9E9E" stroke-width="3.279197e-02" stroke-miterlimit="10" points="197.1,73.5 290.1,72.7 
		290.3,85 197.1,84.1 	"/>
	<polygon fill="#E0F8FA" stroke="#9F9E9E" stroke-width="6.558394e-02" stroke-miterlimit="10" points="196.3,74.2 289.1,73.4 
		289.3,85.9 196.3,85.1 	"/>
	<polygon fill="#E3F9FA" stroke="#9F9E9E" stroke-width="9.837590e-02" stroke-miterlimit="10" points="195.5,74.9 288.1,74.2 
		288.3,86.8 195.5,86.1 	"/>
	<polygon fill="#E5F9FB" stroke="#9F9E9E" stroke-width="0.1312" stroke-miterlimit="10" points="194.6,75.6 287.2,74.9 287.3,87.8 
		194.6,87.2 	"/>
	<polygon fill="#E7FAFB" stroke="#9F9E9E" stroke-width="0.164" stroke-miterlimit="10" points="193.8,76.3 286.2,75.6 286.3,88.7 
		193.8,88.2 	"/>
	<polygon fill="#E9FAFB" stroke="#9F9E9E" stroke-width="0.1968" stroke-miterlimit="10" points="193,77 285.2,76.4 285.3,89.6 
		193,89.2 	"/>
	<polygon fill="#EBFBFC" stroke="#9F9E9E" stroke-width="0.2295" stroke-miterlimit="10" points="192.1,77.8 284.2,77.1 284.3,90.6 
		192.1,90.2 	"/>
	<polygon fill="#EEFBFC" stroke="#9F9E9E" stroke-width="0.2623" stroke-miterlimit="10" points="191.3,78.5 283.3,77.8 283.3,91.5 
		191.3,91.2 	"/>
	<polygon fill="#F0FCFC" stroke="#9F9E9E" stroke-width="0.2951" stroke-miterlimit="10" points="190.5,79.2 282.3,78.6 282.3,92.4 
		190.5,92.2 	"/>
	<polygon fill="#F2FCFD" stroke="#9F9E9E" stroke-width="0.3279" stroke-miterlimit="10" points="189.6,79.9 281.3,79.3 281.2,93.4 
		189.6,93.3 	"/>
	<polygon fill="#F4FDFD" stroke="#9F9E9E" stroke-width="0.3607" stroke-miterlimit="10" points="188.8,80.6 280.3,80 280.2,94.3 
		188.8,94.3 	"/>
	<polygon fill="#F6FDFE" stroke="#9F9E9E" stroke-width="0.3935" stroke-miterlimit="10" points="187.9,81.3 279.3,80.7 279.2,95.2 
		187.9,95.3 	"/>
	<polygon fill="#F8FEFE" stroke="#9F9E9E" stroke-width="0.4263" stroke-miterlimit="10" points="187.1,82 278.3,81.4 278.2,96.1 
		187.1,96.3 	"/>
	<polygon fill="#FBFEFE" stroke="#9F9E9E" stroke-width="0.4591" stroke-miterlimit="10" points="186.2,82.7 277.3,82.1 277.2,97 
		186.2,97.2 	"/>
	<polygon fill="#FDFFFF" stroke="#9F9E9E" stroke-width="0.4919" stroke-miterlimit="10" points="185.4,83.4 276.4,82.8 276.2,97.9 
		185.4,98.2 	"/>
	<polygon fill="#FFFFFF" stroke="#9F9E9E" stroke-width="0.5247" stroke-miterlimit="10" points="184.6,84 275.4,83.5 275.2,98.8 
		184.6,99.2 	"/>
</g>
<rect x="182.5" y="5" fill="#FFFFFF" stroke="#9F9E9E" stroke-miterlimit="10" width="93.4" height="94.1"/>
<rect x="207.2" y="106.2" transform="matrix(-0.9883 0.1523 -0.1523 -0.9883 463.6078 187.1351)" fill="#908A9E" width="34.9" height="10.3"/>
<g>
	<path fill="#5E576D" d="M209.4,111.4l0.9-0.2l0.5,2.7c0.1,0.3,0.1,0.5,0.2,0.6c0.2,0.2,0.4,0.3,0.8,0.2c0.4-0.1,0.6-0.2,0.7-0.5
		c0.1-0.2,0.1-0.4,0-0.7l-0.5-2.7l0.9-0.2l0.5,2.7c0.1,0.5,0.1,0.8,0,1.1c-0.2,0.5-0.7,0.8-1.4,1c-0.8,0.2-1.3,0-1.7-0.4
		c-0.2-0.2-0.3-0.6-0.4-1.1L209.4,111.4z"/>
	<path fill="#5E576D" d="M215,113.8c0.1,0.2,0.1,0.3,0.2,0.3c0.1,0.1,0.3,0.1,0.6,0.1c0.2,0,0.3-0.1,0.4-0.2
		c0.1-0.1,0.1-0.2,0.1-0.3c0-0.1-0.1-0.2-0.2-0.2c-0.1,0-0.4-0.1-0.9-0.1c-0.4,0-0.7-0.1-0.8-0.2s-0.3-0.3-0.3-0.6
		c-0.1-0.3,0-0.6,0.2-0.8c0.2-0.3,0.5-0.4,0.9-0.5c0.4-0.1,0.8-0.1,1,0.1c0.3,0.1,0.5,0.4,0.6,0.8l-0.8,0.2c0-0.1-0.1-0.2-0.2-0.2
		c-0.1-0.1-0.3-0.1-0.5-0.1c-0.2,0-0.3,0.1-0.4,0.2c-0.1,0.1-0.1,0.2-0.1,0.2c0,0.1,0.1,0.2,0.2,0.2c0.1,0,0.4,0.1,0.9,0.1
		c0.3,0,0.6,0.1,0.8,0.2c0.2,0.2,0.3,0.3,0.3,0.6c0.1,0.3,0,0.6-0.2,0.8c-0.2,0.2-0.6,0.4-1.1,0.5c-0.5,0.1-0.9,0.1-1.2-0.1
		c-0.3-0.2-0.4-0.4-0.5-0.8L215,113.8z"/>
	<path fill="#5E576D" d="M219.5,110.9c0.2,0.1,0.5,0.2,0.6,0.4c0.2,0.2,0.3,0.4,0.4,0.6c0.1,0.2,0.1,0.3,0.2,0.6l-2.4,0.4
		c0.1,0.3,0.2,0.5,0.5,0.6c0.2,0.1,0.3,0.1,0.5,0c0.2,0,0.3-0.1,0.4-0.2c0.1-0.1,0.1-0.2,0.2-0.3l0.9-0.2c0,0.2-0.1,0.4-0.2,0.6
		c-0.2,0.4-0.6,0.6-1.1,0.7c-0.4,0.1-0.8,0-1.2-0.2c-0.4-0.2-0.6-0.6-0.7-1.2c-0.1-0.6,0-1,0.2-1.4c0.2-0.3,0.6-0.6,1.1-0.6
		C219,110.8,219.2,110.8,219.5,110.9z M218.3,111.8c-0.1,0.2-0.2,0.3-0.2,0.6l1.4-0.3c-0.1-0.2-0.2-0.4-0.3-0.5
		c-0.2-0.1-0.3-0.1-0.5-0.1C218.6,111.6,218.4,111.7,218.3,111.8z"/>
	<path fill="#5E576D" d="M222.5,110.4c0.2,0.1,0.3,0.2,0.4,0.3l-0.3-1.5l0.9-0.2l0.8,4.4l-0.8,0.2l-0.1-0.4
		c-0.1,0.2-0.2,0.4-0.3,0.5s-0.3,0.2-0.6,0.2c-0.4,0.1-0.7,0-1.1-0.3c-0.3-0.3-0.5-0.6-0.6-1.1c-0.1-0.6-0.1-1,0.2-1.4
		c0.2-0.3,0.5-0.6,0.9-0.6C222.1,110.3,222.3,110.3,222.5,110.4z M223.1,112.6c0.1-0.2,0.1-0.4,0.1-0.7c-0.1-0.4-0.2-0.7-0.4-0.8
		c-0.2-0.1-0.3-0.1-0.5-0.1c-0.3,0-0.4,0.2-0.5,0.4c-0.1,0.2-0.1,0.4-0.1,0.7c0.1,0.3,0.2,0.5,0.3,0.7c0.2,0.2,0.3,0.2,0.6,0.2
		C222.8,113,223,112.8,223.1,112.6z"/>
	<path fill="#5E576D" d="M228.6,108l1-0.2l-0.7,4.6l-0.9,0.2l-2.2-4.1l1-0.2l1.5,3.2L228.6,108z"/>
	<path fill="#5E576D" d="M230.9,108.4l-0.9,0.2l-0.2-0.8l0.9-0.2L230.9,108.4z M230.1,109l0.9-0.2l0.6,3.2l-0.9,0.2L230.1,109z"/>
	<path fill="#5E576D" d="M234.4,108.4c0.2,0.2,0.4,0.4,0.5,0.8l0.4,2.2l-0.9,0.2l-0.3-2c0-0.2-0.1-0.3-0.2-0.4
		c-0.1-0.2-0.3-0.2-0.5-0.2c-0.3,0.1-0.5,0.2-0.5,0.5c0,0.2,0,0.3,0,0.5l0.3,1.7l-0.8,0.2l-0.6-3.2l0.8-0.2l0.1,0.5
		c0.1-0.2,0.2-0.3,0.2-0.4c0.2-0.2,0.3-0.3,0.6-0.3C233.9,108.2,234.2,108.3,234.4,108.4z"/>
	<path fill="#5E576D" d="M236.3,111.8h0.1c0.1,0,0.2,0,0.2-0.1c0.1,0,0.2-0.1,0.2-0.1c0,0,0.1-0.1,0.1-0.2c0-0.1,0-0.2,0-0.2
		l-1.8-3.2l0.9-0.2l1.1,2.3l0.3-2.5l0.9-0.2l-0.6,3.4c-0.1,0.6-0.2,1.1-0.3,1.2c-0.1,0.2-0.3,0.3-0.7,0.3c-0.1,0-0.2,0-0.2,0
		c-0.1,0-0.1,0-0.2,0L236.3,111.8z"/>
	<path fill="#5E576D" d="M240.2,110.6l-0.8,0.2l-0.8-4.4l0.8-0.2L240.2,110.6z"/>
</g>
<g>
	<path fill="#32283F" d="M213.3,111.6c0.1,0.2,0.1,0.3,0,0.5c0,0-0.2,0.1-0.4,0.3c0,0,0,0,0,0c-0.2,0.3-0.3,0.4-0.4,0.6
		c0.2,0.4,0.4,0.8,0.8,1.4c0-0.1,0.1-0.2,0.1-0.3c0-0.2,0.1-0.3,0.1-0.3c0.2-0.1,0.3-0.1,0.5,0c0.2,0,0.3,0.1,0.4,0.3
		c0,0.1,0.1,0.1,0,0.2c0,0.1-0.1,0.2-0.3,0.3c-0.2,0.1-0.3,0.2-0.3,0.3c0,0-0.1,0.1-0.1,0.2c0,0.1,0,0.2,0,0.2
		c0.1,0.3,0.3,0.7,0.6,1.1c0,0,0.1,0.1,0.1,0.1c0.1,0.1,0,0.3,0,0.4c0,0-0.1,0.1-0.2,0.2c-0.1,0.1-0.3,0.1-0.4,0.1s-0.3-0.1-0.4-0.2
		c0-0.1-0.1-0.1,0-0.2c0,0,0-0.1,0-0.1c-1.1-1.7-1.8-3-2.3-3.8c0,0,0-0.1-0.1-0.1c-0.1-0.2-0.1-0.4,0.2-0.5c0,0,0.1-0.1,0.2-0.1
		c0.1,0,0.2,0,0.2-0.1c0,0,0,0,0.1,0c0.1-0.1,0.2-0.2,0.3-0.4c0,0,0-0.1,0.1-0.2c0,0,0.1-0.1,0.2-0.2c0.1-0.1,0.3-0.1,0.5-0.1
		C213.1,111.4,213.3,111.5,213.3,111.6z"/>
	<path fill="#32283F" d="M216.6,111.5c0,0.1,0,0.2-0.1,0.3c-0.1,0.1-0.2,0.3-0.2,0.3l-0.3,1.7l0.5,0.9c0.1,0.1,0.1,0.2,0.2,0.2
		c0.1,0.1,0.2,0.1,0.2,0.2c0,0.1,0.1,0.1,0,0.2c0,0.2-0.1,0.3-0.3,0.5c-0.2,0.1-0.3,0.1-0.4,0c-0.1,0-0.2-0.1-0.2-0.2
		c0,0,0-0.1-0.1-0.2c0-0.1,0-0.2-0.1-0.2l-1.3-2.2c0,0-0.1-0.1-0.1-0.1c-0.1,0-0.1-0.1-0.1-0.1c0,0,0-0.1,0-0.1
		c0-0.1,0.1-0.3,0.4-0.4c0.2-0.1,0.4-0.1,0.5-0.1c0,0,0.1,0.1,0.1,0.1c0,0,0,0.1,0,0.1c0,0,0,0.1,0,0.1l0.2,0.2l0.2-0.9
		c0-0.1,0-0.2,0.1-0.3s0.1-0.2,0.2-0.3c0.1-0.1,0.3-0.1,0.5-0.2c0.2,0,0.3,0,0.4,0.2C216.6,111.4,216.6,111.4,216.6,111.5z"/>
	<path fill="#32283F" d="M220.2,112.6c0,0.2,0.1,0.4,0,0.7c0,0-0.1,0.2-0.2,0.4c-0.2,0.2-0.3,0.3-0.5,0.5c-0.3,0.2-0.6,0.1-1-0.1
		c-0.3-0.2-0.6-0.5-0.9-0.9c-0.3-0.5-0.4-0.9-0.5-1.4c0-0.5,0.1-0.9,0.4-1.1c0.1,0,0.1-0.1,0.2-0.1c0.5-0.3,0.9-0.1,1.3,0.4
		c0.2,0.2,0.3,0.6,0.2,1.1c0,0.5-0.2,0.9-0.5,1.3c0.1,0.1,0.2,0.2,0.3,0.3c0.1,0.1,0.2,0.1,0.3,0c0.1-0.1,0.2-0.2,0.2-0.3
		c0-0.1,0.1-0.2,0.1-0.3c0,0,0-0.1,0-0.2c0-0.1,0-0.2,0-0.3c0,0,0,0,0.1-0.1c0.1-0.1,0.2-0.1,0.4,0
		C220,112.4,220.1,112.5,220.2,112.6z M218,111c-0.2,0.1-0.2,0.3-0.2,0.6c0.1,0.4,0.2,0.7,0.4,1c0.2-0.2,0.2-0.4,0.3-0.7
		c0-0.3,0-0.5-0.1-0.7C218.2,111,218.1,111,218,111z"/>
	<path fill="#32283F" d="M222.7,111.1c0,0.2,0.1,0.4,0,0.7c0,0-0.1,0.2-0.2,0.4c-0.2,0.2-0.3,0.3-0.5,0.5c-0.3,0.2-0.6,0.1-1-0.1
		c-0.3-0.2-0.6-0.5-0.9-0.9c-0.3-0.5-0.4-0.9-0.5-1.4c0-0.5,0.1-0.9,0.4-1.1c0.1,0,0.1-0.1,0.2-0.1c0.5-0.3,0.9-0.1,1.3,0.4
		c0.2,0.2,0.3,0.6,0.2,1.1c0,0.5-0.2,0.9-0.5,1.3c0.1,0.1,0.2,0.2,0.3,0.3c0.1,0.1,0.2,0.1,0.3,0c0.1-0.1,0.2-0.2,0.2-0.3
		c0-0.1,0.1-0.2,0.1-0.3c0,0,0-0.1,0-0.2c0-0.1,0-0.2,0-0.3c0,0,0,0,0.1-0.1c0.1-0.1,0.2-0.1,0.4,0
		C222.6,110.9,222.7,111,222.7,111.1z M220.6,109.5c-0.2,0.1-0.2,0.3-0.2,0.6c0.1,0.4,0.2,0.7,0.4,1c0.2-0.2,0.2-0.4,0.3-0.7
		c0-0.3,0-0.5-0.1-0.7C220.8,109.5,220.7,109.5,220.6,109.5z"/>
</g>
<polygon opacity="0.76" fill="#7B708E" enable-background="new    " points="221.3,104.6 221.9,108 225.7,107.3 224.9,103.6 "/>
</svg>
