<?xml version="1.0" encoding="utf-8"?>
<!-- Generator: Adobe Illustrator 18.1.1, SVG Export Plug-In . SVG Version: 6.00 Build 0)  -->
<svg version="1.1" id="Layer_1" xmlns="http://www.w3.org/2000/svg" xmlns:xlink="http://www.w3.org/1999/xlink" x="0px" y="0px"
	 viewBox="0 0 1024 768" enable-background="new 0 0 1024 768" xml:space="preserve">
<rect x="-12" fill="#50B4C0" width="1050.1" height="768"/>
<linearGradient id="SVGID_1_" gradientUnits="userSpaceOnUse" x1="-12" y1="666" x2="718.2" y2="666">
	<stop  offset="0" style="stop-color:#2A7D8B"/>
	<stop  offset="1" style="stop-color:#246586"/>
</linearGradient>
<polygon fill="url(#SVGID_1_)" points="281.7,564 -12,768 491.1,768 718.2,565.6 "/>
<rect x="206.2" y="466.6" fill="#7C6C78" width="580.3" height="99.4"/>
<polygon fill="#B19490" points="206.1,467 387,376 906,376 786.5,466.6 "/>
<polygon fill="#FFFFFF" stroke="#9F9E9E" stroke-miterlimit="10" points="349.5,6 772.5,9 772.5,433.5 349.5,430.5 "/>
<polygon fill="#554B65" points="786,565.6 906,471.6 906,376 786,466.6 "/>
<rect x="332.2" y="12.5" fill="#FFFFFF" stroke="#9F9E9E" stroke-miterlimit="10" width="436.5" height="430"/>
<rect x="326.2" y="16.5" fill="#FFFFFF" stroke="#9F9E9E" stroke-miterlimit="10" width="436.5" height="430"/>
<rect x="319.7" y="19.5" fill="#FFFFFF" stroke="#9F9E9E" stroke-miterlimit="10" width="436.5" height="430"/>
<rect x="315.2" y="23" fill="#FFFFFF" stroke="#9F9E9E" stroke-miterlimit="10" width="436.5" height="436.5"/>
<polygon fill="#E6E6E6" points="728.5,440.8 333.2,440.8 333.2,45.5 "/>
<polyline fill="#554B65" points="282,566 282,467 315.2,459 752,459 718,466.6 718,566 "/>
<rect x="431" y="492.5" transform="matrix(0.9883 -0.1523 0.1523 0.9883 -72.6554 83.9948)" fill="#908A9E" width="162" height="47.6"/>
<g>
	<path fill="#5E576D" d="M455.6,519.6l3.2-0.6l1.6,9.2c0.2,1,0.4,1.8,0.8,2.2c0.5,0.8,1.4,1.1,2.7,0.8c1.3-0.2,2-0.8,2.3-1.7
		c0.2-0.5,0.2-1.3,0-2.3l-1.6-9.2l3.2-0.6l1.6,9.2c0.3,1.6,0.2,2.9-0.1,3.9c-0.6,1.8-2.3,2.9-4.9,3.4c-2.6,0.5-4.5-0.1-5.7-1.5
		c-0.7-0.8-1.1-2-1.4-3.6L455.6,519.6z"/>
	<path fill="#5E576D" d="M474.8,528.1c0.2,0.5,0.3,0.9,0.6,1c0.4,0.3,1.1,0.4,2.1,0.2c0.6-0.1,1-0.3,1.3-0.5
		c0.3-0.2,0.4-0.5,0.4-0.9c-0.1-0.3-0.2-0.6-0.5-0.7c-0.3-0.1-1.4-0.2-3.2-0.3c-1.3-0.1-2.3-0.3-2.9-0.7c-0.6-0.4-1-1-1.1-1.9
		c-0.2-1,0.1-2,0.8-2.9c0.7-0.9,1.8-1.4,3.2-1.7c1.4-0.2,2.6-0.2,3.5,0.2c1,0.4,1.6,1.3,2,2.6l-2.9,0.5c-0.1-0.4-0.3-0.6-0.5-0.8
		c-0.4-0.3-1-0.4-1.7-0.3c-0.6,0.1-1.1,0.3-1.3,0.5c-0.2,0.2-0.3,0.5-0.3,0.8c0.1,0.3,0.2,0.6,0.6,0.7c0.3,0.1,1.4,0.2,3.2,0.3
		c1.2,0.1,2.1,0.3,2.8,0.8c0.7,0.5,1.1,1.1,1.2,1.9c0.2,1.1-0.1,2.1-0.8,2.9c-0.7,0.8-1.9,1.4-3.6,1.7c-1.8,0.3-3.1,0.2-4.1-0.4
		c-1-0.6-1.5-1.5-1.7-2.6L474.8,528.1z"/>
	<path fill="#5E576D" d="M490.1,517.9c0.8,0.2,1.6,0.6,2.2,1.3c0.6,0.6,1,1.3,1.3,2.1c0.2,0.5,0.3,1.2,0.5,2.2l-8.1,1.4
		c0.2,1.1,0.8,1.8,1.6,2.1c0.5,0.2,1.1,0.2,1.7,0.1c0.7-0.1,1.2-0.4,1.5-0.8c0.2-0.2,0.3-0.5,0.5-0.9l3-0.5c0,0.7-0.2,1.4-0.7,2.2
		c-0.8,1.3-2.1,2-3.9,2.4c-1.5,0.3-2.9,0-4.2-0.7c-1.3-0.7-2.1-2.1-2.5-4.2c-0.3-1.9-0.1-3.5,0.8-4.7c0.8-1.2,2.1-2,3.7-2.2
		C488.4,517.7,489.3,517.7,490.1,517.9z M486.2,521.2c-0.3,0.5-0.5,1.1-0.5,1.9l5-0.9c-0.2-0.8-0.5-1.3-1.1-1.6
		c-0.5-0.3-1.1-0.4-1.8-0.3C487.1,520.4,486.5,520.7,486.2,521.2z"/>
	<path fill="#5E576D" d="M500.4,516.1c0.6,0.2,1.1,0.5,1.5,1l-0.9-5.3l3-0.5l2.6,15l-2.8,0.5l-0.3-1.5c-0.3,0.7-0.7,1.3-1.2,1.7
		c-0.5,0.4-1.1,0.7-1.9,0.8c-1.3,0.2-2.5-0.1-3.6-1s-1.8-2.2-2-3.8c-0.3-1.9-0.2-3.5,0.5-4.7c0.7-1.2,1.8-2,3.2-2.2
		C499.2,515.8,499.8,515.8,500.4,516.1z M502.5,523.9c0.3-0.7,0.4-1.5,0.2-2.5c-0.2-1.4-0.8-2.3-1.5-2.7c-0.5-0.3-1-0.4-1.6-0.3
		c-0.9,0.1-1.4,0.6-1.7,1.3c-0.3,0.7-0.3,1.5-0.2,2.5c0.2,1,0.5,1.8,1,2.4c0.5,0.5,1.2,0.7,2,0.6S502.1,524.5,502.5,523.9z"/>
	<path fill="#5E576D" d="M521.4,508.2l3.3-0.6l-2.5,15.9l-3,0.5l-7.7-14.2l3.4-0.6l5.3,10.9L521.4,508.2z"/>
	<path fill="#5E576D" d="M529.4,509.5l-3,0.5l-0.5-2.7l3-0.5L529.4,509.5z M526.6,511.3l3-0.5l1.9,11.1l-3,0.5L526.6,511.3z"/>
	<path fill="#5E576D" d="M541.5,509.4c0.8,0.5,1.4,1.4,1.6,2.8l1.3,7.5l-3,0.5l-1.2-6.8c-0.1-0.6-0.3-1-0.5-1.3
		c-0.4-0.5-1-0.7-1.8-0.6c-1,0.2-1.6,0.7-1.8,1.6c-0.1,0.5-0.1,1.1,0,1.7l1,6l-2.9,0.5l-1.9-11.1l2.8-0.5l0.3,1.6
		c0.3-0.6,0.6-1.1,0.8-1.4c0.5-0.6,1.2-0.9,2.1-1.1C539.7,508.8,540.7,508.9,541.5,509.4z"/>
	<path fill="#5E576D" d="M547.9,521.2l0.4,0c0.3,0,0.6-0.1,0.8-0.2c0.3-0.1,0.5-0.2,0.6-0.3c0.1-0.1,0.3-0.4,0.3-0.8
		c0.1-0.4,0.1-0.6,0.1-0.7l-6.1-10.9l3.2-0.6l3.9,7.8l0.9-8.6l3.1-0.5l-1.9,11.6c-0.4,2.2-0.7,3.6-1.1,4.2c-0.3,0.6-1.2,1-2.4,1.2
		c-0.3,0-0.5,0.1-0.6,0.1c-0.2,0-0.4,0.1-0.7,0.1L547.9,521.2z"/>
	<path fill="#5E576D" d="M561.7,516.6l-2.9,0.5l-2.6-15l2.9-0.5L561.7,516.6z"/>
</g>
<g>
	<path fill="#32283F" d="M467.4,520.1c0.6,0.6,0.6,1.2,0.2,1.8c0,0-0.5,0.5-1.4,1.5c-0.1,0.1-0.1,0.1-0.1,0.2
		c-0.5,1.1-0.8,1.9-1.1,2.4c0.9,1.3,2.3,2.9,4.2,4.9c0.1-0.3,0.2-0.7,0.3-1.3c0-0.7,0.1-1.1,0.3-1.3c0.5-0.4,1.1-0.5,1.9-0.5
		c0.8,0,1.4,0.2,1.8,0.7c0.2,0.2,0.3,0.4,0.3,0.6c0.1,0.4-0.1,0.9-0.7,1.5c-0.7,0.6-1,1.1-1.1,1.5c-0.1,0.2-0.2,0.5-0.2,0.8
		c0,0.3,0,0.6,0,0.9c0.7,1,1.8,2.3,3.3,3.8c0.2,0.1,0.4,0.3,0.5,0.4c0.4,0.4,0.4,1,0.2,1.6c-0.1,0.2-0.3,0.5-0.5,0.7
		c-0.4,0.4-0.9,0.6-1.5,0.7c-0.6,0.1-1.2,0-1.6-0.4c-0.2-0.2-0.3-0.3-0.3-0.5s0-0.3,0-0.5c-5.3-5.8-9.1-10.2-11.5-13
		c-0.1-0.1-0.2-0.2-0.3-0.3c-0.6-0.7-0.5-1.4,0.4-2.2c0.1-0.1,0.3-0.3,0.5-0.4c0.3-0.2,0.6-0.3,0.8-0.4c0,0,0.2,0,0.5,0
		c0.2-0.3,0.5-0.9,0.9-1.6c0.1-0.2,0.1-0.4,0.2-0.7c0.1-0.2,0.3-0.5,0.6-0.8c0.4-0.3,1-0.5,1.7-0.6
		C466.5,519.5,467,519.7,467.4,520.1z"/>
	<path fill="#32283F" d="M479.7,517.3c0.2,0.3,0.1,0.8-0.3,1.3c-0.4,0.6-0.6,1.1-0.6,1.4l0,6.7l2.7,3.1c0.3,0.3,0.6,0.5,1,0.7
		c0.4,0.2,0.7,0.3,0.9,0.5c0.1,0.2,0.3,0.4,0.3,0.7c0.2,0.7,0,1.4-0.7,2c-0.5,0.4-1,0.6-1.6,0.5c-0.4,0-0.7-0.2-1-0.5
		c-0.1-0.1-0.2-0.3-0.4-0.6c-0.2-0.3-0.3-0.5-0.5-0.6l-6.7-7.6c-0.1-0.1-0.3-0.2-0.6-0.3c-0.3-0.1-0.4-0.2-0.5-0.3
		c-0.1-0.1-0.1-0.2-0.2-0.4c-0.1-0.5,0.3-1.1,1.2-1.9c0.7-0.6,1.3-0.8,1.7-0.6c0.2,0.1,0.3,0.2,0.4,0.3c0.1,0.1,0.2,0.3,0.1,0.5
		c0,0.2,0,0.3,0.1,0.4l0.7,0.7l0.1-3.4c0-0.4,0-0.8,0-1.2c0-0.4,0.2-0.8,0.4-1.1c0.4-0.4,1-0.7,1.6-0.9s1.1,0,1.5,0.4
		C479.6,517.1,479.6,517.2,479.7,517.3z"/>
	<path fill="#32283F" d="M494.2,519c0.3,0.6,0.5,1.5,0.3,2.6c0,0.2-0.2,0.8-0.6,1.6c-0.5,0.9-1,1.6-1.6,2.1
		c-1.1,0.8-2.4,0.9-3.9,0.4c-1.4-0.5-2.8-1.6-4.1-3c-1.4-1.6-2.3-3.2-2.8-5c-0.5-1.9-0.3-3.4,0.7-4.6c0.2-0.2,0.4-0.4,0.6-0.6
		c1.6-1.4,3.4-1.2,5.2,0.6c0.9,0.8,1.4,2.1,1.5,3.9c0.2,1.9-0.2,3.7-1.1,5.4c0.6,0.4,1,0.7,1.3,0.8c0.5,0.2,0.9,0.1,1.2-0.2
		c0.3-0.3,0.5-0.7,0.7-1.2c0.1-0.5,0.2-0.8,0.1-1.1c0-0.1,0-0.3-0.2-0.6c-0.2-0.3-0.2-0.6-0.1-1c0-0.1,0.1-0.2,0.2-0.3
		c0.3-0.3,0.8-0.4,1.4-0.4C493.6,518.4,494,518.6,494.2,519z M484.8,514.7c-0.5,0.5-0.6,1.2-0.3,2.3c0.5,1.4,1.2,2.6,2.1,3.5
		c0.5-0.8,0.6-1.7,0.5-3c-0.1-1.2-0.4-2.1-0.9-2.7C485.7,514.3,485.3,514.3,484.8,514.7z"/>
	<path fill="#32283F" d="M503,511.3c0.3,0.6,0.5,1.5,0.3,2.6c0,0.2-0.2,0.8-0.6,1.6c-0.5,0.9-1,1.6-1.6,2.1
		c-1.1,0.8-2.4,0.9-3.9,0.4c-1.4-0.5-2.8-1.6-4.1-3c-1.4-1.6-2.3-3.2-2.8-5c-0.5-1.9-0.3-3.4,0.7-4.6c0.2-0.2,0.4-0.4,0.6-0.6
		c1.6-1.4,3.4-1.2,5.2,0.6c0.9,0.8,1.4,2.1,1.5,3.9c0.2,1.9-0.2,3.7-1.1,5.4c0.6,0.4,1,0.7,1.3,0.8c0.5,0.2,0.9,0.1,1.2-0.2
		c0.3-0.3,0.5-0.7,0.7-1.2c0.1-0.5,0.2-0.8,0.1-1.1c0-0.1,0-0.3-0.2-0.6c-0.2-0.3-0.2-0.6-0.1-1c0-0.1,0.1-0.2,0.2-0.3
		c0.3-0.3,0.8-0.4,1.4-0.4S502.8,510.9,503,511.3z M493.6,507c-0.5,0.5-0.6,1.2-0.3,2.3c0.5,1.4,1.2,2.6,2.1,3.5
		c0.5-0.8,0.6-1.8,0.5-3c-0.1-1.2-0.4-2.1-0.9-2.7C494.5,506.6,494,506.6,493.6,507z"/>
</g>
<polygon opacity="0.76" fill="#7B708E" points="496.4,485 499.5,501 517,497.5 513,480.5 "/>
</svg>
