<?xml version="1.0" encoding="utf-8"?>
<!-- Generator: Adobe Illustrator 18.1.1, SVG Export Plug-In . SVG Version: 6.00 Build 0)  -->
<svg version="1.1" id="Layer_1" xmlns="http://www.w3.org/2000/svg" xmlns:xlink="http://www.w3.org/1999/xlink" x="0px" y="0px"
	 viewBox="0 0 1024 768" enable-background="new 0 0 1024 768" xml:space="preserve">
<rect x="-12" fill="#50B4C0" width="1050.1" height="768"/>
<rect x="292.6" y="471.4" fill="#7C6C78" width="459" height="255.2"/>
<polygon fill="#B19490" points="292.9,471.8 459.1,376 852.5,376 757,471.4 "/>
<polygon fill="#554B65" points="316.3,466.4 435.5,384.4 832.2,384.4 745,466.4 "/>
<polygon fill="#554B65" points="751.2,726.6 851.4,627.6 851.4,376 751.2,471.4 "/>
<g>
	<polygon fill="#DCF7F9" points="388.4,337.3 820,333.8 821,389.7 388.4,385.2 	"/>
	<polygon fill="#DEF8F9" stroke="#9F9E9E" stroke-width="3.279197e-02" stroke-miterlimit="10" points="384.5,340.7 815.5,337.2 
		816.4,394 384.5,389.9 	"/>
	<polygon fill="#E0F8FA" stroke="#9F9E9E" stroke-width="6.558394e-02" stroke-miterlimit="10" points="380.6,344 811,340.6 
		811.8,398.4 380.6,394.7 	"/>
	<polygon fill="#E3F9FA" stroke="#9F9E9E" stroke-width="9.837590e-02" stroke-miterlimit="10" points="376.8,347.3 806.5,344 
		807.1,402.7 376.8,399.4 	"/>
	<polygon fill="#E5F9FB" stroke="#9F9E9E" stroke-width="0.1312" stroke-miterlimit="10" points="372.9,350.7 802,347.4 802.5,407 
		372.9,404.2 	"/>
	<polygon fill="#E7FAFB" stroke="#9F9E9E" stroke-width="0.164" stroke-miterlimit="10" points="369.1,354 797.5,350.8 797.8,411.4 
		369.1,408.9 	"/>
	<polygon fill="#E9FAFB" stroke="#9F9E9E" stroke-width="0.1968" stroke-miterlimit="10" points="365.2,357.3 792.9,354.2 
		793.2,415.7 365.2,413.6 	"/>
	<polygon fill="#EBFBFC" stroke="#9F9E9E" stroke-width="0.2295" stroke-miterlimit="10" points="361.3,360.7 788.4,357.6 
		788.6,420 361.3,418.4 	"/>
	<polygon fill="#EEFBFC" stroke="#9F9E9E" stroke-width="0.2623" stroke-miterlimit="10" points="357.5,364 783.9,361 783.9,424.4 
		357.5,423.1 	"/>
	<polygon fill="#F0FCFC" stroke="#9F9E9E" stroke-width="0.2951" stroke-miterlimit="10" points="353.6,367.3 779.3,364.4 
		779.2,428.7 353.6,427.8 	"/>
	<polygon fill="#F2FCFD" stroke="#9F9E9E" stroke-width="0.3279" stroke-miterlimit="10" points="349.6,370.7 774.8,367.8 
		774.5,433 349.6,432.6 	"/>
	<polygon fill="#F4FDFD" stroke="#9F9E9E" stroke-width="0.3607" stroke-miterlimit="10" points="345.7,374 770.2,371.2 
		769.8,437.3 345.7,437.3 	"/>
	<polygon fill="#F6FDFE" stroke="#9F9E9E" stroke-width="0.3935" stroke-miterlimit="10" points="341.8,377.2 765.6,374.4 
		765.1,441.5 341.8,441.9 	"/>
	<polygon fill="#F8FEFE" stroke="#9F9E9E" stroke-width="0.4263" stroke-miterlimit="10" points="337.9,380.3 761,377.6 
		760.4,445.6 337.9,446.4 	"/>
	<polygon fill="#FBFEFE" stroke="#9F9E9E" stroke-width="0.4591" stroke-miterlimit="10" points="333.9,383.4 756.4,380.8 
		755.7,449.7 333.9,450.9 	"/>
	<polygon fill="#FDFFFF" stroke="#9F9E9E" stroke-width="0.4919" stroke-miterlimit="10" points="330,386.6 751.9,384 751,453.9 
		330,455.5 	"/>
	<polygon fill="#FFFFFF" stroke="#9F9E9E" stroke-width="0.5247" stroke-miterlimit="10" points="326.1,389.7 747.3,387.2 
		746.3,458 326.1,460 	"/>
</g>
<rect x="316.7" y="23" fill="#FFFFFF" stroke="#9F9E9E" stroke-miterlimit="10" width="433" height="436.5"/>
<rect x="431" y="492.5" transform="matrix(0.9883 -0.1523 0.1523 0.9883 -72.6575 84.0017)" fill="#908A9E" width="162" height="47.6"/>
<g>
	<path fill="#5E576D" d="M441.5,516.5l4.3-0.8l2.2,12.4c0.3,1.3,0.5,2.4,1.1,3c0.7,1.1,1.9,1.5,3.6,1.1c1.8-0.3,2.7-1.1,3.1-2.3
		c0.3-0.7,0.3-1.8,0-3.1l-2.2-12.4l4.3-0.8l2.2,12.4c0.4,2.2,0.3,3.9-0.1,5.3c-0.8,2.4-3.1,3.9-6.6,4.6c-3.5,0.7-6.1-0.1-7.7-2
		c-0.9-1.1-1.5-2.7-1.9-4.9L441.5,516.5z"/>
	<path fill="#5E576D" d="M467.4,528c0.3,0.7,0.4,1.2,0.8,1.3c0.5,0.4,1.5,0.5,2.8,0.3c0.8-0.1,1.3-0.4,1.8-0.7
		c0.4-0.3,0.5-0.7,0.5-1.2c-0.1-0.4-0.3-0.8-0.7-0.9s-1.9-0.3-4.3-0.4c-1.8-0.1-3.1-0.4-3.9-0.9s-1.3-1.3-1.5-2.6
		c-0.3-1.3,0.1-2.7,1.1-3.9c0.9-1.2,2.4-1.9,4.3-2.3c1.9-0.3,3.5-0.3,4.7,0.3c1.3,0.5,2.2,1.8,2.7,3.5l-3.9,0.7
		c-0.1-0.5-0.4-0.8-0.7-1.1c-0.5-0.4-1.3-0.5-2.3-0.4c-0.8,0.1-1.5,0.4-1.8,0.7s-0.4,0.7-0.4,1.1c0.1,0.4,0.3,0.8,0.8,0.9
		c0.4,0.1,1.9,0.3,4.3,0.4c1.6,0.1,2.8,0.4,3.8,1.1c0.9,0.7,1.5,1.5,1.6,2.6c0.3,1.5-0.1,2.8-1.1,3.9c-0.9,1.1-2.6,1.9-4.9,2.3
		c-2.4,0.4-4.2,0.3-5.5-0.5s-2-2-2.3-3.5L467.4,528z"/>
	<path fill="#5E576D" d="M488,514.2c1.1,0.3,2.2,0.8,3,1.8c0.8,0.8,1.3,1.8,1.8,2.8c0.3,0.7,0.4,1.6,0.7,3l-10.9,1.9
		c0.3,1.5,1.1,2.4,2.2,2.8c0.7,0.3,1.5,0.3,2.3,0.1c0.9-0.1,1.6-0.5,2-1.1c0.3-0.3,0.4-0.7,0.7-1.2l4-0.7c0,0.9-0.3,1.9-0.9,3
		c-1.1,1.8-2.8,2.7-5.3,3.2c-2,0.4-3.9,0-5.7-0.9c-1.8-0.9-2.8-2.8-3.4-5.7c-0.4-2.6-0.1-4.7,1.1-6.3c1.1-1.6,2.8-2.7,5-3
		C485.7,513.9,487,513.9,488,514.2z M482.8,518.7c-0.4,0.7-0.7,1.5-0.7,2.6l6.7-1.2c-0.3-1.1-0.7-1.8-1.5-2.2
		c-0.7-0.4-1.5-0.5-2.4-0.4C484,517.6,483.2,518,482.8,518.7z"/>
	<path fill="#5E576D" d="M501.9,511.8c0.8,0.3,1.5,0.7,2,1.3l-1.2-7.1l4-0.7l3.5,20.2l-3.8,0.7l-0.4-2c-0.4,0.9-0.9,1.8-1.6,2.3
		s-1.5,0.9-2.6,1.1c-1.8,0.3-3.4-0.1-4.9-1.3s-2.4-3-2.7-5.1c-0.4-2.6-0.3-4.7,0.7-6.3c0.9-1.6,2.4-2.7,4.3-3
		C500.3,511.4,501.1,511.4,501.9,511.8z M504.8,522.3c0.4-0.9,0.5-2,0.3-3.4c-0.3-1.9-1.1-3.1-2-3.6c-0.7-0.4-1.3-0.5-2.2-0.4
		c-1.2,0.1-1.9,0.8-2.3,1.8c-0.4,0.9-0.4,2-0.3,3.4c0.3,1.3,0.7,2.4,1.3,3.2c0.7,0.7,1.6,0.9,2.7,0.8
		C503.4,523.9,504.2,523.1,504.8,522.3z"/>
	<path fill="#5E576D" d="M530.2,501.1l4.5-0.8l-3.4,21.4l-4,0.7l-10.4-19.2l4.6-0.8l7.1,14.7L530.2,501.1z"/>
	<path fill="#5E576D" d="M541,502.9l-4,0.7l-0.7-3.6l4-0.7L541,502.9z M537.3,505.3l4-0.7l2.6,15l-4,0.7L537.3,505.3z"/>
	<path fill="#5E576D" d="M557.4,502.7c1.1,0.7,1.9,1.9,2.2,3.8l1.8,10.1l-4,0.7l-1.6-9.2c-0.1-0.8-0.4-1.3-0.7-1.8
		c-0.5-0.7-1.3-0.9-2.4-0.8c-1.3,0.3-2.2,0.9-2.4,2.2c-0.1,0.7-0.1,1.5,0,2.3l1.3,8.1l-3.9,0.7l-2.6-15l3.8-0.7l0.4,2.2
		c0.4-0.8,0.8-1.5,1.1-1.9c0.7-0.8,1.6-1.2,2.8-1.5C554.9,501.9,556.3,502.1,557.4,502.7z"/>
	<path fill="#5E576D" d="M566,518.7h0.5c0.4,0,0.8-0.1,1.1-0.3c0.4-0.1,0.7-0.3,0.8-0.4c0.1-0.1,0.4-0.5,0.4-1.1
		c0.1-0.5,0.1-0.8,0.1-0.9l-8.2-14.7l4.3-0.8l5.3,10.5l1.2-11.6l4.2-0.7l-2.6,15.6c-0.5,3-0.9,4.9-1.5,5.7c-0.4,0.8-1.6,1.3-3.2,1.6
		c-0.4,0-0.7,0.1-0.8,0.1c-0.3,0-0.5,0.1-0.9,0.1L566,518.7z"/>
	<path fill="#5E576D" d="M584.1,513l-3.9,0.7l-3.5-20.2l3.9-0.7L584.1,513z"/>
</g>
<g>
	<path fill="#32283F" d="M459.6,517.4c0.6,0.8,0.4,1.5-0.2,2.1c0,0-0.7,0.5-2,1.4c-0.1,0.1-0.1,0.1-0.2,0.2c-0.8,1.2-1.4,2-1.8,2.6
		c0.8,1.7,2,3.9,3.8,6.7c0.2-0.3,0.4-0.8,0.6-1.5c0.2-0.8,0.4-1.3,0.6-1.5c0.7-0.4,1.4-0.3,2.3-0.2c0.9,0.2,1.6,0.5,1.9,1.2
		c0.2,0.3,0.3,0.5,0.2,0.8c0,0.5-0.3,1-1.2,1.6c-1,0.5-1.4,1.1-1.6,1.5c-0.2,0.2-0.3,0.5-0.4,0.9s-0.1,0.7-0.2,1.1
		c0.6,1.3,1.6,3.1,3,5.2c0.2,0.2,0.4,0.4,0.5,0.6c0.4,0.6,0.2,1.3-0.1,1.9c-0.2,0.2-0.5,0.5-0.7,0.7c-0.6,0.4-1.2,0.5-1.9,0.5
		c-0.7,0-1.4-0.3-1.8-0.8c-0.2-0.3-0.3-0.4-0.2-0.7c0-0.2,0.1-0.4,0.1-0.6c-4.9-8-8.4-14-10.5-17.8c-0.1-0.1-0.2-0.3-0.3-0.4
		c-0.5-1-0.3-1.7,1-2.5c0.1-0.1,0.4-0.3,0.7-0.4c0.4-0.2,0.8-0.2,1-0.3c0,0,0.2,0,0.6,0.1c0.3-0.3,0.8-0.9,1.4-1.7
		c0.2-0.2,0.2-0.4,0.4-0.8c0.2-0.2,0.5-0.5,0.9-0.8c0.5-0.3,1.3-0.4,2.1-0.3C458.7,516.5,459.2,516.9,459.6,517.4z"/>
	<path fill="#32283F" d="M474.6,516.9c0.2,0.4-0.1,1-0.6,1.5c-0.6,0.6-0.9,1.2-1,1.5l-1.5,7.8l2.5,4.2c0.3,0.4,0.6,0.7,1,1
		s0.8,0.5,0.9,0.8s0.3,0.5,0.2,0.9c0.1,0.9-0.3,1.6-1.3,2.2c-0.7,0.4-1.3,0.5-2,0.2c-0.5-0.1-0.8-0.4-1.1-0.8
		c-0.1-0.1-0.2-0.4-0.3-0.8c-0.2-0.4-0.2-0.7-0.5-0.8l-6.1-10.4c-0.1-0.1-0.3-0.3-0.6-0.5s-0.4-0.3-0.5-0.5
		c-0.1-0.1-0.1-0.3-0.1-0.5c0-0.6,0.6-1.2,1.8-2c1-0.5,1.7-0.6,2.1-0.3c0.2,0.2,0.3,0.3,0.4,0.4c0.1,0.1,0.2,0.4,0,0.6
		c0,0.2-0.1,0.4,0,0.5l0.7,1l0.9-4c0.1-0.5,0.2-0.9,0.3-1.4c0.1-0.5,0.4-0.9,0.7-1.2c0.6-0.4,1.3-0.6,2.1-0.7
		c0.7-0.1,1.3,0.2,1.7,0.8C474.5,516.7,474.5,516.8,474.6,516.9z"/>
	<path fill="#32283F" d="M491.2,522.1c0.2,0.8,0.3,1.9-0.2,3.1c0,0.2-0.4,0.9-1.1,1.7c-0.8,0.9-1.5,1.6-2.3,2.1
		c-1.5,0.7-3,0.5-4.6-0.4c-1.5-0.9-2.9-2.5-4.1-4.4c-1.3-2.2-2-4.3-2.2-6.5c-0.2-2.3,0.4-4,1.8-5.2c0.3-0.2,0.6-0.4,0.8-0.6
		c2.2-1.3,4.2-0.6,5.9,1.9c0.9,1.1,1.2,2.8,0.9,4.9c-0.2,2.3-1.1,4.3-2.5,6.1c0.6,0.6,1,1,1.3,1.2c0.5,0.3,1,0.3,1.4,0
		s0.7-0.7,1.1-1.2c0.2-0.6,0.4-0.9,0.4-1.3c0-0.1,0.1-0.4-0.1-0.7c-0.2-0.4-0.1-0.7,0.1-1.2c0-0.1,0.2-0.2,0.3-0.3
		c0.4-0.3,1-0.3,1.7-0.2C490.6,521.3,491,521.6,491.2,522.1z M481.2,515c-0.7,0.5-1,1.3-0.9,2.6c0.3,1.7,0.8,3.3,1.7,4.6
		c0.8-0.8,1.1-1.9,1.3-3.4c0.2-1.4,0-2.5-0.5-3.4C482.3,514.7,481.8,514.6,481.2,515z"/>
	<path fill="#32283F" d="M503.2,515.1c0.2,0.8,0.3,1.9-0.2,3.1c0,0.2-0.4,0.9-1.1,1.7c-0.8,0.9-1.5,1.6-2.3,2.1
		c-1.5,0.7-3,0.5-4.6-0.4c-1.5-0.9-2.9-2.5-4.1-4.4c-1.3-2.2-2-4.3-2.2-6.5c-0.2-2.3,0.4-4,1.8-5.2c0.3-0.2,0.6-0.4,0.8-0.6
		c2.2-1.3,4.2-0.6,5.9,1.9c0.9,1.1,1.2,2.8,0.9,4.9c-0.2,2.3-1.1,4.3-2.5,6.1c0.6,0.6,1,1,1.3,1.2c0.5,0.3,1,0.3,1.4,0
		s0.7-0.7,1.1-1.2c0.2-0.6,0.4-0.9,0.4-1.3c0-0.1,0.1-0.4-0.1-0.7c-0.2-0.4-0.1-0.7,0.1-1.2c0-0.1,0.2-0.2,0.3-0.3
		c0.4-0.3,1-0.3,1.7-0.2C502.6,514.3,503,514.6,503.2,515.1z M493.2,508c-0.7,0.5-1,1.3-0.9,2.6c0.3,1.7,0.8,3.3,1.7,4.6
		c0.8-0.8,1.1-2,1.3-3.4c0.2-1.4,0-2.5-0.5-3.4C494.3,507.7,493.7,507.6,493.2,508z"/>
</g>
<polygon opacity="0.76" fill="#7B708E" enable-background="new    " points="496.4,485 499.5,501 517,497.5 513,480.5 "/>
</svg>
