<?xml version="1.0" standalone="no"?>
<!DOCTYPE svg PUBLIC "-//W3C//DTD SVG 1.1//EN" "http://www.w3.org/Graphics/SVG/1.1/DTD/svg11.dtd" >
<svg xmlns="http://www.w3.org/2000/svg" xmlns:xlink="http://www.w3.org/1999/xlink" version="1.1">
<metadata></metadata>
<defs>
<font id="interstateregular" horiz-adv-x="857" >
<font-face units-per-em="1000" ascent="800" descent="-200" />
<missing-glyph horiz-adv-x="350" />
<glyph unicode="&#xd;" horiz-adv-x="350" />
<glyph unicode=" "  horiz-adv-x="350" />
<glyph unicode="&#x09;" horiz-adv-x="350" />
<glyph unicode="&#xa0;" horiz-adv-x="350" />
<glyph unicode="!" horiz-adv-x="360" d="M269 272h-178l-55 184v244h288v-244zM335 120q0 -32 -12 -56t-32.5 -41t-49 -25.5t-61.5 -8.5t-61.5 8.5t-49 25.5t-32.5 41t-12 56q0 31 12 55t32.5 40t49 24t61.5 8t61.5 -8t49 -24t32.5 -40t12 -55z" />
<glyph unicode="&#x22;" horiz-adv-x="660" d="M591 373h-197l-44 327h285zM266 373h-197l-44 327h285z" />
<glyph unicode="#" horiz-adv-x="830" d="M709 110v-110h-254v110h-80v-110h-254v110h-87v199h87v82h-87v199h87v110h254v-110h80v110h254v-110h87v-199h-87v-82h87v-199h-87zM469 410h-108v-120h108v120z" />
<glyph unicode="$" horiz-adv-x="681" d="M663 229q0 -52 -15 -90t-41.5 -64.5t-63.5 -42.5t-81 -24v-108h-246v108q-57 8 -109 21.5t-100 33.5l73 187q83 -32 148.5 -44.5t107.5 -12.5q28 0 36 4t8 12q0 3 -1.5 6t-10 6.5t-25.5 8.5t-47 13q-73 18 -124 39t-83 48t-46.5 61.5t-14.5 79.5q0 50 13.5 87t38.5 63.5 t59.5 42.5t76.5 25v111h246v-108q53 -8 100.5 -23.5t93.5 -35.5l-78 -185q-60 29 -118.5 44t-109.5 15q-25 0 -32 -4.5t-7 -11.5q0 -3 1 -6.5t8 -7t22 -8.5t43 -12q70 -17 122.5 -37t87 -47t51.5 -62t17 -82z" />
<glyph unicode="%" horiz-adv-x="1110" d="M451 494q0 -54 -17.5 -95t-47.5 -68.5t-69.5 -41.5t-83.5 -14t-83.5 13.5t-69 40.5t-46.5 68t-17 95t17.5 95t47.5 68.5t69.5 41.5t83.5 14t83.5 -13.5t69 -40.5t46.5 -68t17 -95zM437 0h-213l449 700h213zM1093 208q0 -54 -17.5 -95t-47.5 -68.5t-69.5 -41.5t-83.5 -14 t-83.5 13.5t-69 40.5t-46.5 68t-17 95t17.5 95t47.5 68.5t69.5 41.5t83.5 14t83.5 -13.5t69 -40.5t46.5 -68t17 -95zM271 492q0 45 -8.5 63.5t-29.5 18.5q-20 0 -28 -17.5t-8 -62.5t8.5 -63.5t29.5 -18.5q20 0 28 17.5t8 62.5zM913 206q0 45 -8.5 63.5t-29.5 18.5 q-20 0 -28 -17.5t-8 -62.5t8.5 -63.5t29.5 -18.5q20 0 28 17.5t8 62.5z" />
<glyph unicode="&#x26;" horiz-adv-x="742" d="M488 0l-40 44q-44 -26 -93 -40.5t-105 -14.5q-51 0 -95.5 11.5t-76.5 36.5t-50.5 63t-18.5 91q0 63 35 111.5t94 83.5q-26 30 -39 61.5t-13 67.5q0 49 20 86t56 61.5t86 36.5t109 12q41 0 75.5 -3t65.5 -9.5t61 -17t62 -26.5l-87 -181q-45 20 -79.5 29.5t-65.5 9.5 q-17 0 -23.5 -6.5t-6.5 -15.5t4 -18t15 -22l97 -112q15 22 31.5 48t33.5 58l188 -97q-27 -50 -55 -90t-60 -78l156 -180h-281zM260 251q-27 -26 -27 -47q0 -23 14 -35.5t46 -12.5q19 0 42 12z" />
<glyph unicode="'" horiz-adv-x="350" d="M281 373h-212l-44 327h300z" />
<glyph unicode="(" horiz-adv-x="430" d="M245 -113q-49 43 -89.5 89t-70 98t-46 109.5t-16.5 122.5t16.5 122.5t46 109.5t70 98t89.5 89l181 -89q-30 -40 -51 -78t-35 -78t-20.5 -82.5t-6.5 -91.5q0 -50 6.5 -92.5t20.5 -82t35 -77.5t51 -78z" />
<glyph unicode=")" horiz-adv-x="430" d="M407 306q0 -65 -16.5 -122.5t-46 -109.5t-70 -98t-89.5 -89l-181 89q30 40 51 78t35 77.5t20.5 82t6.5 92.5q0 49 -6.5 91.5t-20.5 82.5t-35 78t-51 78l181 89q49 -43 89.5 -89t70 -98t46 -109.5t16.5 -122.5z" />
<glyph unicode="*" horiz-adv-x="550" d="M456 233l-115 94l24 -149h-180l24 149l-115 -94l-91 154l153 52l-153 52l91 154l115 -94l-24 149h180l-24 -149l115 94l91 -154l-153 -52l153 -52z" />
<glyph unicode="+" horiz-adv-x="646" d="M442 230v-185h-238v185h-177v228h177v185h238v-185h177v-228h-177z" />
<glyph unicode="," horiz-adv-x="360" d="M199 -122h-180l19 399h306z" />
<glyph unicode="-" horiz-adv-x="488" d="M30 228v248h428v-248h-428z" />
<glyph unicode="." horiz-adv-x="360" d="M335 144q0 -70 -42.5 -112.5t-112.5 -42.5t-112.5 42.5t-42.5 112.5t42.5 110.5t112.5 40.5t112.5 -40.5t42.5 -110.5z" />
<glyph unicode="/" horiz-adv-x="570" d="M227 -90h-267l383 880h267z" />
<glyph unicode="0" horiz-adv-x="738" d="M714 350q0 -96 -28.5 -164.5t-76.5 -112t-110.5 -64t-129.5 -20.5q-68 0 -130 20.5t-110 64t-76.5 112t-28.5 164.5t28.5 164.5t76.5 112t110 64t130 20.5q67 0 129.5 -20.5t110.5 -64t76.5 -112t28.5 -164.5zM446 350q0 49 -6.5 80t-17 48t-24.5 23.5t-29 6.5t-29 -6.5 t-24.5 -23.5t-17 -48t-6.5 -80t6.5 -80t17 -48t24.5 -23.5t29 -6.5t29 6.5t24.5 23.5t17 48t6.5 80z" />
<glyph unicode="1" horiz-adv-x="454" d="M140 0v438h-126v162q63 4 103 30t57 70h242v-700h-276z" />
<glyph unicode="2" horiz-adv-x="700" d="M22 0q3 100 26 172.5t65.5 126t105 91t144.5 66.5q29 11 38.5 16.5t9.5 14.5t-7.5 13.5t-33.5 4.5q-53 0 -118 -20.5t-128 -58.5l-104 186q43 25 84 43.5t83 31t85.5 18.5t92.5 6q78 0 135.5 -14t95 -40.5t55.5 -64.5t18 -85q0 -44 -12 -77t-37 -60t-64 -50t-94 -47 q-26 -11 -45 -20t-33.5 -17t-26 -16.5t-21.5 -18.5h338v-201h-652z" />
<glyph unicode="3" horiz-adv-x="685" d="M671 217q0 -58 -21.5 -101t-62.5 -71t-100 -42t-134 -14q-105 0 -188.5 20.5t-158.5 71.5l110 174q102 -61 211 -61q48 0 70 8.5t22 27.5q0 18 -16.5 25t-51.5 7h-136v184h113q35 0 48 7t13 24q0 30 -68 30q-47 0 -93 -11.5t-100 -40.5l-109 165q37 23 73 40t75 28.5 t81.5 17t92.5 5.5q153 0 231.5 -47t78.5 -146q0 -52 -25 -86.5t-73 -54.5q54 -20 86 -56.5t32 -103.5z" />
<glyph unicode="4" horiz-adv-x="741" d="M640 121v-121h-240v125h-389v160l393 415h236v-383h90v-196h-90zM416 451q-11 -16 -22 -29.5t-27 -32.5l-20 -24q-17 -20 -30 -33.5t-31 -30.5q16 2 35 2h45h48v72v39.5t2 36.5z" />
<glyph unicode="5" horiz-adv-x="711" d="M694 250q0 -62 -24 -110.5t-69 -82t-110 -51t-147 -17.5q-102 0 -181.5 21.5t-157.5 64.5l98 183q63 -32 123 -49t123 -17q49 0 71 12t22 39q0 24 -18.5 35t-60.5 11q-38 0 -67.5 -8.5t-61.5 -25.5l-182 58l27 387h568v-191h-375l-3 -51q22 8 55 14.5t87 6.5 q64 0 116 -13t89 -41t57.5 -71.5t20.5 -103.5z" />
<glyph unicode="6" horiz-adv-x="696" d="M684 244q0 -121 -85.5 -188t-250.5 -67q-155 0 -240 73.5t-85 221.5q0 77 29 151.5t96 133.5t176 95.5t268 36.5v-192q-62 0 -111 -5.5t-87 -15.5t-66 -24t-49 -31q31 13 66.5 18.5t69.5 5.5q61 0 111 -11.5t85 -37t54 -66t19 -98.5zM455 229q0 32 -25.5 48t-72.5 16 t-72.5 -16t-25.5 -48t25.5 -48t72.5 -16t72.5 16t25.5 48z" />
<glyph unicode="7" horiz-adv-x="692" d="M676 531q-74 -59 -121.5 -117t-74.5 -121t-37.5 -134.5t-10.5 -158.5h-270q0 85 11 155.5t32 130.5t52.5 110t73.5 95h-314v209h659v-169v0z" />
<glyph unicode="8" horiz-adv-x="730" d="M714 213q0 -50 -24 -91t-69 -70.5t-110 -46t-146 -16.5t-146 16.5t-110 46t-69 70.5t-24 91q0 35 10 62t26.5 46.5t37 32.5t40.5 22q-37 21 -60.5 53.5t-23.5 86.5q0 47 22 83.5t63 61t100.5 37.5t133.5 13t133 -13t100.5 -37.5t63.5 -61t22 -83.5q0 -54 -23.5 -86.5 t-60.5 -53.5q20 -9 40.5 -22t37 -32.5t26.5 -46.5t10 -62zM443 494q0 23 -18 39t-60 16t-60 -16t-18 -39t18.5 -37.5t59.5 -14.5t59.5 14.5t18.5 37.5zM468 226q0 27 -24.5 45t-78.5 18t-78.5 -18t-24.5 -45q0 -26 24.5 -45t78.5 -19t78.5 19t24.5 45z" />
<glyph unicode="9" horiz-adv-x="696" d="M673 416q0 -77 -29 -151.5t-96 -133.5t-176 -95.5t-268 -36.5v192q62 0 111 5.5t87 15.5t66 24t49 31q-31 -13 -66.5 -18.5t-69.5 -5.5q-62 0 -111.5 11.5t-84.5 37t-54 66t-19 98.5q0 121 85.5 188t250.5 67q155 0 240 -73.5t85 -221.5zM437 471q0 32 -25.5 48t-72.5 16 t-72.5 -16t-25.5 -48t25.5 -48t72.5 -16t72.5 16t25.5 48z" />
<glyph unicode=":" horiz-adv-x="360" d="M335 406q0 -32 -12 -56.5t-32.5 -42t-49 -26.5t-61.5 -9t-61.5 9t-49 26.5t-32.5 42t-12 56.5q0 31 12 55.5t32.5 41t49 25t61.5 8.5t61.5 -8.5t49 -25t32.5 -41t12 -55.5zM335 123q0 -32 -12 -56.5t-32.5 -42t-49 -26.5t-61.5 -9t-61.5 9t-49 26.5t-32.5 42t-12 56.5 q0 31 12 55.5t32.5 41t49 25t61.5 8.5t61.5 -8.5t49 -25t32.5 -41t12 -55.5z" />
<glyph unicode=";" horiz-adv-x="360" d="M335 406q0 -32 -12 -56.5t-32.5 -42t-49 -26.5t-61.5 -9t-61.5 9t-49 26.5t-32.5 42t-12 56.5q0 31 12 55.5t32.5 41t49 25t61.5 8.5t61.5 -8.5t49 -25t32.5 -41t12 -55.5zM199 -122h-180l15 369h298z" />
<glyph unicode="&#x3c;" horiz-adv-x="515" d="M29 264v172l450 275v-244l-215 -115l215 -115v-248z" />
<glyph unicode="=" horiz-adv-x="646" d="M40 380v202h566v-202h-566zM40 106v202h566v-202h-566z" />
<glyph unicode="&#x3e;" horiz-adv-x="515" d="M36 -11v248l215 115l-215 115v244l450 -275v-172z" />
<glyph unicode="?" horiz-adv-x="608" d="M601 530q0 -70 -36.5 -111.5t-104.5 -73.5q-18 -8 -29.5 -16t-19 -16t-11 -18t-5.5 -23h-236q-3 40 4 69.5t24.5 52t45 40t66.5 34.5q26 11 33 16t7 11q0 15 -35 15q-49 0 -98.5 -14t-109.5 -49l-101 175q42 25 82 42t80.5 27.5t83.5 15t90 4.5q131 0 200.5 -44 t69.5 -137zM429 120q0 -32 -12 -56t-32.5 -41t-49 -25.5t-61.5 -8.5t-61.5 8.5t-49 25.5t-32.5 41t-12 56q0 31 12 55t32.5 40t49 24t61.5 8t61.5 -8t49 -24t32.5 -40t12 -55z" />
<glyph unicode="@" horiz-adv-x="836" d="M799 360q0 -54 -14.5 -93t-39.5 -64.5t-59.5 -37.5t-73.5 -12q-51 0 -81 8.5t-56 25.5q-32 -16 -66 -24t-73 -8q-59 0 -91 34t-32 93q0 30 10.5 53t29 38t43 23t52.5 8t49 -3.5t41 -11.5v6q0 26 -10.5 35.5t-35.5 9.5q-32 0 -59.5 -4.5t-62.5 -18.5l-30 107 q38 14 87.5 22t103.5 8q47 0 81 -7.5t56.5 -25t33 -47t10.5 -72.5v-143q0 -16 5 -27t20 -11q38 0 61.5 34t23.5 106q0 64 -23 115.5t-64 88t-96.5 56t-121.5 19.5t-121.5 -19t-96 -55.5t-63 -90.5t-22.5 -124t23 -124.5t64 -91.5t96.5 -56t121.5 -19q38 0 68 6.5t58 20.5 l28 -65q-38 -17 -76 -25t-80 -8q-81 0 -150.5 26t-120.5 73.5t-80 113.5t-29 147t29.5 147.5t81 114t121 74t150.5 26.5t150.5 -26t120.5 -73t80 -111.5t29 -140.5zM438 312q-8 3 -15.5 5t-15.5 2q-28 0 -28 -33q0 -32 28 -32q17 0 31 7v51z" />
<glyph unicode="A" horiz-adv-x="764" d="M487 0l-21 81h-170l-21 -81h-269l222 700h308l222 -700h-271zM419 264q-14 59 -24.5 114t-13.5 93q-3 -38 -14 -93t-25 -114h77z" />
<glyph unicode="B" horiz-adv-x="718" d="M707 210q0 -102 -70 -156t-210 -54h-389v700h387q142 0 207 -48.5t65 -129.5q0 -63 -29 -98.5t-77 -58.5q25 -9 46 -22t36.5 -31.5t24.5 -43.5t9 -58zM430 475q0 49 -57 49h-59v-98h59q57 0 57 49zM430 225q0 49 -57 49h-59v-98h59q57 0 57 49z" />
<glyph unicode="C" horiz-adv-x="705" d="M698 221q-12 -44 -33.5 -86t-58 -74.5t-91.5 -52t-134 -19.5q-75 0 -140 20.5t-113 64t-76 112t-28 164.5q0 95 27.5 163.5t75.5 112.5t113.5 64.5t142.5 20.5q73 0 126.5 -17.5t90.5 -51t59 -83.5t32 -116l-245 -65q-4 38 -10 63t-14.5 39.5t-20 20t-26.5 5.5 q-20 0 -33.5 -12t-21.5 -33t-12 -49.5t-4 -61.5q0 -32 3.5 -60t12 -49.5t21.5 -34t33 -12.5q32 0 51.5 25.5t30.5 79.5l242 -78v0z" />
<glyph unicode="D" horiz-adv-x="733" d="M709 350q0 -96 -27.5 -162.5t-77.5 -108.5t-121.5 -60.5t-158.5 -18.5h-286v700h286q87 0 158.5 -18.5t121.5 -60.5t77.5 -108.5t27.5 -162.5zM434 350q0 43 -7 72t-20.5 45.5t-33.5 23.5t-45 7h-16v-296h16q25 0 45 7t33.5 23.5t20.5 45t7 72.5z" />
<glyph unicode="E" horiz-adv-x="669" d="M38 0v700h602v-194h-327v-60h234v-191h-234v-61h329v-194h-604z" />
<glyph unicode="F" horiz-adv-x="658" d="M322 486v-65h226v-207h-226v-214h-284v700h602v-214h-318z" />
<glyph unicode="G" horiz-adv-x="758" d="M734 359q0 -88 -19 -156.5t-60.5 -116t-106.5 -72.5t-156 -25q-78 0 -145.5 20.5t-117 64t-77.5 112t-28 164.5q0 90 26 157.5t74.5 113t117 68t152.5 22.5q72 0 125.5 -14.5t92.5 -42t65 -69t43 -95.5l-239 -73q-14 51 -37.5 72.5t-56.5 21.5q-18 0 -33.5 -7.5 t-26.5 -26.5t-17 -50t-6 -77q0 -50 5.5 -82t16.5 -50.5t27 -26t37 -7.5q32 0 49.5 16.5t23.5 46.5h-91v152h362v-40v0z" />
<glyph unicode="H" horiz-adv-x="767" d="M441 0v241h-115v-241h-288v700h288v-231h115v231h288v-700h-288z" />
<glyph unicode="I" horiz-adv-x="364" d="M38 0v700h288v-700h-288z" />
<glyph unicode="J" horiz-adv-x="724" d="M691 309q0 -83 -20 -143.5t-62.5 -99.5t-108 -58t-156.5 -19q-77 0 -132.5 16.5t-93.5 51t-61 88t-35 128.5l264 66q8 -41 15.5 -66t15.5 -38.5t18 -18.5t22 -5q26 0 36 19t10 61v409h288v-391v0z" />
<glyph unicode="K" horiz-adv-x="773" d="M443 0l-98 214l-19 -24v-190h-288v700h288v-85v-23.5t-1 -27t-2 -25.5t-2 -21q11 27 35 66t52 78l27 38h337l-224 -278l230 -422h-335z" />
<glyph unicode="L" horiz-adv-x="615" d="M38 0v700h288v-476h265v-224h-553z" />
<glyph unicode="M" horiz-adv-x="866" d="M572 0v269q0 14 1 39t2 45q-7 -37 -19 -85t-25 -90l-53 -178h-90l-53 178q-13 42 -25 90t-19 85q1 -20 2 -45t1 -39v-269h-256v700h313l37 -123q17 -58 30 -104.5t16 -84.5q3 38 16 85t30 104l37 123h311v-700h-256z" />
<glyph unicode="N" horiz-adv-x="756" d="M465 0l-79 134q-25 42 -49 90t-38 85q2 -20 3.5 -45t1.5 -39v-225h-266v700h263l69 -114q11 -18 24 -40.5t25 -46.5t22 -47t16 -41q-1 9 -2 20.5t-1.5 23.5t-1 22.5t-0.5 17.5v205h266v-700h-253z" />
<glyph unicode="O" horiz-adv-x="764" d="M740 350q0 -96 -28 -164.5t-76.5 -112t-114 -64t-139.5 -20.5t-139.5 20.5t-114 64t-76.5 112t-28 164.5t28 164.5t76.5 112t114 64t139.5 20.5t139.5 -20.5t114 -64t76.5 -112t28 -164.5zM460 350q0 48 -6.5 78t-17 47.5t-25 24t-29.5 6.5t-29.5 -6.5t-25 -24t-17 -47.5 t-6.5 -78t6.5 -78t17 -47.5t25 -24t29.5 -6.5t29.5 6.5t25 24t17 47.5t6.5 78z" />
<glyph unicode="P" horiz-adv-x="692" d="M677 441q0 -68 -22 -117t-64 -80.5t-102.5 -46.5t-136.5 -15h-34v-182h-280v700h314q76 0 136.5 -15t102.5 -46.5t64 -80.5t22 -117zM415 441q0 64 -76 64h-26v-128h26q76 0 76 64z" />
<glyph unicode="Q" horiz-adv-x="764" d="M539 -75l-62 74q-43 -10 -95 -10q-71 0 -135.5 20.5t-114 64t-79 112t-29.5 164.5t29.5 164.5t79 112t114 64t135.5 20.5t135.5 -20.5t114 -64t79 -112t29.5 -164.5q0 -66 -14 -118t-39 -93l57 -68zM460 350q0 48 -7 78t-18.5 47.5t-25.5 24t-27 6.5q-14 0 -27.5 -6.5 t-25 -24t-18.5 -47.5t-7 -78t7 -78t18.5 -47.5t25 -24t27.5 -6.5q13 0 27 6.5t25.5 24t18.5 47.5t7 78z" />
<glyph unicode="R" horiz-adv-x="716" d="M415 0l-100 217h-2v-217h-275v700h356q60 0 113 -10.5t93 -37t63 -72t23 -115.5q0 -42 -9.5 -74t-25.5 -56t-37 -42t-44 -32l147 -261h-302zM418 455q0 61 -78 61h-27v-122h27q78 0 78 61z" />
<glyph unicode="S" horiz-adv-x="681" d="M663 229q0 -69 -25.5 -115t-69 -73.5t-102 -39.5t-124.5 -12q-92 0 -176 17t-159 47l73 197q83 -32 148.5 -44.5t107.5 -12.5q28 0 36 4t8 12q0 3 -1.5 6t-10 6.5t-25.5 8.5t-47 13q-73 18 -124 39t-83 48t-46.5 61.5t-14.5 79.5q0 69 25 115t69 73.5t102.5 39.5 t126.5 12q89 0 162.5 -18.5t142.5 -49.5l-78 -195q-60 29 -118.5 44t-109.5 15q-25 0 -32 -4.5t-7 -11.5q0 -3 1 -6.5t8 -7t22 -8.5t43 -12q70 -17 122.5 -37t87 -47t51.5 -62t17 -82z" />
<glyph unicode="T" horiz-adv-x="680" d="M484 476v-476h-288v476h-176v224h640v-224h-176z" />
<glyph unicode="U" horiz-adv-x="756" d="M723 309q0 -85 -20 -145.5t-62.5 -99.5t-107.5 -57t-155 -18t-155 18t-107.5 57t-62.5 99.5t-20 145.5v391h288v-406q0 -41 12.5 -62t44.5 -21t44.5 21t12.5 62v406h288v-391v0z" />
<glyph unicode="V" horiz-adv-x="744" d="M516 0h-288l-222 700h281l40 -170q19 -76 30.5 -142t15.5 -119q4 53 15.5 119t30.5 142l40 170h279z" />
<glyph unicode="W" horiz-adv-x="988" d="M816 0h-277l-19 122q-11 67 -18 127t-9 108q-2 -48 -9 -108t-18 -127l-19 -122h-275l-165 700h281l18 -145q8 -68 14.5 -127.5t8.5 -107.5q2 48 8.5 107.5t14.5 127.5l18 145h250l18 -145q8 -68 14.5 -127.5t8.5 -107.5q2 48 8.5 107.5t14.5 127.5l18 145h279z" />
<glyph unicode="X" horiz-adv-x="746" d="M446 0l-33 71q-15 32 -26.5 61t-14.5 47q-3 -18 -15 -47.5t-26 -60.5l-33 -71h-300l208 353l-203 347h301l29 -62q15 -32 26.5 -61t14.5 -47q3 18 15 47.5t26 60.5l29 62h299l-203 -347l208 -353h-302z" />
<glyph unicode="Y" horiz-adv-x="762" d="M525 239v-239h-288v239l-240 461h306l33 -87q17 -47 29.5 -85.5t16.5 -70.5q4 32 16.5 71t29.5 85l33 87h304z" />
<glyph unicode="Z" horiz-adv-x="710" d="M18 0v192l219 216q29 29 53 52t43 37q-14 -3 -42 -4.5t-57 -1.5h-196v209h647v-192l-219 -216q-29 -29 -53 -52t-43 -37q14 3 42 4.5t57 1.5h216v-209h-667z" />
<glyph unicode="[" horiz-adv-x="463" d="M38 -110v810h401v-175h-151v-460h151v-175h-401z" />
<glyph unicode="\" horiz-adv-x="570" d="M343 -90l-383 880h267l383 -880h-267z" />
<glyph unicode="]" horiz-adv-x="463" d="M24 -110v175h151v460h-151v175h401v-810h-401z" />
<glyph unicode="^" horiz-adv-x="620" d="M375 362l-66 138l-66 -138h-237l186 338h236l186 -338h-239z" />
<glyph unicode="_" horiz-adv-x="500" d="M0 -200v168h500v-168h-500z" />
<glyph unicode="`" horiz-adv-x="500" d="M225 559l-214 216h312l98 -216h-196z" />
<glyph unicode="a" horiz-adv-x="585" d="M319 0v35q-34 -20 -69.5 -33t-70.5 -13q-81 0 -125 46.5t-44 127.5q0 41 14.5 72t40 52t59 32t71.5 11t66.5 -4.5t57.5 -15.5v8q0 36 -14.5 48.5t-48.5 12.5q-44 0 -81.5 -6.5t-85.5 -24.5l-41 146q51 20 119 31t142 11q64 0 111 -10.5t77.5 -34.5t45 -64t14.5 -99v-328 h-238zM319 204q-21 9 -43 9q-38 0 -38 -44t38 -44q22 0 43 9v70z" />
<glyph unicode="b" horiz-adv-x="625" d="M607 263q0 -72 -16 -124t-43 -85.5t-62 -49t-72 -15.5q-44 0 -70.5 12.5t-52.5 33.5v-35h-260v649l260 86v-245q26 21 52.5 33.5t70.5 12.5q37 0 72 -16t62 -49t43 -84.5t16 -123.5zM365 263q0 60 -14.5 81.5t-36.5 21.5q-14 0 -23 -5v-197q9 -5 23 -5q11 0 20.5 4.5 t16 16.5t10.5 32t4 51z" />
<glyph unicode="c" horiz-adv-x="571" d="M347 285q-5 45 -15.5 61.5t-29.5 16.5q-20 0 -31.5 -22t-11.5 -81q0 -57 11.5 -77.5t34.5 -20.5q14 0 28 14.5t21 52.5l204 -57q-26 -85 -89.5 -134t-159.5 -49q-65 0 -118.5 16t-92 49.5t-60 85t-21.5 123.5q0 69 20.5 120.5t58 85t91 50.5t120.5 17q106 0 167.5 -52 t86.5 -148z" />
<glyph unicode="d" horiz-adv-x="625" d="M334 0v35q-26 -21 -52.5 -33.5t-70.5 -12.5q-38 0 -72.5 16t-61.5 49t-43 84.5t-16 123.5t16 124t43 85.5t61.5 49t72.5 15.5q44 0 70.5 -12.5t52.5 -33.5v159l260 86v-735h-260zM334 361q-9 5 -23 5q-22 0 -36.5 -21.5t-14.5 -82.5q0 -60 14.5 -81.5t36.5 -21.5 q14 0 23 5v197z" />
<glyph unicode="e" horiz-adv-x="582" d="M243 203q9 -33 32.5 -45.5t65.5 -12.5q23 0 43.5 1.5t41 5t43 9t49.5 13.5l39 -145q-33 -10 -63 -17.5t-60.5 -12.5t-62.5 -7.5t-70 -2.5q-137 0 -210.5 70t-73.5 203q0 74 22.5 126t61.5 85t91.5 48t112.5 15q57 0 105 -16.5t82.5 -53t54 -96t19.5 -145.5v-22h-323z M354 324q-5 33 -18 48t-40 15q-23 0 -36.5 -13.5t-18.5 -49.5h113z" />
<glyph unicode="f" horiz-adv-x="388" d="M381 564q-16 7 -27 9t-22 2q-17 0 -23.5 -8t-6.5 -28v-14h76v-164h-70v-361h-250v361h-52v164h52v27q0 184 182 184q47 0 82.5 -6.5t58.5 -16.5v-149v0z" />
<glyph unicode="g" horiz-adv-x="625" d="M594 130q0 -81 -21 -137.5t-64.5 -94t-111.5 -58.5t-162 -33l-89 125q63 8 101 18.5t58.5 23.5t27 28.5t6.5 32.5v5q-28 -25 -56 -38t-72 -13q-38 0 -72.5 16t-61.5 49t-43 84.5t-16 123.5t16 124t43 85.5t61.5 49t72.5 15.5q44 0 70.5 -12.5t52.5 -33.5v35h260v-395z M334 361q-9 5 -23 5q-22 0 -36.5 -21.5t-14.5 -82.5q0 -60 14.5 -81.5t36.5 -21.5q14 0 23 5v197z" />
<glyph unicode="h" horiz-adv-x="653" d="M365 0v287q0 25 -8.5 37.5t-28.5 12.5t-28.5 -12.5t-8.5 -37.5v-287h-260v649l260 86v-245q16 10 32.5 18.5t34.5 14.5t39 9.5t47 3.5q38 0 71 -11t57.5 -35t38.5 -61t14 -88v-341h-260z" />
<glyph unicode="i" horiz-adv-x="322" d="M302 658q0 -52 -38.5 -76.5t-102.5 -24.5t-102.5 24.5t-38.5 76.5q0 46 38.5 71.5t102.5 25.5t102.5 -25.5t38.5 -71.5zM31 0v525h260v-525h-260z" />
<glyph unicode="j" horiz-adv-x="322" d="M302 658q0 -52 -38.5 -76.5t-102.5 -24.5t-102.5 24.5t-38.5 76.5q0 46 38.5 71.5t102.5 25.5t102.5 -25.5t38.5 -71.5zM291 74q0 -75 -20 -124.5t-58 -79.5t-92.5 -44.5t-124.5 -18.5l-72 156q34 3 55 10t32.5 19t15.5 29.5t4 41.5v462h260v-451z" />
<glyph unicode="k" horiz-adv-x="626" d="M368 0l-61 169l-16 -20v-149h-260v649l260 86v-308q0 -9 -1 -24.5t-2 -26.5q7 22 22.5 53t29.5 52l29 44h255l-140 -174l150 -351h-266z" />
<glyph unicode="l" horiz-adv-x="322" d="M31 0v649l260 86v-735h-260z" />
<glyph unicode="m" horiz-adv-x="947" d="M669 0v287q0 25 -8.5 37.5t-28.5 12.5t-28.5 -12.5t-8.5 -37.5v-287h-240v287q0 25 -8.5 37.5t-28.5 12.5t-28.5 -12.5t-8.5 -37.5v-287h-250v525h250v-35q16 10 32.5 18.5t34.5 14.5t39 9.5t47 3.5q45 0 77 -13t56 -38q43 25 82.5 38t93.5 13q38 0 70 -11t55.5 -35 t37 -61t13.5 -88v-341h-250z" />
<glyph unicode="n" horiz-adv-x="653" d="M365 0v287q0 25 -8.5 37.5t-28.5 12.5t-28.5 -12.5t-8.5 -37.5v-287h-260v525h260v-35q16 10 32.5 18.5t34.5 14.5t39 9.5t47 3.5q38 0 71 -11t57.5 -35t38.5 -61t14 -88v-341h-260z" />
<glyph unicode="o" horiz-adv-x="610" d="M593 262q0 -70 -20.5 -121.5t-58 -85t-91 -50t-118.5 -16.5t-118.5 16.5t-91 50t-58 85t-20.5 121.5t20.5 121.5t58 85.5t91 50.5t118.5 16.5t118.5 -16.5t91 -50.5t58 -85.5t20.5 -121.5zM351 262q0 32 -3 52.5t-9 32.5t-14.5 16.5t-19.5 4.5t-19.5 -4.5t-14.5 -16.5 t-9 -32.5t-3 -52.5t3 -52.5t9 -32t14.5 -16t19.5 -4.5t19.5 4.5t14.5 16t9 32t3 52.5z" />
<glyph unicode="p" horiz-adv-x="625" d="M607 263q0 -72 -16 -124t-43 -85.5t-62 -49t-72 -15.5q-44 0 -70.5 12.5t-52.5 33.5v-142l-260 -86v718h260v-35q26 21 52.5 33.5t70.5 12.5q37 0 72 -16t62 -49t43 -84.5t16 -123.5zM365 263q0 60 -14.5 81.5t-36.5 21.5q-14 0 -23 -5v-197q9 -5 23 -5q11 0 20.5 4.5 t16 16.5t10.5 32t4 51z" />
<glyph unicode="q" horiz-adv-x="625" d="M334 -193v228q-26 -21 -52.5 -33.5t-70.5 -12.5q-38 0 -72.5 16t-61.5 49t-43 84.5t-16 123.5t16 124t43 85.5t61.5 49t72.5 15.5q44 0 70.5 -12.5t52.5 -33.5v35h260v-632zM334 361q-9 5 -23 5q-22 0 -36.5 -21.5t-14.5 -82.5q0 -60 14.5 -81.5t36.5 -21.5q14 0 23 5 v197z" />
<glyph unicode="r" horiz-adv-x="472" d="M433 298q-15 11 -31.5 16.5t-42.5 5.5q-31 0 -49.5 -18t-18.5 -56v-246h-260v525h260v-35q63 46 130 46q39 0 58 -4z" />
<glyph unicode="s" horiz-adv-x="522" d="M505 172q0 -91 -67.5 -137t-182.5 -46q-36 0 -65.5 1.5t-58 5.5t-58 10.5t-63.5 15.5l48 158q45 -15 93.5 -25t99.5 -10q14 0 19 3.5t5 8.5q0 6 -4.5 9t-16.5 6q-67 17 -111.5 32.5t-70.5 35.5t-37 47.5t-11 67.5t15.5 73t46.5 57t77.5 37.5t109.5 13.5q68 0 120.5 -8 t104.5 -25l-58 -161q-50 21 -89.5 29.5t-79.5 8.5q-17 0 -17 -12q0 -7 5 -10t15 -5q67 -17 112 -33t71 -36t37 -47t11 -65z" />
<glyph unicode="t" horiz-adv-x="450" d="M404 12q-23 -10 -65 -16.5t-89 -6.5q-92 0 -142 39t-50 135v198h-52v164h52v125l256 85v-210h112v-164h-118v-145q0 -23 10 -34.5t38 -11.5q21 0 37.5 5t36.5 16z" />
<glyph unicode="u" horiz-adv-x="653" d="M362 0v35q-33 -20 -67 -33t-86 -13q-38 0 -71 11t-57.5 35t-38.5 61t-14 88v341h260v-287q0 -25 8.5 -37.5t28.5 -12.5t28.5 12.5t8.5 37.5v287h260v-525h-260z" />
<glyph unicode="v" horiz-adv-x="602" d="M431 0h-260l-173 525h251l12 -60q14 -72 26 -142t15 -120q3 50 15 120t26 142l12 60h249z" />
<glyph unicode="w" horiz-adv-x="796" d="M656 0h-216l-7 36q-13 67 -23 127.5t-13 105.5q-3 -45 -13 -105.5t-23 -127.5l-7 -36h-214l-140 525h231l12 -73q10 -58 17 -112t9 -94q2 40 9 94.5t16 112.5l11 72h188l11 -72q9 -58 16 -112.5t9 -94.5q2 40 9 94t17 112l12 73h229z" />
<glyph unicode="x" horiz-adv-x="614" d="M363 0l-16 41q-17 43 -27.5 73t-13.5 50q-3 -20 -13.5 -49.5t-27.5 -73.5l-16 -41h-254l165 272l-154 253h256l5 -14q15 -42 26.5 -76t14.5 -54q3 20 14.5 54t26.5 76l5 14h254l-154 -253l165 -272h-256z" />
<glyph unicode="y" horiz-adv-x="602" d="M360 -185h-235l61 168l-188 542h251l12 -60q14 -72 26 -142t15 -120q3 50 15 120t26 142l12 60h249z" />
<glyph unicode="z" horiz-adv-x="565" d="M25 0v145l219 215h-209v165h507v-145l-219 -215h219v-165h-517z" />
<glyph unicode="{" horiz-adv-x="510" d="M486 -110q-103 0 -174.5 14t-116.5 44t-65 76t-20 109v12q0 32 -12 43.5t-38 11.5h-43v196h43q26 0 38 11.5t12 43.5v11q0 63 20 109t65 76t116.5 44t174.5 14v-161q-36 -4 -59 -10.5t-36 -18t-17.5 -29t-4.5 -44.5v-7q0 -65 -25 -95.5t-71 -41.5q46 -11 71 -41.5 t25 -95.5v-8q0 -27 4.5 -44.5t17.5 -29t36 -18t59 -10.5v-161v0z" />
<glyph unicode="|" horiz-adv-x="344" d="M38 -185v985h268v-985h-268z" />
<glyph unicode="}" horiz-adv-x="510" d="M450 200q-26 0 -38 -11.5t-12 -43.5v-12q0 -63 -20 -109t-65 -76t-116.5 -44t-174.5 -14v161q36 4 59 10.5t36 18t17.5 29t4.5 44.5v8q0 65 25 95.5t71 41.5q-46 11 -71 41.5t-25 95.5v7q0 27 -4.5 44.5t-17.5 29t-36 18t-59 10.5v161q103 0 174.5 -14t116.5 -44t65 -76 t20 -109v-11q0 -32 12 -43.5t38 -11.5h43v-196h-43z" />
<glyph unicode="~" horiz-adv-x="582" d="M576 453q-27 -65 -50.5 -108t-46 -68t-46 -35t-50.5 -10q-17 0 -30.5 2t-27.5 6.5t-30 13t-37 22.5q-13 8 -20.5 11.5t-17.5 3.5q-8 0 -14.5 -2.5t-13 -9.5t-14.5 -20t-18 -34l-154 65q27 65 50.5 108t46 68t46 35t50.5 10q17 0 30.5 -2t27.5 -6.5t30 -13.5t37 -22 q13 -8 20.5 -11.5t17.5 -3.5q8 0 14.5 2.5t13 9.5t14 20t18.5 34l154 -65v0z" />
<glyph unicode="&#xa1;" horiz-adv-x="360" d="M335 580q0 -32 -12 -55.5t-32.5 -39.5t-49 -24t-61.5 -8t-61.5 8t-49 24t-32.5 39.5t-12 55.5q0 31 12 55.5t32.5 41.5t49 25.5t61.5 8.5t61.5 -8.5t49 -25.5t32.5 -41.5t12 -55.5zM36 0v244l55 184h178l55 -184v-244h-288z" />
<glyph unicode="&#xa2;" horiz-adv-x="556" d="M342 378q-5 45 -15.5 61.5t-29.5 16.5q-20 0 -31.5 -22t-11.5 -81q0 -57 11.5 -77.5t34.5 -20.5q14 0 28 14.5t21 52.5l199 -57q-17 -56 -50 -96.5t-81 -63.5v-105h-254v106q-69 28 -107.5 89t-38.5 161q0 97 38 158t108 90v96h254v-92q53 -23 85 -68t49 -111z" />
<glyph unicode="&#xa3;" horiz-adv-x="694" d="M603 444q-67 38 -130 52t-112 14q-28 0 -38.5 -5.5t-10.5 -17.5q0 -8 5 -16.5t16 -22.5q5 -6 9 -12l8 -12h157v-175h-143q-14 -30 -39 -57h339v-192h-643v149q35 21 58 45.5t33 54.5h-75v175h52q-22 27 -32 51t-10 53q0 39 19.5 72.5t58.5 58t98.5 38.5t139.5 14 q89 0 167 -18t162 -61z" />
<glyph unicode="&#xa5;" horiz-adv-x="762" d="M543 291h149v-197h-177v-94h-268v94h-177v197h149l-222 409h306l33 -87q17 -47 29.5 -85.5t16.5 -70.5q4 32 16.5 71t29.5 85l33 87h304z" />
<glyph unicode="&#xa6;" d="M700 216q-30 -31 -54 -13q-10 8 -11.5 19.5t3.5 31.5l-6 25h-121v-99l21 -6q25 4 36 3t19 -11q17 -23 -12 -55l-146 -148l-143 148q-31 31 -13 55q8 11 18.5 11.5t33.5 -3.5l24 6v99h-123l-7 -24q4 -23 3.5 -33.5t-10.5 -18.5q-25 -18 -56 13l-147 143l147 146 q32 30 56 12q8 -8 10 -19t-3 -36l7 -21h123v79l-24 6q-23 -3 -33.5 -3t-18.5 11q-18 24 13 55l143 148l146 -148q29 -32 12 -55q-8 -10 -19 -11t-36 3l-21 -6v-79h121l6 21q-5 25 -3 36t11 19q25 19 54 -12l148 -146z" />
<glyph unicode="&#xa7;" horiz-adv-x="722" d="M697 265q0 -54 -26.5 -93.5t-74.5 -69.5q8 -19 11.5 -39t3.5 -43q0 -38 -15 -71.5t-46 -58.5t-79 -39.5t-114 -14.5q-69 0 -141.5 19t-131.5 54l77 161q113 -59 200 -59q23 0 23 15q0 7 -10.5 13t-50.5 18q-90 27 -148 51t-91.5 49.5t-46 55.5t-12.5 69q0 54 26.5 93.5 t74.5 69.5q-8 19 -11.5 39t-3.5 43q0 38 15 71.5t46 58.5t79 39.5t114 14.5q69 0 141.5 -19t131.5 -54l-77 -161q-113 59 -200 59q-23 0 -23 -15q0 -7 10.5 -13t50.5 -18q90 -27 148 -51t91.5 -49.5t46 -55.5t12.5 -69zM470 242q0 8 -3.5 14t-16 13t-36.5 15t-65 20 q-24 7 -45 14t-39 15q-13 -13 -13 -28q0 -8 3.5 -14t16 -13t36.5 -15t65 -20q24 -7 45 -14t39 -15q13 13 13 28z" />
<glyph unicode="&#xa8;" horiz-adv-x="500" d="M523 676q0 -25 -10.5 -48t-28.5 -40t-41 -27.5t-48 -10.5q-26 0 -49.5 10.5t-41.5 27.5t-28.5 40t-10.5 48q0 27 10.5 50.5t28.5 40.5t41.5 27t49.5 10q25 0 48 -10t41 -27t28.5 -40.5t10.5 -50.5zM235 676q0 -25 -10.5 -48t-28.5 -40t-41.5 -27.5t-48.5 -10.5 q-26 0 -49 10.5t-41 27.5t-28.5 40t-10.5 48q0 27 10.5 50.5t28.5 40.5t41 27t49 10q25 0 48.5 -10t41.5 -27t28.5 -40.5t10.5 -50.5z" />
<glyph unicode="&#xa9;" horiz-adv-x="836" d="M799 351q0 -81 -29.5 -147.5t-81 -114t-121 -74t-150.5 -26.5t-150.5 26t-120.5 73.5t-80 113.5t-29 147t29.5 147.5t81 114t121 74t150.5 26.5t150.5 -26t120.5 -73.5t80 -113.5t29 -147zM722 349q0 70 -23 124.5t-64 91.5t-96.5 56t-121.5 19t-121.5 -19t-96 -55.5 t-63 -90.5t-22.5 -124t23 -124.5t64 -91.5t96.5 -56t121.5 -19t121.5 19t96 55.5t63 90.5t22.5 124zM601 283q-6 -20 -17.5 -42.5t-32 -41.5t-51.5 -31t-74 -12q-39 0 -74.5 11t-62.5 35t-43 61.5t-16 90.5q0 52 16 90t43 62t63 35.5t76 11.5q77 0 116.5 -36.5t52.5 -111.5 l-135 -35q-4 42 -13 56t-26 14q-21 0 -30 -24.5t-9 -61.5q0 -35 8.5 -60t30.5 -25q32 0 45 57z" />
<glyph unicode="&#xaa;" horiz-adv-x="500" d="M271 276v25q-27 -14 -55 -24t-54 -10q-66 0 -102.5 38.5t-36.5 104.5q0 33 12 58.5t32.5 43t48 26t58.5 8.5q29 0 51.5 -3.5t45.5 -11.5v3q0 27 -11 36t-37 9q-35 0 -65 -5t-70 -20l-34 122q42 17 97 26t115 9q52 0 89.5 -8.5t62.5 -28t37 -52t12 -80.5v-266h-196z M271 440q-19 7 -32 7q-27 0 -27 -33q0 -32 27 -32q8 0 16 2l16 4v52z" />
<glyph unicode="&#xab;" horiz-adv-x="722" d="M432 0l-86 263l86 262h270l-86 -262l86 -263h-270zM104 0l-86 263l86 262h270l-86 -262l86 -263h-270z" />
<glyph unicode="&#xac;" horiz-adv-x="660" d="M435 162q-26 -23 -48.5 -25.5t-36.5 7.5q-17 11 -21 30t1 44h-305v272h305q-5 25 -1 44t21 30q14 10 37 7.5t48 -25.5l210 -192z" />
<glyph unicode="&#xae;" horiz-adv-x="836" d="M799 351q0 -81 -29.5 -147.5t-81 -114t-121 -74t-150.5 -26.5t-150.5 26t-120.5 73.5t-80 113.5t-29 147t29.5 147.5t81 114t121 74t150.5 26.5t150.5 -26t120.5 -73.5t80 -113.5t29 -147zM722 349q0 70 -23 124.5t-64 91.5t-96.5 56t-121.5 19t-121.5 -19t-96 -55.5 t-63 -90.5t-22.5 -124t23 -124.5t64 -91.5t96.5 -56t121.5 -19t121.5 19t96 55.5t63 90.5t22.5 124zM454 167l-55 119h-1v-119h-151v385h195q33 0 62.5 -6t51 -20.5t34.5 -39.5t13 -63q0 -47 -19 -72t-45 -41l81 -143h-166zM455 417q0 34 -42 34h-15v-67h15q42 0 42 33z" />
<glyph unicode="&#xaf;" horiz-adv-x="500" d="M37 562v173h426v-173h-426z" />
<glyph unicode="&#xb0;" horiz-adv-x="526" d="M506 471q0 -54 -19 -98.5t-51.5 -76.5t-77 -49.5t-95.5 -17.5t-95.5 17.5t-77 49.5t-51.5 76.5t-19 98.5q0 52 19 96t51.5 76t77 50t95.5 18t95.5 -18t77 -50t51.5 -76t19 -96zM343 471q0 42 -22.5 65t-57.5 23t-57.5 -23t-22.5 -65q0 -44 22.5 -67t57.5 -23t57.5 23 t22.5 67z" />
<glyph unicode="&#xb1;" d="M700 216q-30 -31 -54 -13q-10 8 -11.5 19.5t3.5 31.5l-6 25h-121v-99l21 -6q25 4 36 3t19 -11q17 -23 -12 -55l-146 -148l-143 148q-31 31 -13 55q8 11 18.5 11.5t33.5 -3.5l24 6v99h-123l-7 -24q4 -23 3.5 -33.5t-10.5 -18.5q-25 -18 -56 13l-147 143l147 146 q32 30 56 12q8 -8 10 -19t-3 -36l7 -21h123v79l-24 6q-23 -3 -33.5 -3t-18.5 11q-18 24 13 55l143 148l146 -148q29 -32 12 -55q-8 -10 -19 -11t-36 3l-21 -6v-79h121l6 21q-5 25 -3 36t11 19q25 19 54 -12l148 -146z" />
<glyph unicode="&#xb2;" d="M700 216q-30 -31 -54 -13q-10 8 -11.5 19.5t3.5 31.5l-6 25h-121v-99l21 -6q25 4 36 3t19 -11q17 -23 -12 -55l-146 -148l-143 148q-31 31 -13 55q8 11 18.5 11.5t33.5 -3.5l24 6v99h-123l-7 -24q4 -23 3.5 -33.5t-10.5 -18.5q-25 -18 -56 13l-147 143l147 146 q32 30 56 12q8 -8 10 -19t-3 -36l7 -21h123v79l-24 6q-23 -3 -33.5 -3t-18.5 11q-18 24 13 55l143 148l146 -148q29 -32 12 -55q-8 -10 -19 -11t-36 3l-21 -6v-79h121l6 21q-5 25 -3 36t11 19q25 19 54 -12l148 -146z" />
<glyph unicode="&#xb3;" d="M700 216q-30 -31 -54 -13q-10 8 -11.5 19.5t3.5 31.5l-6 25h-121v-99l21 -6q25 4 36 3t19 -11q17 -23 -12 -55l-146 -148l-143 148q-31 31 -13 55q8 11 18.5 11.5t33.5 -3.5l24 6v99h-123l-7 -24q4 -23 3.5 -33.5t-10.5 -18.5q-25 -18 -56 13l-147 143l147 146 q32 30 56 12q8 -8 10 -19t-3 -36l7 -21h123v79l-24 6q-23 -3 -33.5 -3t-18.5 11q-18 24 13 55l143 148l146 -148q29 -32 12 -55q-8 -10 -19 -11t-36 3l-21 -6v-79h121l6 21q-5 25 -3 36t11 19q25 19 54 -12l148 -146z" />
<glyph unicode="&#xb4;" horiz-adv-x="500" d="M275 559h-196l98 216h312z" />
<glyph unicode="&#xb5;" horiz-adv-x="820" d="M615 162q-24 -24 -47.5 -26t-37.5 8q-17 11 -21 30t1 44h-200q5 -25 1 -44t-21 -30q-14 -10 -37.5 -8t-47.5 26l-190 192l190 192q24 24 47.5 26t37.5 -8q17 -11 21 -30t-1 -44h200q-5 25 -1 44t21 30q14 10 37.5 8t47.5 -26l190 -192z" />
<glyph unicode="&#xb6;" horiz-adv-x="724" d="M532 -185v748h-54v-748h-154v403h-52q-51 0 -96 16t-79.5 47t-54.5 76t-20 103t20 102.5t54.5 75t80 46.5t95.5 16h414v-885h-154z" />
<glyph unicode="&#xb7;" horiz-adv-x="360" d="M335 367q0 -70 -42.5 -112.5t-112.5 -42.5t-112.5 42.5t-42.5 112.5t42.5 110.5t112.5 40.5t112.5 -40.5t42.5 -110.5z" />
<glyph unicode="&#xb8;" horiz-adv-x="500" d="M390 -111q0 -23 -10.5 -40t-29 -28.5t-43.5 -17.5t-53 -6q-54 0 -93.5 9.5t-75.5 26.5l29 63q30 -14 55 -21t54 -7q21 0 28.5 5t7.5 14t-6.5 13t-16.5 4q-11 0 -19.5 -2t-17.5 -6l-38 26l35 78h76l-17 -38q9 3 22 4t25 1q38 0 63 -18.5t25 -59.5z" />
<glyph unicode="&#xb9;" d="M700 216q-30 -31 -54 -13q-10 8 -11.5 19.5t3.5 31.5l-6 25h-121v-99l21 -6q25 4 36 3t19 -11q17 -23 -12 -55l-146 -148l-143 148q-31 31 -13 55q8 11 18.5 11.5t33.5 -3.5l24 6v99h-123l-7 -24q4 -23 3.5 -33.5t-10.5 -18.5q-25 -18 -56 13l-147 143l147 146 q32 30 56 12q8 -8 10 -19t-3 -36l7 -21h123v79l-24 6q-23 -3 -33.5 -3t-18.5 11q-18 24 13 55l143 148l146 -148q29 -32 12 -55q-8 -10 -19 -11t-36 3l-21 -6v-79h121l6 21q-5 25 -3 36t11 19q25 19 54 -12l148 -146z" />
<glyph unicode="&#xba;" horiz-adv-x="502" d="M484 489q0 -55 -17 -96.5t-48 -69t-74 -41.5t-94 -14t-94 14t-74 41.5t-48 69t-17 96.5t17 96.5t48 69.5t74 42t94 14t94 -14t74 -42t48 -69.5t17 -96.5zM288 489q0 51 -10.5 68t-26.5 17t-26.5 -17t-10.5 -68t10.5 -67.5t26.5 -16.5t26.5 16.5t10.5 67.5z" />
<glyph unicode="&#xbb;" horiz-adv-x="722" d="M618 0h-270l86 263l-86 262h270l86 -262zM290 0h-270l86 263l-86 262h270l86 -262z" />
<glyph unicode="&#xbc;" d="M700 216q-30 -31 -54 -13q-10 8 -11.5 19.5t3.5 31.5l-6 25h-121v-99l21 -6q25 4 36 3t19 -11q17 -23 -12 -55l-146 -148l-143 148q-31 31 -13 55q8 11 18.5 11.5t33.5 -3.5l24 6v99h-123l-7 -24q4 -23 3.5 -33.5t-10.5 -18.5q-25 -18 -56 13l-147 143l147 146 q32 30 56 12q8 -8 10 -19t-3 -36l7 -21h123v79l-24 6q-23 -3 -33.5 -3t-18.5 11q-18 24 13 55l143 148l146 -148q29 -32 12 -55q-8 -10 -19 -11t-36 3l-21 -6v-79h121l6 21q-5 25 -3 36t11 19q25 19 54 -12l148 -146z" />
<glyph unicode="&#xbd;" d="M700 216q-30 -31 -54 -13q-10 8 -11.5 19.5t3.5 31.5l-6 25h-121v-99l21 -6q25 4 36 3t19 -11q17 -23 -12 -55l-146 -148l-143 148q-31 31 -13 55q8 11 18.5 11.5t33.5 -3.5l24 6v99h-123l-7 -24q4 -23 3.5 -33.5t-10.5 -18.5q-25 -18 -56 13l-147 143l147 146 q32 30 56 12q8 -8 10 -19t-3 -36l7 -21h123v79l-24 6q-23 -3 -33.5 -3t-18.5 11q-18 24 13 55l143 148l146 -148q29 -32 12 -55q-8 -10 -19 -11t-36 3l-21 -6v-79h121l6 21q-5 25 -3 36t11 19q25 19 54 -12l148 -146z" />
<glyph unicode="&#xbe;" d="M700 216q-30 -31 -54 -13q-10 8 -11.5 19.5t3.5 31.5l-6 25h-121v-99l21 -6q25 4 36 3t19 -11q17 -23 -12 -55l-146 -148l-143 148q-31 31 -13 55q8 11 18.5 11.5t33.5 -3.5l24 6v99h-123l-7 -24q4 -23 3.5 -33.5t-10.5 -18.5q-25 -18 -56 13l-147 143l147 146 q32 30 56 12q8 -8 10 -19t-3 -36l7 -21h123v79l-24 6q-23 -3 -33.5 -3t-18.5 11q-18 24 13 55l143 148l146 -148q29 -32 12 -55q-8 -10 -19 -11t-36 3l-21 -6v-79h121l6 21q-5 25 -3 36t11 19q25 19 54 -12l148 -146z" />
<glyph unicode="&#xbf;" horiz-adv-x="608" d="M489 580q0 -32 -12 -55.5t-32.5 -39.5t-49 -24t-61.5 -8t-61.5 8t-49 24t-32.5 39.5t-12 55.5q0 31 12 55.5t32.5 41.5t49 25.5t61.5 8.5t61.5 -8.5t49 -25.5t32.5 -41.5t12 -55.5zM613 78q-42 -25 -82 -42t-80.5 -27.5t-83.5 -15t-90 -4.5q-131 0 -200.5 44t-69.5 137 q0 70 36.5 111.5t104.5 73.5q18 8 29.5 16t19 16t11 18t5.5 23h236q3 -40 -4 -69.5t-24.5 -52t-45 -40.5t-66.5 -34q-26 -11 -33 -16t-7 -11q0 -15 35 -15q49 0 98.5 14t109.5 49z" />
<glyph unicode="&#xc0;" horiz-adv-x="764" d="M487 0l-21 81h-170l-21 -81h-269l222 700h308l222 -700h-271zM419 264q-14 59 -24.5 114t-13.5 93q-3 -38 -14 -93t-25 -114h77zM292 724l-214 216h312l98 -216h-196z" />
<glyph unicode="&#xc1;" horiz-adv-x="764" d="M487 0l-21 81h-170l-21 -81h-269l222 700h308l222 -700h-271zM419 264q-14 59 -24.5 114t-13.5 93q-3 -38 -14 -93t-25 -114h77zM472 724h-196l98 216h312z" />
<glyph unicode="&#xc2;" horiz-adv-x="764" d="M487 0l-21 81h-170l-21 -81h-269l222 700h308l222 -700h-271zM419 264q-14 59 -24.5 114t-13.5 93q-3 -38 -14 -93t-25 -114h77zM444 724l-63 66l-63 -66h-201l170 220h190l170 -220h-203z" />
<glyph unicode="&#xc3;" horiz-adv-x="764" d="M487 0l-21 81h-170l-21 -81h-269l222 700h308l222 -700h-271zM419 264q-14 59 -24.5 114t-13.5 93q-3 -38 -14 -93t-25 -114h77zM646 944q0 -117 -42.5 -169.5t-121.5 -52.5q-35 0 -59 7t-50 23q-18 11 -29 17.5t-20 6.5t-13.5 -10.5t-5.5 -40.5h-181q0 117 42.5 169.5 t121.5 52.5q35 0 59 -7t50 -23q18 -11 29 -17.5t20 -6.5t13.5 10.5t5.5 40.5h181v0z" />
<glyph unicode="&#xc4;" horiz-adv-x="764" d="M487 0l-21 81h-170l-21 -81h-269l222 700h308l222 -700h-271zM419 264q-14 59 -24.5 114t-13.5 93q-3 -38 -14 -93t-25 -114h77zM655 846q0 -25 -10.5 -48t-28.5 -40t-41 -27.5t-48 -10.5q-26 0 -49.5 10.5t-41.5 27.5t-28.5 40t-10.5 48q0 27 10.5 50.5t28.5 40.5 t41.5 27t49.5 10q25 0 48 -10t41 -27t28.5 -40.5t10.5 -50.5zM367 846q0 -25 -10.5 -48t-28.5 -40t-41.5 -27.5t-48.5 -10.5q-26 0 -49 10.5t-41 27.5t-28.5 40t-10.5 48q0 27 10.5 50.5t28.5 40.5t41 27t49 10q25 0 48.5 -10t41.5 -27t28.5 -40.5t10.5 -50.5z" />
<glyph unicode="&#xc5;" horiz-adv-x="764" d="M487 0l-21 81h-170l-21 -81h-269l215 677q-21 37 -21 84q0 38 14 70.5t39 56.5t58 38t71 14t71 -14t58 -38t39 -56.5t14 -70.5q0 -47 -21 -84l215 -677h-271zM441 761q0 29 -16 46.5t-43 17.5t-43 -17.5t-16 -46.5t16 -46t43 -17t43 17t16 46zM419 264q-14 59 -24.5 114 t-13.5 93q-3 -38 -14 -93t-25 -114h77z" />
<glyph unicode="&#xc6;" horiz-adv-x="1153" d="M522 0v81h-202l-38 -81h-288l370 700h750v-194h-327v-60h234v-191h-234v-61h329v-194h-594zM524 519q-11 -28 -22.5 -55t-28.5 -62l-66 -138h115v142q0 26 0.5 58t1.5 55z" />
<glyph unicode="&#xc7;" horiz-adv-x="705" d="M698 221q-10 -36 -31 -77t-58 -75t-92 -57t-133 -23l-12 -27q9 3 22 4t25 1q38 0 63 -18.5t25 -59.5q0 -23 -10.5 -40t-29 -28.5t-43.5 -17.5t-53 -6q-54 0 -93.5 9.5t-75.5 26.5l29 63q30 -14 55 -21t54 -7q21 0 28.5 5t7.5 14t-6.5 13t-16.5 4q-11 0 -19.5 -2t-17.5 -6 l-38 26l32 72q-59 9 -111 34t-91 68.5t-61.5 106.5t-22.5 147q0 95 29 163.5t78 112.5t114 64.5t138 20.5q140 0 212.5 -66.5t95.5 -201.5l-245 -65q-4 38 -10 63t-14.5 39.5t-20 20t-26.5 5.5q-20 0 -33.5 -12t-21.5 -33t-12 -49.5t-4 -61.5q0 -32 3.5 -60t12 -49.5 t21.5 -34t33 -12.5q32 0 51.5 25.5t30.5 79.5l242 -78v0z" />
<glyph unicode="&#xc8;" horiz-adv-x="669" d="M38 0v700h602v-194h-327v-60h234v-191h-234v-61h329v-194h-604zM263 724l-214 216h312l98 -216h-196z" />
<glyph unicode="&#xc9;" horiz-adv-x="669" d="M38 0v700h602v-194h-327v-60h234v-191h-234v-61h329v-194h-604zM401 724h-196l98 216h312z" />
<glyph unicode="&#xca;" horiz-adv-x="669" d="M38 0v700h602v-194h-327v-60h234v-191h-234v-61h329v-194h-604zM399 724l-63 66l-63 -66h-201l170 220h190l170 -220h-203z" />
<glyph unicode="&#xcb;" horiz-adv-x="669" d="M38 0v700h602v-194h-327v-60h234v-191h-234v-61h329v-194h-604zM612 846q0 -25 -10.5 -48t-28.5 -40t-41 -27.5t-48 -10.5q-26 0 -49.5 10.5t-41.5 27.5t-28.5 40t-10.5 48q0 27 10.5 50.5t28.5 40.5t41.5 27t49.5 10q25 0 48 -10t41 -27t28.5 -40.5t10.5 -50.5zM324 846 q0 -25 -10.5 -48t-28.5 -40t-41.5 -27.5t-48.5 -10.5q-26 0 -49 10.5t-41 27.5t-28.5 40t-10.5 48q0 27 10.5 50.5t28.5 40.5t41 27t49 10q25 0 48.5 -10t41.5 -27t28.5 -40.5t10.5 -50.5z" />
<glyph unicode="&#xcc;" horiz-adv-x="364" d="M38 0v700h288v-700h-288zM94 724l-214 216h312l98 -216h-196z" />
<glyph unicode="&#xcd;" horiz-adv-x="364" d="M38 0v700h288v-700h-288zM273 724h-196l98 216h312z" />
<glyph unicode="&#xce;" horiz-adv-x="364" d="M38 0v700h288v-700h-288zM245 724l-63 66l-63 -66h-201l170 220h190l170 -220h-203z" />
<glyph unicode="&#xcf;" horiz-adv-x="364" d="M38 0v700h288v-700h-288zM456 846q0 -25 -10.5 -48t-28.5 -40t-41 -27.5t-48 -10.5q-26 0 -49.5 10.5t-41.5 27.5t-28.5 40t-10.5 48q0 27 10.5 50.5t28.5 40.5t41.5 27t49.5 10q25 0 48 -10t41 -27t28.5 -40.5t10.5 -50.5zM168 846q0 -25 -10.5 -48t-28.5 -40 t-41.5 -27.5t-48.5 -10.5q-26 0 -49 10.5t-41 27.5t-28.5 40t-10.5 48q0 27 10.5 50.5t28.5 40.5t41 27t49 10q25 0 48.5 -10t41.5 -27t28.5 -40.5t10.5 -50.5z" />
<glyph unicode="&#xd0;" horiz-adv-x="763" d="M739 350q0 -96 -27.5 -162.5t-77.5 -108.5t-121.5 -60.5t-158.5 -18.5h-286v260h-53v190h53v250h286q87 0 158.5 -18.5t121.5 -60.5t77.5 -108.5t27.5 -162.5zM464 350q0 43 -7 72t-20.5 45.5t-33.5 23.5t-45 7h-36v-48h78v-190h-78v-58h36q25 0 45 7t33.5 23.5t20.5 45 t7 72.5z" />
<glyph unicode="&#xd1;" horiz-adv-x="756" d="M465 0l-79 134q-25 42 -49 90t-38 85q2 -20 3.5 -45t1.5 -39v-225h-266v700h263l69 -114q11 -18 24 -40.5t25 -46.5t22 -47t16 -41q-1 9 -2 20.5t-1.5 23.5t-1 22.5t-0.5 17.5v205h266v-700h-253zM643 944q0 -117 -42.5 -169.5t-121.5 -52.5q-35 0 -59 7t-50 23 q-18 11 -29 17.5t-20 6.5t-13.5 -10.5t-5.5 -40.5h-181q0 117 42.5 169.5t121.5 52.5q35 0 59 -7t50 -23q18 -11 29 -17.5t20 -6.5t13.5 10.5t5.5 40.5h181v0z" />
<glyph unicode="&#xd2;" horiz-adv-x="764" d="M740 350q0 -96 -28 -164.5t-76.5 -112t-114 -64t-139.5 -20.5t-139.5 20.5t-114 64t-76.5 112t-28 164.5t28 164.5t76.5 112t114 64t139.5 20.5t139.5 -20.5t114 -64t76.5 -112t28 -164.5zM460 350q0 48 -6.5 78t-17 47.5t-25 24t-29.5 6.5t-29.5 -6.5t-25 -24t-17 -47.5 t-6.5 -78t6.5 -78t17 -47.5t25 -24t29.5 -6.5t29.5 6.5t25 24t17 47.5t6.5 78zM289 729l-214 216h312l98 -216h-196z" />
<glyph unicode="&#xd3;" horiz-adv-x="764" d="M740 350q0 -96 -28 -164.5t-76.5 -112t-114 -64t-139.5 -20.5t-139.5 20.5t-114 64t-76.5 112t-28 164.5t28 164.5t76.5 112t114 64t139.5 20.5t139.5 -20.5t114 -64t76.5 -112t28 -164.5zM460 350q0 48 -6.5 78t-17 47.5t-25 24t-29.5 6.5t-29.5 -6.5t-25 -24t-17 -47.5 t-6.5 -78t6.5 -78t17 -47.5t25 -24t29.5 -6.5t29.5 6.5t25 24t17 47.5t6.5 78zM462 729h-196l98 216h312z" />
<glyph unicode="&#xd4;" horiz-adv-x="764" d="M740 350q0 -96 -28 -164.5t-76.5 -112t-114 -64t-139.5 -20.5t-139.5 20.5t-114 64t-76.5 112t-28 164.5t28 164.5t76.5 112t114 64t139.5 20.5t139.5 -20.5t114 -64t76.5 -112t28 -164.5zM460 350q0 48 -6.5 78t-17 47.5t-25 24t-29.5 6.5t-29.5 -6.5t-25 -24t-17 -47.5 t-6.5 -78t6.5 -78t17 -47.5t25 -24t29.5 -6.5t29.5 6.5t25 24t17 47.5t6.5 78zM444 729l-63 66l-63 -66h-201l170 220h190l170 -220h-203z" />
<glyph unicode="&#xd5;" horiz-adv-x="764" d="M740 350q0 -96 -28 -164.5t-76.5 -112t-114 -64t-139.5 -20.5t-139.5 20.5t-114 64t-76.5 112t-28 164.5t28 164.5t76.5 112t114 64t139.5 20.5t139.5 -20.5t114 -64t76.5 -112t28 -164.5zM460 350q0 48 -6.5 78t-17 47.5t-25 24t-29.5 6.5t-29.5 -6.5t-25 -24t-17 -47.5 t-6.5 -78t6.5 -78t17 -47.5t25 -24t29.5 -6.5t29.5 6.5t25 24t17 47.5t6.5 78zM643 949q0 -117 -42.5 -169.5t-121.5 -52.5q-35 0 -59 7t-50 23q-18 11 -29 17.5t-20 6.5t-13.5 -10.5t-5.5 -40.5h-181q0 117 42.5 169.5t121.5 52.5q35 0 59 -7t50 -23q18 -11 29 -17.5 t20 -6.5t13.5 10.5t5.5 40.5h181v0z" />
<glyph unicode="&#xd6;" horiz-adv-x="764" d="M740 350q0 -96 -28 -164.5t-76.5 -112t-114 -64t-139.5 -20.5t-139.5 20.5t-114 64t-76.5 112t-28 164.5t28 164.5t76.5 112t114 64t139.5 20.5t139.5 -20.5t114 -64t76.5 -112t28 -164.5zM460 350q0 48 -6.5 78t-17 47.5t-25 24t-29.5 6.5t-29.5 -6.5t-25 -24t-17 -47.5 t-6.5 -78t6.5 -78t17 -47.5t25 -24t29.5 -6.5t29.5 6.5t25 24t17 47.5t6.5 78zM655 846q0 -25 -10.5 -48t-28.5 -40t-41 -27.5t-48 -10.5q-26 0 -49.5 10.5t-41.5 27.5t-28.5 40t-10.5 48q0 27 10.5 50.5t28.5 40.5t41.5 27t49.5 10q25 0 48 -10t41 -27t28.5 -40.5 t10.5 -50.5zM367 846q0 -25 -10.5 -48t-28.5 -40t-41.5 -27.5t-48.5 -10.5q-26 0 -49 10.5t-41 27.5t-28.5 40t-10.5 48q0 27 10.5 50.5t28.5 40.5t41 27t49 10q25 0 48.5 -10t41.5 -27t28.5 -40.5t10.5 -50.5z" />
<glyph unicode="&#xd7;" d="M700 216q-30 -31 -54 -13q-10 8 -11.5 19.5t3.5 31.5l-6 25h-121v-99l21 -6q25 4 36 3t19 -11q17 -23 -12 -55l-146 -148l-143 148q-31 31 -13 55q8 11 18.5 11.5t33.5 -3.5l24 6v99h-123l-7 -24q4 -23 3.5 -33.5t-10.5 -18.5q-25 -18 -56 13l-147 143l147 146 q32 30 56 12q8 -8 10 -19t-3 -36l7 -21h123v79l-24 6q-23 -3 -33.5 -3t-18.5 11q-18 24 13 55l143 148l146 -148q29 -32 12 -55q-8 -10 -19 -11t-36 3l-21 -6v-79h121l6 21q-5 25 -3 36t11 19q25 19 54 -12l148 -146z" />
<glyph unicode="&#xd8;" horiz-adv-x="764" d="M665 593q35 -44 55 -104t20 -139q0 -96 -29.5 -164.5t-79 -112t-114 -64t-135.5 -20.5q-25 0 -49.5 2.5t-47.5 7.5l-31 -49h-258l101 159q-34 44 -53.5 103.5t-19.5 137.5q0 96 29.5 164.5t79 112t114 64t135.5 20.5q49 0 94 -9l31 48h258zM460 350q0 48 -7 78 t-18.5 47.5t-25.5 24t-27 6.5q-14 0 -27.5 -6.5t-25 -24t-18.5 -47.5t-7 -78t7 -78t18.5 -47.5t25 -24t27.5 -6.5q13 0 27 6.5t25.5 24t18.5 47.5t7 78z" />
<glyph unicode="&#xd9;" horiz-adv-x="756" d="M723 309q0 -85 -20 -145.5t-62.5 -99.5t-107.5 -57t-155 -18t-155 18t-107.5 57t-62.5 99.5t-20 145.5v391h288v-406q0 -41 12.5 -62t44.5 -21t44.5 21t12.5 62v406h288v-391v0zM286 724l-214 216h312l98 -216h-196z" />
<glyph unicode="&#xda;" horiz-adv-x="756" d="M723 309q0 -85 -20 -145.5t-62.5 -99.5t-107.5 -57t-155 -18t-155 18t-107.5 57t-62.5 99.5t-20 145.5v391h288v-406q0 -41 12.5 -62t44.5 -21t44.5 21t12.5 62v406h288v-391v0zM463 724h-196l98 216h312z" />
<glyph unicode="&#xdb;" horiz-adv-x="756" d="M723 309q0 -85 -20 -145.5t-62.5 -99.5t-107.5 -57t-155 -18t-155 18t-107.5 57t-62.5 99.5t-20 145.5v391h288v-406q0 -41 12.5 -62t44.5 -21t44.5 21t12.5 62v406h288v-391v0zM440 724l-63 66l-63 -66h-201l170 220h190l170 -220h-203z" />
<glyph unicode="&#xdc;" horiz-adv-x="756" d="M723 309q0 -85 -20 -145.5t-62.5 -99.5t-107.5 -57t-155 -18t-155 18t-107.5 57t-62.5 99.5t-20 145.5v391h288v-406q0 -41 12.5 -62t44.5 -21t44.5 21t12.5 62v406h288v-391v0zM651 846q0 -25 -10.5 -48t-28.5 -40t-41 -27.5t-48 -10.5q-26 0 -49.5 10.5t-41.5 27.5 t-28.5 40t-10.5 48q0 27 10.5 50.5t28.5 40.5t41.5 27t49.5 10q25 0 48 -10t41 -27t28.5 -40.5t10.5 -50.5zM363 846q0 -25 -10.5 -48t-28.5 -40t-41.5 -27.5t-48.5 -10.5q-26 0 -49 10.5t-41 27.5t-28.5 40t-10.5 48q0 27 10.5 50.5t28.5 40.5t41 27t49 10q25 0 48.5 -10 t41.5 -27t28.5 -40.5t10.5 -50.5z" />
<glyph unicode="&#xdd;" horiz-adv-x="762" d="M525 239v-239h-288v239l-240 461h306l33 -87q17 -47 29.5 -85.5t16.5 -70.5q4 32 16.5 71t29.5 85l33 87h304zM469 724h-196l98 216h312z" />
<glyph unicode="&#xde;" horiz-adv-x="692" d="M677 360q0 -68 -22 -117t-64 -80.5t-102.5 -46.5t-136.5 -15h-34v-101h-280v700h280v-81h34q76 0 136.5 -15t102.5 -46.5t64 -80.5t22 -117zM415 360q0 64 -76 64h-26v-128h26q76 0 76 64z" />
<glyph unicode="&#xdf;" horiz-adv-x="655" d="M636 224q0 -115 -77 -169.5t-222 -54.5h-15v168h11q58 0 58 63q0 35 -16.5 49t-48.5 14h-4v163h6q26 0 36.5 12.5t10.5 38.5q0 25 -9 39t-32 14q-21 0 -32 -15.5t-11 -44.5v-608l-260 -86v664q0 68 23 116.5t63 79t94.5 45t117.5 14.5q139 0 206 -48.5t67 -136.5 q0 -54 -23.5 -86.5t-60.5 -52.5q26 -9 48 -23t37.5 -35t24 -50.5t8.5 -69.5z" />
<glyph unicode="&#xe0;" horiz-adv-x="585" d="M319 0v35q-34 -20 -69.5 -33t-70.5 -13q-81 0 -125 46.5t-44 127.5q0 41 14.5 72t40 52t59 32t71.5 11t66.5 -4.5t57.5 -15.5v8q0 36 -14.5 48.5t-48.5 12.5q-44 0 -81.5 -6.5t-85.5 -24.5l-41 146q51 20 119 31t142 11q64 0 111 -10.5t77.5 -34.5t45 -64t14.5 -99v-328 h-238zM319 204q-21 9 -43 9q-38 0 -38 -44t38 -44q22 0 43 9v70zM216 559l-214 216h312l98 -216h-196z" />
<glyph unicode="&#xe1;" horiz-adv-x="585" d="M319 0v35q-34 -20 -69.5 -33t-70.5 -13q-81 0 -125 46.5t-44 127.5q0 41 14.5 72t40 52t59 32t71.5 11t66.5 -4.5t57.5 -15.5v8q0 36 -14.5 48.5t-48.5 12.5q-44 0 -81.5 -6.5t-85.5 -24.5l-41 146q51 20 119 31t142 11q64 0 111 -10.5t77.5 -34.5t45 -64t14.5 -99v-328 h-238zM319 204q-21 9 -43 9q-38 0 -38 -44t38 -44q22 0 43 9v70zM369 559h-196l98 216h312z" />
<glyph unicode="&#xe2;" horiz-adv-x="585" d="M319 0v35q-34 -20 -69.5 -33t-70.5 -13q-81 0 -125 46.5t-44 127.5q0 41 14.5 72t40 52t59 32t71.5 11t66.5 -4.5t57.5 -15.5v8q0 36 -14.5 48.5t-48.5 12.5q-44 0 -81.5 -6.5t-85.5 -24.5l-41 146q51 20 119 31t142 11q64 0 111 -10.5t77.5 -34.5t45 -64t14.5 -99v-328 h-238zM319 204q-21 9 -43 9q-38 0 -38 -44t38 -44q22 0 43 9v70zM352 559l-63 66l-63 -66h-201l170 220h190l170 -220h-203z" />
<glyph unicode="&#xe3;" horiz-adv-x="585" d="M319 0v35q-34 -20 -69.5 -33t-70.5 -13q-81 0 -125 46.5t-44 127.5q0 41 14.5 72t40 52t59 32t71.5 11t66.5 -4.5t57.5 -15.5v8q0 36 -14.5 48.5t-48.5 12.5q-44 0 -81.5 -6.5t-85.5 -24.5l-41 146q51 20 119 31t142 11q64 0 111 -10.5t77.5 -34.5t45 -64t14.5 -99v-328 h-238zM319 204q-21 9 -43 9q-38 0 -38 -44t38 -44q22 0 43 9v70zM561 779q0 -117 -42.5 -169.5t-121.5 -52.5q-35 0 -59 7t-50 23q-18 11 -29 17.5t-20 6.5t-13.5 -10.5t-5.5 -40.5h-181q0 117 42.5 169.5t121.5 52.5q35 0 59 -7t50 -23q18 -11 29 -17.5t20 -6.5t13.5 10.5 t5.5 40.5h181v0z" />
<glyph unicode="&#xe4;" horiz-adv-x="585" d="M319 0v35q-34 -20 -69.5 -33t-70.5 -13q-81 0 -125 46.5t-44 127.5q0 41 14.5 72t40 52t59 32t71.5 11t66.5 -4.5t57.5 -15.5v8q0 36 -14.5 48.5t-48.5 12.5q-44 0 -81.5 -6.5t-85.5 -24.5l-41 146q51 20 119 31t142 11q64 0 111 -10.5t77.5 -34.5t45 -64t14.5 -99v-328 h-238zM319 204q-21 9 -43 9q-38 0 -38 -44t38 -44q22 0 43 9v70zM563 676q0 -25 -10.5 -48t-28.5 -40t-41 -27.5t-48 -10.5q-26 0 -49.5 10.5t-41.5 27.5t-28.5 40t-10.5 48q0 27 10.5 50.5t28.5 40.5t41.5 27t49.5 10q25 0 48 -10t41 -27t28.5 -40.5t10.5 -50.5zM275 676 q0 -25 -10.5 -48t-28.5 -40t-41.5 -27.5t-48.5 -10.5q-26 0 -49 10.5t-41 27.5t-28.5 40t-10.5 48q0 27 10.5 50.5t28.5 40.5t41 27t49 10q25 0 48.5 -10t41.5 -27t28.5 -40.5t10.5 -50.5z" />
<glyph unicode="&#xe5;" horiz-adv-x="585" d="M319 0v35q-34 -20 -69.5 -33t-70.5 -13q-81 0 -125 46.5t-44 127.5q0 41 14.5 72t40 52t59 32t71.5 11t66.5 -4.5t57.5 -15.5v8q0 36 -14.5 48.5t-48.5 12.5q-44 0 -81.5 -6.5t-85.5 -24.5l-41 146q51 20 119 31t142 11q64 0 111 -10.5t77.5 -34.5t45 -64t14.5 -99v-328 h-238zM319 204q-21 9 -43 9q-38 0 -38 -44t38 -44q22 0 43 9v70zM432 693q0 -30 -11 -55t-30.5 -43.5t-45 -29t-55.5 -10.5t-55.5 10.5t-45 29t-30.5 43.5t-11 55t11 55t30.5 44t45 29.5t55.5 10.5t55.5 -10.5t45 -29.5t30.5 -44t11 -55zM339 693q0 24 -13 39t-36 15 t-36 -15t-13 -39t13 -38.5t36 -14.5t36 14.5t13 38.5z" />
<glyph unicode="&#xe6;" horiz-adv-x="890" d="M551 203q9 -33 32.5 -45.5t65.5 -12.5q23 0 43.5 1.5t41 5t43 9t49.5 13.5l39 -145q-33 -10 -64 -17.5t-61.5 -12.5t-62.5 -7.5t-68 -2.5q-60 0 -108 15.5t-82 42.5q-32 -16 -57.5 -27t-50 -18t-51.5 -10t-61 -3q-92 0 -140.5 42t-48.5 132q0 41 14.5 72t40 52t59 32 t71.5 11t66.5 -4.5t57.5 -15.5v8q0 36 -14.5 48.5t-48.5 12.5q-44 0 -81.5 -6.5t-85.5 -24.5l-41 146q51 20 119 31t142 11q55 0 93.5 -13t67.5 -40q29 25 67.5 39t75.5 14q57 0 105 -16.5t82.5 -53t54 -96t19.5 -145.5v-22h-323zM662 324q-5 33 -18 48t-40 15 q-23 0 -36.5 -13.5t-18.5 -49.5h113zM319 204q-21 9 -43 9q-38 0 -38 -44t38 -44q22 0 43 9v70z" />
<glyph unicode="&#xe7;" horiz-adv-x="571" d="M347 285q-5 45 -15.5 61.5t-29.5 16.5q-20 0 -31.5 -22t-11.5 -81q0 -57 11.5 -77.5t34.5 -20.5q14 0 28 14.5t21 52.5l204 -57q-26 -84 -88 -132.5t-156 -50.5l-12 -27q9 3 22 4t25 1q38 0 63 -18.5t25 -59.5q0 -23 -10.5 -40t-29 -28.5t-43.5 -17.5t-53 -6 q-54 0 -93.5 9.5t-75.5 26.5l29 63q30 -14 55 -21t54 -7q21 0 28.5 5t7.5 14t-6.5 13t-16.5 4q-11 0 -19.5 -2t-17.5 -6l-38 26l32 72q-51 7 -92 27t-70 53.5t-45 80t-16 108.5q0 69 20.5 120.5t58 85t91 50.5t120.5 17q106 0 167.5 -52t86.5 -148z" />
<glyph unicode="&#xe8;" horiz-adv-x="582" d="M243 203q9 -33 32.5 -45.5t65.5 -12.5q23 0 43.5 1.5t41 5t43 9t49.5 13.5l39 -145q-33 -10 -63 -17.5t-60.5 -12.5t-62.5 -7.5t-70 -2.5q-137 0 -210.5 70t-73.5 203q0 74 22.5 126t61.5 85t91.5 48t112.5 15q57 0 105 -16.5t82.5 -53t54 -96t19.5 -145.5v-22h-323z M354 324q-5 33 -18 48t-40 15q-23 0 -36.5 -13.5t-18.5 -49.5h113zM207 559l-214 216h312l98 -216h-196z" />
<glyph unicode="&#xe9;" horiz-adv-x="582" d="M243 203q9 -33 32.5 -45.5t65.5 -12.5q23 0 43.5 1.5t41 5t43 9t49.5 13.5l39 -145q-33 -10 -63 -17.5t-60.5 -12.5t-62.5 -7.5t-70 -2.5q-137 0 -210.5 70t-73.5 203q0 74 22.5 126t61.5 85t91.5 48t112.5 15q57 0 105 -16.5t82.5 -53t54 -96t19.5 -145.5v-22h-323z M354 324q-5 33 -18 48t-40 15q-23 0 -36.5 -13.5t-18.5 -49.5h113zM378 559h-196l98 216h312z" />
<glyph unicode="&#xea;" horiz-adv-x="582" d="M243 203q9 -33 32.5 -45.5t65.5 -12.5q23 0 43.5 1.5t41 5t43 9t49.5 13.5l39 -145q-33 -10 -63 -17.5t-60.5 -12.5t-62.5 -7.5t-70 -2.5q-137 0 -210.5 70t-73.5 203q0 74 22.5 126t61.5 85t91.5 48t112.5 15q57 0 105 -16.5t82.5 -53t54 -96t19.5 -145.5v-22h-323z M354 324q-5 33 -18 48t-40 15q-23 0 -36.5 -13.5t-18.5 -49.5h113zM354 559l-63 66l-63 -66h-201l170 220h190l170 -220h-203z" />
<glyph unicode="&#xeb;" horiz-adv-x="582" d="M243 203q9 -33 32.5 -45.5t65.5 -12.5q23 0 43.5 1.5t41 5t43 9t49.5 13.5l39 -145q-33 -10 -63 -17.5t-60.5 -12.5t-62.5 -7.5t-70 -2.5q-137 0 -210.5 70t-73.5 203q0 74 22.5 126t61.5 85t91.5 48t112.5 15q57 0 105 -16.5t82.5 -53t54 -96t19.5 -145.5v-22h-323z M354 324q-5 33 -18 48t-40 15q-23 0 -36.5 -13.5t-18.5 -49.5h113zM565 676q0 -25 -10.5 -48t-28.5 -40t-41 -27.5t-48 -10.5q-26 0 -49.5 10.5t-41.5 27.5t-28.5 40t-10.5 48q0 27 10.5 50.5t28.5 40.5t41.5 27t49.5 10q25 0 48 -10t41 -27t28.5 -40.5t10.5 -50.5zM277 676 q0 -25 -10.5 -48t-28.5 -40t-41.5 -27.5t-48.5 -10.5q-26 0 -49 10.5t-41 27.5t-28.5 40t-10.5 48q0 27 10.5 50.5t28.5 40.5t41 27t49 10q25 0 48.5 -10t41.5 -27t28.5 -40.5t10.5 -50.5z" />
<glyph unicode="&#xec;" horiz-adv-x="322" d="M31 0v525h260v-525h-260zM74 559l-214 216h312l98 -216h-196z" />
<glyph unicode="&#xed;" horiz-adv-x="322" d="M31 0v525h260v-525h-260zM249 559h-196l98 216h312z" />
<glyph unicode="&#xee;" horiz-adv-x="322" d="M31 0v525h260v-525h-260zM224 559l-63 66l-63 -66h-201l170 220h190l170 -220h-203z" />
<glyph unicode="&#xef;" horiz-adv-x="322" d="M31 0v525h260v-525h-260zM435 676q0 -25 -10.5 -48t-28.5 -40t-41 -27.5t-48 -10.5q-26 0 -49.5 10.5t-41.5 27.5t-28.5 40t-10.5 48q0 27 10.5 50.5t28.5 40.5t41.5 27t49.5 10q25 0 48 -10t41 -27t28.5 -40.5t10.5 -50.5zM147 676q0 -25 -10.5 -48t-28.5 -40 t-41.5 -27.5t-48.5 -10.5q-26 0 -49 10.5t-41 27.5t-28.5 40t-10.5 48q0 27 10.5 50.5t28.5 40.5t41 27t49 10q25 0 48.5 -10t41.5 -27t28.5 -40.5t10.5 -50.5z" />
<glyph unicode="&#xf0;" horiz-adv-x="610" d="M593 252q0 -76 -22.5 -126.5t-61.5 -81t-91.5 -43t-112.5 -12.5q-59 0 -111.5 13t-91.5 41t-62 72t-23 107t17 107t48.5 72.5t75 41.5t97.5 13q32 0 63.5 -6.5t48.5 -16.5q-32 43 -90 66.5t-136 23.5v188q60 0 115.5 -11.5t105.5 -34.5l43 46l150 -111l-49 -51 q41 -55 64 -128.5t23 -168.5zM351 222q0 36 -12 51t-34 15t-34 -15t-12 -51t12 -50.5t34 -14.5t34 14.5t12 50.5z" />
<glyph unicode="&#xf1;" horiz-adv-x="653" d="M365 0v287q0 25 -8.5 37.5t-28.5 12.5t-28.5 -12.5t-8.5 -37.5v-287h-260v525h260v-35q16 10 32.5 18.5t34.5 14.5t39 9.5t47 3.5q38 0 71 -11t57.5 -35t38.5 -61t14 -88v-341h-260zM585 779q0 -117 -42.5 -169.5t-121.5 -52.5q-35 0 -59 7t-50 23q-18 11 -29 17.5 t-20 6.5t-13.5 -10.5t-5.5 -40.5h-181q0 117 42.5 169.5t121.5 52.5q35 0 59 -7t50 -23q18 -11 29 -17.5t20 -6.5t13.5 10.5t5.5 40.5h181v0z" />
<glyph unicode="&#xf2;" horiz-adv-x="610" d="M593 262q0 -70 -20.5 -121.5t-58 -85t-91 -50t-118.5 -16.5t-118.5 16.5t-91 50t-58 85t-20.5 121.5t20.5 121.5t58 85.5t91 50.5t118.5 16.5t118.5 -16.5t91 -50.5t58 -85.5t20.5 -121.5zM351 262q0 32 -3 52.5t-9 32.5t-14.5 16.5t-19.5 4.5t-19.5 -4.5t-14.5 -16.5 t-9 -32.5t-3 -52.5t3 -52.5t9 -32t14.5 -16t19.5 -4.5t19.5 4.5t14.5 16t9 32t3 52.5zM215 559l-214 216h312l98 -216h-196z" />
<glyph unicode="&#xf3;" horiz-adv-x="610" d="M593 262q0 -70 -20.5 -121.5t-58 -85t-91 -50t-118.5 -16.5t-118.5 16.5t-91 50t-58 85t-20.5 121.5t20.5 121.5t58 85.5t91 50.5t118.5 16.5t118.5 -16.5t91 -50.5t58 -85.5t20.5 -121.5zM351 262q0 32 -3 52.5t-9 32.5t-14.5 16.5t-19.5 4.5t-19.5 -4.5t-14.5 -16.5 t-9 -32.5t-3 -52.5t3 -52.5t9 -32t14.5 -16t19.5 -4.5t19.5 4.5t14.5 16t9 32t3 52.5zM387 559h-196l98 216h312z" />
<glyph unicode="&#xf4;" horiz-adv-x="610" d="M593 262q0 -70 -20.5 -121.5t-58 -85t-91 -50t-118.5 -16.5t-118.5 16.5t-91 50t-58 85t-20.5 121.5t20.5 121.5t58 85.5t91 50.5t118.5 16.5t118.5 -16.5t91 -50.5t58 -85.5t20.5 -121.5zM351 262q0 32 -3 52.5t-9 32.5t-14.5 16.5t-19.5 4.5t-19.5 -4.5t-14.5 -16.5 t-9 -32.5t-3 -52.5t3 -52.5t9 -32t14.5 -16t19.5 -4.5t19.5 4.5t14.5 16t9 32t3 52.5zM367 559l-63 66l-63 -66h-201l170 220h190l170 -220h-203z" />
<glyph unicode="&#xf5;" horiz-adv-x="610" d="M593 262q0 -70 -20.5 -121.5t-58 -85t-91 -50t-118.5 -16.5t-118.5 16.5t-91 50t-58 85t-20.5 121.5t20.5 121.5t58 85.5t91 50.5t118.5 16.5t118.5 -16.5t91 -50.5t58 -85.5t20.5 -121.5zM351 262q0 32 -3 52.5t-9 32.5t-14.5 16.5t-19.5 4.5t-19.5 -4.5t-14.5 -16.5 t-9 -32.5t-3 -52.5t3 -52.5t9 -32t14.5 -16t19.5 -4.5t19.5 4.5t14.5 16t9 32t3 52.5zM566 779q0 -117 -42.5 -169.5t-121.5 -52.5q-35 0 -59 7t-50 23q-18 11 -29 17.5t-20 6.5t-13.5 -10.5t-5.5 -40.5h-181q0 117 42.5 169.5t121.5 52.5q35 0 59 -7t50 -23 q18 -11 29 -17.5t20 -6.5t13.5 10.5t5.5 40.5h181v0z" />
<glyph unicode="&#xf6;" horiz-adv-x="610" d="M593 262q0 -70 -20.5 -121.5t-58 -85t-91 -50t-118.5 -16.5t-118.5 16.5t-91 50t-58 85t-20.5 121.5t20.5 121.5t58 85.5t91 50.5t118.5 16.5t118.5 -16.5t91 -50.5t58 -85.5t20.5 -121.5zM351 262q0 32 -3 52.5t-9 32.5t-14.5 16.5t-19.5 4.5t-19.5 -4.5t-14.5 -16.5 t-9 -32.5t-3 -52.5t3 -52.5t9 -32t14.5 -16t19.5 -4.5t19.5 4.5t14.5 16t9 32t3 52.5zM578 676q0 -25 -10.5 -48t-28.5 -40t-41 -27.5t-48 -10.5q-26 0 -49.5 10.5t-41.5 27.5t-28.5 40t-10.5 48q0 27 10.5 50.5t28.5 40.5t41.5 27t49.5 10q25 0 48 -10t41 -27t28.5 -40.5 t10.5 -50.5zM290 676q0 -25 -10.5 -48t-28.5 -40t-41.5 -27.5t-48.5 -10.5q-26 0 -49 10.5t-41 27.5t-28.5 40t-10.5 48q0 27 10.5 50.5t28.5 40.5t41 27t49 10q25 0 48.5 -10t41.5 -27t28.5 -40.5t10.5 -50.5z" />
<glyph unicode="&#xf7;" d="M700 216q-30 -31 -54 -13q-10 8 -11.5 19.5t3.5 31.5l-6 25h-121v-99l21 -6q25 4 36 3t19 -11q17 -23 -12 -55l-146 -148l-143 148q-31 31 -13 55q8 11 18.5 11.5t33.5 -3.5l24 6v99h-123l-7 -24q4 -23 3.5 -33.5t-10.5 -18.5q-25 -18 -56 13l-147 143l147 146 q32 30 56 12q8 -8 10 -19t-3 -36l7 -21h123v79l-24 6q-23 -3 -33.5 -3t-18.5 11q-18 24 13 55l143 148l146 -148q29 -32 12 -55q-8 -10 -19 -11t-36 3l-21 -6v-79h121l6 21q-5 25 -3 36t11 19q25 19 54 -12l148 -146z" />
<glyph unicode="&#xf8;" horiz-adv-x="610" d="M530 452q63 -69 63 -190q0 -70 -20.5 -121.5t-58 -85t-91 -50t-118.5 -16.5q-17 0 -33.5 1.5t-32.5 3.5l-28 -44h-213l79 124q-29 34 -44.5 80.5t-15.5 107.5q0 70 20.5 121.5t58 85.5t91 50.5t118.5 16.5q17 0 32.5 -1t30.5 -3l28 43h213zM351 262q0 32 -3 52.5t-9 32.5 t-14.5 16.5t-19.5 4.5t-19.5 -4.5t-14.5 -16.5t-9 -32.5t-3 -52.5t3 -52.5t9 -32t14.5 -16t19.5 -4.5t19.5 4.5t14.5 16t9 32t3 52.5z" />
<glyph unicode="&#xf9;" horiz-adv-x="653" d="M362 0v35q-33 -20 -67 -33t-86 -13q-38 0 -71 11t-57.5 35t-38.5 61t-14 88v341h260v-287q0 -25 8.5 -37.5t28.5 -12.5t28.5 12.5t8.5 37.5v287h260v-525h-260zM238 559l-214 216h312l98 -216h-196z" />
<glyph unicode="&#xfa;" horiz-adv-x="653" d="M362 0v35q-33 -20 -67 -33t-86 -13q-38 0 -71 11t-57.5 35t-38.5 61t-14 88v341h260v-287q0 -25 8.5 -37.5t28.5 -12.5t28.5 12.5t8.5 37.5v287h260v-525h-260zM397 559h-196l98 216h312z" />
<glyph unicode="&#xfb;" horiz-adv-x="653" d="M362 0v35q-33 -20 -67 -33t-86 -13q-38 0 -71 11t-57.5 35t-38.5 61t-14 88v341h260v-287q0 -25 8.5 -37.5t28.5 -12.5t28.5 12.5t8.5 37.5v287h260v-525h-260zM385 559l-63 66l-63 -66h-201l170 220h190l170 -220h-203z" />
<glyph unicode="&#xfc;" horiz-adv-x="653" d="M362 0v35q-33 -20 -67 -33t-86 -13q-38 0 -71 11t-57.5 35t-38.5 61t-14 88v341h260v-287q0 -25 8.5 -37.5t28.5 -12.5t28.5 12.5t8.5 37.5v287h260v-525h-260zM596 676q0 -25 -10.5 -48t-28.5 -40t-41 -27.5t-48 -10.5q-26 0 -49.5 10.5t-41.5 27.5t-28.5 40t-10.5 48 q0 27 10.5 50.5t28.5 40.5t41.5 27t49.5 10q25 0 48 -10t41 -27t28.5 -40.5t10.5 -50.5zM308 676q0 -25 -10.5 -48t-28.5 -40t-41.5 -27.5t-48.5 -10.5q-26 0 -49 10.5t-41 27.5t-28.5 40t-10.5 48q0 27 10.5 50.5t28.5 40.5t41 27t49 10q25 0 48.5 -10t41.5 -27t28.5 -40.5 t10.5 -50.5z" />
<glyph unicode="&#xfd;" horiz-adv-x="602" d="M360 -185h-235l61 168l-188 542h251l12 -60q14 -72 26 -142t15 -120q3 50 15 120t26 142l12 60h249zM377 550h-196l98 216h312z" />
<glyph unicode="&#xfe;" horiz-adv-x="625" d="M607 263q0 -72 -16 -124t-43 -85.5t-62 -49t-72 -15.5q-44 0 -70.5 12.5t-52.5 33.5v-142l-260 -86v842l260 86v-245q26 21 52.5 33.5t70.5 12.5q37 0 72 -16t62 -49t43 -84.5t16 -123.5zM365 263q0 60 -14.5 81.5t-36.5 21.5q-14 0 -23 -5v-197q9 -5 23 -5 q11 0 20.5 4.5t16 16.5t10.5 32t4 51z" />
<glyph unicode="&#xff;" horiz-adv-x="602" d="M360 -185h-235l61 168l-188 542h251l12 -60q14 -72 26 -142t15 -120q3 50 15 120t26 142l12 60h249zM574 676q0 -25 -10.5 -48t-28.5 -40t-41 -27.5t-48 -10.5q-26 0 -49.5 10.5t-41.5 27.5t-28.5 40t-10.5 48q0 27 10.5 50.5t28.5 40.5t41.5 27t49.5 10q25 0 48 -10 t41 -27t28.5 -40.5t10.5 -50.5zM286 676q0 -25 -10.5 -48t-28.5 -40t-41.5 -27.5t-48.5 -10.5q-26 0 -49 10.5t-41 27.5t-28.5 40t-10.5 48q0 27 10.5 50.5t28.5 40.5t41 27t49 10q25 0 48.5 -10t41.5 -27t28.5 -40.5t10.5 -50.5z" />
<glyph unicode="&#x131;" horiz-adv-x="322" d="M31 0v525h260v-525h-260z" />
<glyph unicode="&#x141;" horiz-adv-x="645" d="M68 0v171l-53 -28v218l53 28v311h278v-163l116 62v-218l-116 -62v-95h275v-224h-553z" />
<glyph unicode="&#x142;" horiz-adv-x="392" d="M326 289v-289h-260v163l-53 -25v228l53 25v258l260 86v-219l53 26v-228z" />
<glyph unicode="&#x152;" horiz-adv-x="1111" d="M570 0v57q-33 -32 -76.5 -50t-111.5 -18q-71 0 -135.5 20.5t-114 64t-79 112t-29.5 164.5t29.5 164.5t79 112t114 64t135.5 20.5q68 0 111.5 -18t76.5 -50v57h512v-194h-307v-60h214v-191h-214v-61h309v-194h-514zM460 350q0 48 -7 78t-18.5 47.5t-25.5 24t-27 6.5 q-14 0 -27.5 -6.5t-25 -24t-18.5 -47.5t-7 -78t7 -78t18.5 -47.5t25 -24t27.5 -6.5q13 0 27 6.5t25.5 24t18.5 47.5t7 78z" />
<glyph unicode="&#x153;" horiz-adv-x="922" d="M583 203q9 -33 32.5 -45.5t65.5 -12.5q23 0 43.5 1.5t41 5t43 9t49.5 13.5l39 -145q-33 -10 -64 -17.5t-61.5 -12.5t-62.5 -7.5t-68 -2.5q-49 0 -92.5 15t-73.5 40q-35 -28 -75.5 -41.5t-94.5 -13.5q-65 0 -118.5 16.5t-91 50t-58 85t-20.5 121.5t20.5 121.5t58 85.5 t91 50.5t118.5 16.5q54 0 95 -13.5t75 -42.5q35 29 79 42.5t91 13.5q57 0 105 -16.5t82.5 -53t54 -96t19.5 -145.5v-22h-323zM694 324q-5 33 -18 48t-40 15q-23 0 -36.5 -13.5t-18.5 -49.5h113zM351 262q0 32 -3 52.5t-9 32.5t-14.5 16.5t-19.5 4.5t-19.5 -4.5t-14.5 -16.5 t-9 -32.5t-3 -52.5t3 -52.5t9 -32t14.5 -16t19.5 -4.5t19.5 4.5t14.5 16t9 32t3 52.5z" />
<glyph unicode="&#x160;" horiz-adv-x="681" d="M663 229q0 -69 -25.5 -115t-69 -73.5t-102 -39.5t-124.5 -12q-92 0 -176 17t-159 47l73 197q83 -32 148.5 -44.5t107.5 -12.5q28 0 36 4t8 12q0 3 -1.5 6t-10 6.5t-25.5 8.5t-47 13q-73 18 -124 39t-83 48t-46.5 61.5t-14.5 79.5q0 69 25 115t69 73.5t102.5 39.5 t126.5 12q89 0 162.5 -18.5t142.5 -49.5l-78 -195q-60 29 -118.5 44t-109.5 15q-25 0 -32 -4.5t-7 -11.5q0 -3 1 -6.5t8 -7t22 -8.5t43 -12q70 -17 122.5 -37t87 -47t51.5 -62t17 -82zM434 729h-190l-170 220h203l63 -66l63 66h201z" />
<glyph unicode="&#x161;" horiz-adv-x="522" d="M505 172q0 -91 -67.5 -137t-182.5 -46q-36 0 -65.5 1.5t-58 5.5t-58 10.5t-63.5 15.5l48 158q45 -15 93.5 -25t99.5 -10q14 0 19 3.5t5 8.5q0 6 -4.5 9t-16.5 6q-67 17 -111.5 32.5t-70.5 35.5t-37 47.5t-11 67.5t15.5 73t46.5 57t77.5 37.5t109.5 13.5q68 0 120.5 -8 t104.5 -25l-58 -161q-50 21 -89.5 29.5t-79.5 8.5q-17 0 -17 -12q0 -7 5 -10t15 -5q67 -17 112 -33t71 -36t37 -47t11 -65zM352 559h-190l-170 220h203l63 -66l63 66h201z" />
<glyph unicode="&#x178;" horiz-adv-x="762" d="M525 239v-239h-288v239l-240 461h306l33 -87q17 -47 29.5 -85.5t16.5 -70.5q4 32 16.5 71t29.5 85l33 87h304zM654 846q0 -25 -10.5 -48t-28.5 -40t-41 -27.5t-48 -10.5q-26 0 -49.5 10.5t-41.5 27.5t-28.5 40t-10.5 48q0 27 10.5 50.5t28.5 40.5t41.5 27t49.5 10 q25 0 48 -10t41 -27t28.5 -40.5t10.5 -50.5zM366 846q0 -25 -10.5 -48t-28.5 -40t-41.5 -27.5t-48.5 -10.5q-26 0 -49 10.5t-41 27.5t-28.5 40t-10.5 48q0 27 10.5 50.5t28.5 40.5t41 27t49 10q25 0 48.5 -10t41.5 -27t28.5 -40.5t10.5 -50.5z" />
<glyph unicode="&#x17d;" horiz-adv-x="710" d="M18 0v192l219 216q29 29 53 52t43 37q-14 -3 -42 -4.5t-57 -1.5h-196v209h647v-192l-219 -216q-29 -29 -53 -52t-43 -37q14 3 42 4.5t57 1.5h216v-209h-667zM449 724h-190l-170 220h203l63 -66l63 66h201z" />
<glyph unicode="&#x17e;" horiz-adv-x="565" d="M25 0v145l219 215h-209v165h507v-145l-219 -215h219v-165h-517zM383 559h-190l-170 220h203l63 -66l63 66h201z" />
<glyph unicode="&#x192;" horiz-adv-x="458" d="M432 536q-16 7 -28 9t-26 2q-18 0 -26.5 -8t-8.5 -28v-11h86v-174h-80v-432l-265 -87v519h-62v174h62v24q0 92 47.5 139.5t147.5 47.5q51 0 90.5 -6.5t62.5 -16.5v-152v0z" />
<glyph unicode="&#x2c6;" horiz-adv-x="500" d="M312 559l-63 66l-63 -66h-201l170 220h190l170 -220h-203z" />
<glyph unicode="&#x2c7;" horiz-adv-x="500" d="M345 559h-190l-170 220h203l63 -66l63 66h201z" />
<glyph unicode="&#x2d8;" horiz-adv-x="500" d="M479 775q-23 -116 -76 -168t-154 -52q-98 0 -151.5 52t-76.5 168h164q10 -33 23.5 -47t42.5 -14q27 0 40.5 14.5t24.5 46.5h163v0z" />
<glyph unicode="&#x2d9;" horiz-adv-x="500" d="M378 676q0 -25 -10.5 -48t-28.5 -40t-41 -27.5t-48 -10.5q-26 0 -49.5 10.5t-41.5 27.5t-28.5 40t-10.5 48q0 27 10.5 50.5t28.5 40.5t41.5 27t49.5 10q25 0 48 -10t41 -27t28.5 -40.5t10.5 -50.5z" />
<glyph unicode="&#x2da;" horiz-adv-x="500" d="M392 693q0 -30 -11 -55t-30.5 -43.5t-45 -29t-55.5 -10.5t-55.5 10.5t-45 29t-30.5 43.5t-11 55t11 55t30.5 44t45 29.5t55.5 10.5t55.5 -10.5t45 -29.5t30.5 -44t11 -55zM299 693q0 24 -13 39t-36 15t-36 -15t-13 -39t13 -38.5t36 -14.5t36 14.5t13 38.5z" />
<glyph unicode="&#x2db;" horiz-adv-x="500" d="M404 -155q-33 -19 -66.5 -28.5t-77.5 -9.5q-60 0 -96 20t-36 58q0 32 21 59t59 56h106q-20 -33 -27 -50.5t-7 -30.5q0 -26 26 -26q15 0 31.5 3.5t41.5 12.5l25 -64v0z" />
<glyph unicode="&#x2dc;" horiz-adv-x="500" d="M511 779q0 -117 -42.5 -169.5t-121.5 -52.5q-35 0 -59 7t-50 23q-18 11 -29 17.5t-20 6.5t-13.5 -10.5t-5.5 -40.5h-181q0 117 42.5 169.5t121.5 52.5q35 0 59 -7t50 -23q18 -11 29 -17.5t20 -6.5t13.5 10.5t5.5 40.5h181v0z" />
<glyph unicode="&#x2dd;" horiz-adv-x="500" d="M400 559h-161l98 216h247zM135 559h-161l98 216h247z" />
<glyph unicode="&#x3c0;" horiz-adv-x="836" d="M799 351q0 -81 -29.5 -147.5t-81 -114t-121 -74t-150.5 -26.5t-150.5 26t-120.5 73.5t-80 113.5t-29 147t29.5 147.5t81 114t121 74t150.5 26.5t150.5 -26t120.5 -73.5t80 -113.5t29 -147zM722 349q0 70 -23 124.5t-64 91.5t-96.5 56t-121.5 19t-121.5 -19t-96 -55.5 t-63 -90.5t-22.5 -124t23 -124.5t64 -91.5t96.5 -56t121.5 -19t121.5 19t96 55.5t63 90.5t22.5 124zM617 401q0 -75 -47 -109t-132 -34h-18v-100h-154v385h172q85 0 132 -33.5t47 -108.5zM473 401q0 35 -42 35h-14v-71h14q42 0 42 36z" />
<glyph unicode="&#x2013;" horiz-adv-x="564" d="M30 231v242h504v-242h-504z" />
<glyph unicode="&#x2014;" horiz-adv-x="662" d="M30 231v242h602v-242h-602z" />
<glyph unicode="&#x2018;" horiz-adv-x="360" d="M318 331h-306l134 369h190z" />
<glyph unicode="&#x2019;" horiz-adv-x="360" d="M214 331h-190l18 369h306z" />
<glyph unicode="&#x201a;" horiz-adv-x="360" d="M210 -92h-190l18 369h306z" />
<glyph unicode="&#x201c;" horiz-adv-x="675" d="M633 331h-296l134 369h180zM308 331h-296l134 369h180z" />
<glyph unicode="&#x201d;" horiz-adv-x="675" d="M529 331h-180l18 369h296zM204 331h-180l18 369h296z" />
<glyph unicode="&#x201e;" horiz-adv-x="675" d="M525 -92h-180l18 369h296zM200 -92h-180l18 369h296z" />
<glyph unicode="&#x2020;" horiz-adv-x="594" d="M421 313v-413h-248v413h-148v229h148v158h248v-158h148v-229h-148z" />
<glyph unicode="&#x2021;" horiz-adv-x="594" d="M417 48v-148h-240v148h-152v214h152v76h-152v214h152v148h240v-148h152v-214h-152v-76h152v-214h-152z" />
<glyph unicode="&#x2022;" horiz-adv-x="640" d="M609 366q0 -61 -22 -113.5t-61 -91.5t-92 -61t-115 -22q-61 0 -113.5 22t-91.5 61t-61 91.5t-22 113.5t22 114t61 92t91.5 61.5t113.5 22.5q62 0 115 -22.5t92 -61.5t61 -92t22 -114z" />
<glyph unicode="&#x2026;" horiz-adv-x="1060" d="M1035 144q0 -70 -42.5 -112.5t-112.5 -42.5t-112.5 42.5t-42.5 112.5t42.5 110.5t112.5 40.5t112.5 -40.5t42.5 -110.5zM685 144q0 -70 -42.5 -112.5t-112.5 -42.5t-112.5 42.5t-42.5 112.5t42.5 110.5t112.5 40.5t112.5 -40.5t42.5 -110.5zM335 144q0 -70 -42.5 -112.5 t-112.5 -42.5t-112.5 42.5t-42.5 112.5t42.5 110.5t112.5 40.5t112.5 -40.5t42.5 -110.5z" />
<glyph unicode="&#x2030;" horiz-adv-x="1577" d="M451 494q0 -54 -17.5 -95t-47.5 -68.5t-69.5 -41.5t-83.5 -14t-83.5 13.5t-69 40.5t-46.5 68t-17 95t17.5 95t47.5 68.5t69.5 41.5t83.5 14t83.5 -13.5t69 -40.5t46.5 -68t17 -95zM437 0h-213l449 700h213zM1560 208q0 -54 -17.5 -95t-47.5 -68.5t-69.5 -41.5t-83.5 -14 t-83.5 13.5t-69 40.5t-46.5 68t-17 95t17.5 95t47.5 68.5t69.5 41.5t83.5 14t83.5 -13.5t69 -40.5t46.5 -68t17 -95zM1093 208q0 -54 -17.5 -95t-47.5 -68.5t-69.5 -41.5t-83.5 -14t-83.5 13.5t-69 40.5t-46.5 68t-17 95t17.5 95t47.5 68.5t69.5 41.5t83.5 14t83.5 -13.5 t69 -40.5t46.5 -68t17 -95zM271 492q0 45 -8.5 63.5t-29.5 18.5q-20 0 -28 -17.5t-8 -62.5t8.5 -63.5t29.5 -18.5q20 0 28 17.5t8 62.5zM1380 206q0 45 -8.5 63.5t-29.5 18.5q-20 0 -28 -17.5t-8 -62.5t8.5 -63.5t29.5 -18.5q20 0 28 17.5t8 62.5zM913 206q0 45 -8.5 63.5 t-29.5 18.5q-20 0 -28 -17.5t-8 -62.5t8.5 -63.5t29.5 -18.5q20 0 28 17.5t8 62.5z" />
<glyph unicode="&#x2039;" horiz-adv-x="394" d="M104 0l-86 263l86 262h270l-86 -262l86 -263h-270z" />
<glyph unicode="&#x203a;" horiz-adv-x="394" d="M290 0h-270l86 263l-86 262h270l86 -262z" />
<glyph unicode="&#x2044;" horiz-adv-x="526" d="M182 0h-277l439 700h277z" />
<glyph unicode="&#x20ac;" horiz-adv-x="675" d="M273 350v-16h184v-98h-167q13 -31 35 -44.5t51 -13.5q24 0 45.5 5t43 14.5t43.5 25t48 36.5l113 -156q-36 -30 -70 -51.5t-69.5 -35.5t-75.5 -20.5t-88 -6.5q-71 0 -133 20.5t-108.5 64t-73.5 112t-27 164.5q0 95 27 163.5t74.5 112.5t111 64.5t136.5 20.5q46 0 85 -6 t73.5 -19.5t66.5 -35t65 -51.5l-120 -153q-45 39 -82 57.5t-81 18.5q-31 0 -52.5 -13t-35.5 -42h165v-98h-184v-19z" />
<glyph unicode="&#x2122;" horiz-adv-x="873" d="M697 309v151v11q-8 -33 -17 -62l-31 -99h-52l-30 99q-5 14 -9 30.5t-8 31.5v-11v-151h-147v391h176l23 -70q7 -24 13 -44.5t9 -38.5q3 18 9 38.5t13 44.5l22 70h176v-391h-147zM272 571v-262h-164v262h-97v129h358v-129h-97z" />
<glyph unicode="&#x2126;" horiz-adv-x="450" d="M435 430q-11 -17 -30 -21t-44 1v-410h-272v410q-25 -5 -44 -1t-30 21q-10 14 -7.5 37t25.5 48l192 210l192 -210q23 -26 25.5 -48.5t-7.5 -36.5z" />
<glyph unicode="&#x2202;" horiz-adv-x="450" d="M435 250q10 -14 8 -37.5t-26 -47.5l-192 -190l-192 190q-24 24 -26 47.5t8 37.5q11 17 30 21t44 -1v160q-25 -5 -44 -1t-30 21q-10 14 -8 37.5t26 47.5l192 190l192 -190q24 -24 26 -47.5t-8 -37.5q-11 -17 -30 -21t-44 1v-160q25 5 44 1t30 -21z" />
<glyph unicode="&#x2206;" horiz-adv-x="660" d="M330 218q5 -25 1 -44t-21 -30q-14 -10 -36.5 -7.5t-48.5 25.5l-210 192l210 192q25 23 48 25.5t37 -7.5q17 -11 21 -30t-1 -44h305v-272h-305z" />
<glyph unicode="&#x220f;" d="M700 216q-30 -31 -54 -13q-10 8 -11.5 19.5t3.5 31.5l-6 25h-121v-99l21 -6q25 4 36 3t19 -11q17 -23 -12 -55l-146 -148l-143 148q-31 31 -13 55q8 11 18.5 11.5t33.5 -3.5l24 6v99h-123l-7 -24q4 -23 3.5 -33.5t-10.5 -18.5q-25 -18 -56 13l-147 143l147 146 q32 30 56 12q8 -8 10 -19t-3 -36l7 -21h123v79l-24 6q-23 -3 -33.5 -3t-18.5 11q-18 24 13 55l143 148l146 -148q29 -32 12 -55q-8 -10 -19 -11t-36 3l-21 -6v-79h121l6 21q-5 25 -3 36t11 19q25 19 54 -12l148 -146z" />
<glyph unicode="&#x2211;" d="M700 216q-30 -31 -54 -13q-10 8 -11.5 19.5t3.5 31.5l-6 25h-121v-99l21 -6q25 4 36 3t19 -11q17 -23 -12 -55l-146 -148l-143 148q-31 31 -13 55q8 11 18.5 11.5t33.5 -3.5l24 6v99h-123l-7 -24q4 -23 3.5 -33.5t-10.5 -18.5q-25 -18 -56 13l-147 143l147 146 q32 30 56 12q8 -8 10 -19t-3 -36l7 -21h123v79l-24 6q-23 -3 -33.5 -3t-18.5 11q-18 24 13 55l143 148l146 -148q29 -32 12 -55q-8 -10 -19 -11t-36 3l-21 -6v-79h121l6 21q-5 25 -3 36t11 19q25 19 54 -12l148 -146z" />
<glyph unicode="&#x2212;" d="M700 216q-30 -31 -54 -13q-10 8 -11.5 19.5t3.5 31.5l-6 25h-121v-99l21 -6q25 4 36 3t19 -11q17 -23 -12 -55l-146 -148l-143 148q-31 31 -13 55q8 11 18.5 11.5t33.5 -3.5l24 6v99h-123l-7 -24q4 -23 3.5 -33.5t-10.5 -18.5q-25 -18 -56 13l-147 143l147 146 q32 30 56 12q8 -8 10 -19t-3 -36l7 -21h123v79l-24 6q-23 -3 -33.5 -3t-18.5 11q-18 24 13 55l143 148l146 -148q29 -32 12 -55q-8 -10 -19 -11t-36 3l-21 -6v-79h121l6 21q-5 25 -3 36t11 19q25 19 54 -12l148 -146z" />
<glyph unicode="&#x221a;" horiz-adv-x="716" d="M453 0h-263l-197 368h274l20 -51q8 -21 14.5 -42t9.5 -40q3 21 9.5 46.5t13.5 48.5l111 370h273z" />
<glyph unicode="&#x221e;" d="M700 216q-30 -31 -54 -13q-10 8 -11.5 19.5t3.5 31.5l-6 25h-121v-99l21 -6q25 4 36 3t19 -11q17 -23 -12 -55l-146 -148l-143 148q-31 31 -13 55q8 11 18.5 11.5t33.5 -3.5l24 6v99h-123l-7 -24q4 -23 3.5 -33.5t-10.5 -18.5q-25 -18 -56 13l-147 143l147 146 q32 30 56 12q8 -8 10 -19t-3 -36l7 -21h123v79l-24 6q-23 -3 -33.5 -3t-18.5 11q-18 24 13 55l143 148l146 -148q29 -32 12 -55q-8 -10 -19 -11t-36 3l-21 -6v-79h121l6 21q-5 25 -3 36t11 19q25 19 54 -12l148 -146z" />
<glyph unicode="&#x222b;" horiz-adv-x="625" d="M334 0v35q-26 -21 -52.5 -33.5t-70.5 -12.5q-38 0 -72.5 16t-61.5 49t-43 84.5t-16 123.5t16 124t43 85.5t61.5 49t72.5 15.5q44 0 70.5 -12.5t52.5 -33.5v35h260v-525h-260zM334 361q-9 5 -23 5q-22 0 -36.5 -21.5t-14.5 -82.5q0 -60 14.5 -81.5t36.5 -21.5q14 0 23 5 v197z" />
<glyph unicode="&#x2248;" horiz-adv-x="450" d="M435 270q10 -14 7.5 -36.5t-25.5 -48.5l-192 -210l-192 210q-23 25 -25.5 48t7.5 37q11 17 30 21t44 -1v410h272v-410q25 5 44 1t30 -21z" />
<glyph unicode="&#x2260;" d="M700 216q-30 -31 -54 -13q-10 8 -11.5 19.5t3.5 31.5l-6 25h-121v-99l21 -6q25 4 36 3t19 -11q17 -23 -12 -55l-146 -148l-143 148q-31 31 -13 55q8 11 18.5 11.5t33.5 -3.5l24 6v99h-123l-7 -24q4 -23 3.5 -33.5t-10.5 -18.5q-25 -18 -56 13l-147 143l147 146 q32 30 56 12q8 -8 10 -19t-3 -36l7 -21h123v79l-24 6q-23 -3 -33.5 -3t-18.5 11q-18 24 13 55l143 148l146 -148q29 -32 12 -55q-8 -10 -19 -11t-36 3l-21 -6v-79h121l6 21q-5 25 -3 36t11 19q25 19 54 -12l148 -146z" />
<glyph unicode="&#x2264;" d="M700 216q-30 -31 -54 -13q-10 8 -11.5 19.5t3.5 31.5l-6 25h-121v-99l21 -6q25 4 36 3t19 -11q17 -23 -12 -55l-146 -148l-143 148q-31 31 -13 55q8 11 18.5 11.5t33.5 -3.5l24 6v99h-123l-7 -24q4 -23 3.5 -33.5t-10.5 -18.5q-25 -18 -56 13l-147 143l147 146 q32 30 56 12q8 -8 10 -19t-3 -36l7 -21h123v79l-24 6q-23 -3 -33.5 -3t-18.5 11q-18 24 13 55l143 148l146 -148q29 -32 12 -55q-8 -10 -19 -11t-36 3l-21 -6v-79h121l6 21q-5 25 -3 36t11 19q25 19 54 -12l148 -146z" />
<glyph unicode="&#x2265;" d="M700 216q-30 -31 -54 -13q-10 8 -11.5 19.5t3.5 31.5l-6 25h-121v-99l21 -6q25 4 36 3t19 -11q17 -23 -12 -55l-146 -148l-143 148q-31 31 -13 55q8 11 18.5 11.5t33.5 -3.5l24 6v99h-123l-7 -24q4 -23 3.5 -33.5t-10.5 -18.5q-25 -18 -56 13l-147 143l147 146 q32 30 56 12q8 -8 10 -19t-3 -36l7 -21h123v79l-24 6q-23 -3 -33.5 -3t-18.5 11q-18 24 13 55l143 148l146 -148q29 -32 12 -55q-8 -10 -19 -11t-36 3l-21 -6v-79h121l6 21q-5 25 -3 36t11 19q25 19 54 -12l148 -146z" />
<glyph unicode="&#x25ca;" d="M700 216q-30 -31 -54 -13q-10 8 -11.5 19.5t3.5 31.5l-6 25h-121v-99l21 -6q25 4 36 3t19 -11q17 -23 -12 -55l-146 -148l-143 148q-31 31 -13 55q8 11 18.5 11.5t33.5 -3.5l24 6v99h-123l-7 -24q4 -23 3.5 -33.5t-10.5 -18.5q-25 -18 -56 13l-147 143l147 146 q32 30 56 12q8 -8 10 -19t-3 -36l7 -21h123v79l-24 6q-23 -3 -33.5 -3t-18.5 11q-18 24 13 55l143 148l146 -148q29 -32 12 -55q-8 -10 -19 -11t-36 3l-21 -6v-79h121l6 21q-5 25 -3 36t11 19q25 19 54 -12l148 -146z" />
<glyph unicode="&#x25fc;" horiz-adv-x="525" d="M0 525h525v-525h-525v525z" />
<glyph unicode="&#xfb01;" horiz-adv-x="710" d="M690 658q0 -52 -38.5 -76.5t-102.5 -24.5t-102.5 24.5t-38.5 76.5q0 46 38.5 71.5t102.5 25.5t102.5 -25.5t38.5 -71.5zM381 564q-16 7 -27 9t-22 2q-17 0 -23.5 -8t-6.5 -28v-14h76v-164h-70v-361h-250v361h-52v164h52v27q0 184 182 184q47 0 82.5 -6.5t58.5 -16.5v-149 zM419 0v525h260v-525h-260z" />
<glyph unicode="&#xfb02;" horiz-adv-x="710" d="M381 564q-16 7 -27 9t-22 2q-17 0 -23.5 -8t-6.5 -28v-14h76v-164h-70v-361h-250v361h-52v164h52v27q0 184 182 184q47 0 82.5 -6.5t58.5 -16.5v-149zM419 0v649l260 86v-735h-260z" />
<glyph horiz-adv-x="0" />
<glyph horiz-adv-x="826" d="M655 215q-20 -17 -36 -19t-27 6q-22 15 -14 46l4 16h-83v-60l16 4q31 8 46 -14q8 -11 6 -27t-19 -36l-135 -156l-135 156q-17 20 -19 36t6 27q15 22 46 14l16 -4v60h-83l4 -16q8 -31 -14 -46q-11 -8 -27 -6t-36 19l-156 135l156 135q20 17 36 19t27 -6q22 -15 14 -46 l-4 -16h83v60l-16 -4q-31 -8 -46 14q-8 11 -6 27t19 36l135 156l135 -156q17 -20 19 -36t-6 -27q-15 -22 -46 -14l-16 4v-60h83l-4 16q-8 31 14 46q11 8 27 6t36 -19l156 -135z" />
</font>
</defs>
</svg>
