<?xml version="1.0" encoding="utf-8"?>
<!-- Generator: Adobe Illustrator 18.1.1, SVG Export Plug-In . SVG Version: 6.00 Build 0)  -->
<svg version="1.1" id="Layer_1" xmlns="http://www.w3.org/2000/svg" xmlns:xlink="http://www.w3.org/1999/xlink" x="0px" y="0px"
	 viewBox="0 350.6 1728 1721.7" enable-background="new 0 350.6 1728 1721.7" xml:space="preserve">
<path fill="#FFFFFF" d="M1208.8,1746.7H556.5c-33.3,0-60.5-27.2-60.5-60.5v-652.3c0-33.3,27.2-60.5,60.5-60.5h652
	c33.3,0,60.5,27.2,60.5,60.5v652C1269.3,1719.5,1242.1,1746.7,1208.8,1746.7z"/>
<g>
	
		<linearGradient id="SVGID_1_" gradientUnits="userSpaceOnUse" x1="232.0974" y1="706.7012" x2="868.1102" y2="706.7012" gradientTransform="matrix(1.6875 0 0 -1.6875 0 2106.0864)">
		<stop  offset="0" style="stop-color:#100605"/>
		<stop  offset="1" style="stop-color:#696272"/>
	</linearGradient>
	<path fill="url(#SVGID_1_)" d="M1009.6,780c-19.5,44.8,88.5,251.7,40.3,390.9c-17.9,51.5-109.1,51.5-199.2,51.5
		c-112.3,0-177.1-23.7-204.3-74.1c-13.1-24-2.1-112,16-197.9c16.5-77.1,48.5-171.5,39.7-196.3c-8-22.1-213.1,53.3-258.1,81.1
		c-33.6,20.8-41.1,51.2-57.1,35.7c-15.2-14.4,25.1-29.3,22.9-40.5c-2.9-17.1-54.1,24.8-66.4-6.1c-4.8-11.7,54.1-9.1,51.7-21.6
		c-0.8-4.8-60.5-2.4-60.8-14.9c-0.8-21.3,53.6-3.5,54.9-22.1c0.5-6.1-54.9-9.6-55.7-17.3c-2.9-30.7,46.1-8,70.7-14.1
		c7.5-1.9-28.3-36-8-42.7c34.9-11.2,10.4,38.9,38.4,39.5c75.7,1.6,277.3-125.3,296.5-125.3c16.8,0,189.9-5.9,252.5,9.1
		c72.8,17.3,238.9,131.2,318.7,133.9c13.6,0.5,14.7-40.5,22.7-40.8c28.3-0.5,6.7,37.1,16.5,38.9c29.9,5.3,60.8-14.1,63.7,13.6
		c2.1,19.2-56.5-2.7-57.6,15.2c-0.5,8.5,66.1,9.1,56.8,34.7c-4,10.9-57.3-10.4-60.3-3.5c-8.3,20,69.1,17.6,62.1,39.2
		c-4,12.5-66.4-13.9-66.9-5.9c-0.8,14.9,26.1,12.5,23.5,29.1c-3.5,20.8-50.4-22.7-81.6-29.9C1256,833.9,1021.6,752.3,1009.6,780z"/>
	
		<linearGradient id="SVGID_2_" gradientUnits="userSpaceOnUse" x1="418.9212" y1="903.6364" x2="618.3879" y2="903.6364" gradientTransform="matrix(1.6875 0 0 -1.6875 0 2106.0864)">
		<stop  offset="0" style="stop-color:#100605"/>
		<stop  offset="1" style="stop-color:#696272"/>
	</linearGradient>
	<path fill="url(#SVGID_2_)" d="M1025.3,569.6c0,93.1-75.2,191.5-168.3,191.5s-168.3-98.7-168.3-191.5S764,401.3,857.1,401.3
		S1025.3,476.8,1025.3,569.6z"/>
	
		<linearGradient id="SVGID_3_" gradientUnits="userSpaceOnUse" x1="857.2805" y1="873.4438" x2="931.3709" y2="873.4438" gradientTransform="matrix(-1.6875 0 0 -1.6875 2426.1501 2106.0864)">
		<stop  offset="0" style="stop-color:#100605"/>
		<stop  offset="1" style="stop-color:#696272"/>
	</linearGradient>
	<path fill="url(#SVGID_3_)" d="M861.3,649.6c0,34.7,28,62.4,62.4,62.4c34.7,0,62.4-28,62.4-62.4s-51.2-97.3-85.6-97.3
		C865.9,552.3,861.3,614.9,861.3,649.6z"/>
	
		<linearGradient id="SVGID_4_" gradientUnits="userSpaceOnUse" x1="408.6369" y1="873.4438" x2="482.7273" y2="873.4438" gradientTransform="matrix(1.6875 0 0 -1.6875 47.2501 2106.0864)">
		<stop  offset="0" style="stop-color:#100605"/>
		<stop  offset="1" style="stop-color:#696272"/>
	</linearGradient>
	<path fill="url(#SVGID_4_)" d="M855.2,649.6c0,34.7-28,62.4-62.4,62.4c-34.7,0-62.4-28-62.4-62.4s51.2-97.3,85.6-97.3
		C850.1,552.3,855.2,614.9,855.2,649.6z"/>
	
		<linearGradient id="SVGID_5_" gradientUnits="userSpaceOnUse" x1="380.2389" y1="827.1388" x2="418.2532" y2="827.1388" gradientTransform="matrix(1.616 -0.4859 -0.4859 -1.616 459.2818 2087.7048)">
		<stop  offset="0" style="stop-color:#100605"/>
		<stop  offset="1" style="stop-color:#696272"/>
	</linearGradient>
	<path fill="url(#SVGID_5_)" d="M722.7,525.9c-10.7-9.3-43.5-14.9-52.5-6.1c-8.3,8,0.5,55.2,0.5,55.2c4.3,12.5,12.8,37.3,30.1,30.9"
		/>
	
		<linearGradient id="SVGID_6_" gradientUnits="userSpaceOnUse" x1="673.7371" y1="734.0222" x2="712.5082" y2="734.0222" gradientTransform="matrix(-1.616 -0.4859 0.4859 -1.616 1773.2427 2087.7048)">
		<stop  offset="0" style="stop-color:#100605"/>
		<stop  offset="1" style="stop-color:#696272"/>
	</linearGradient>
	<path fill="url(#SVGID_6_)" d="M1042.4,582.9c-4.3,12.5-12.8,37.3-30.1,30.9c-17.3-6.4-33.6-69.6-21.9-80
		c10.7-9.3,43.5-14.9,52.5-6.1C1051.2,535.5,1042.4,582.9,1042.4,582.9z"/>
	
		<linearGradient id="SVGID_7_" gradientUnits="userSpaceOnUse" x1="442.6074" y1="857.8882" x2="494.7556" y2="857.8882" gradientTransform="matrix(1.6875 0 0 -1.6875 0 2106.0864)">
		<stop  offset="0" style="stop-color:#FDC60B"/>
		<stop  offset="0.2509" style="stop-color:#FBD145"/>
		<stop  offset="0.7413" style="stop-color:#FFF23A"/>
		<stop  offset="0.7992" style="stop-color:#FFF022"/>
		<stop  offset="0.8634" style="stop-color:#FFEF0F"/>
		<stop  offset="0.9296" style="stop-color:#FFEE04"/>
		<stop  offset="1" style="stop-color:#FFEE00"/>
	</linearGradient>
	<circle fill="url(#SVGID_7_)" cx="790.9" cy="658.4" r="44"/>
	
		<linearGradient id="SVGID_8_" gradientUnits="userSpaceOnUse" x1="521.3037" y1="857.8882" x2="573.4518" y2="857.8882" gradientTransform="matrix(1.6875 0 0 -1.6875 0 2106.0864)">
		<stop  offset="0" style="stop-color:#FDC60B"/>
		<stop  offset="0.2509" style="stop-color:#FBD145"/>
		<stop  offset="0.7413" style="stop-color:#FFF23A"/>
		<stop  offset="0.7992" style="stop-color:#FFF022"/>
		<stop  offset="0.8634" style="stop-color:#FFEF0F"/>
		<stop  offset="0.9296" style="stop-color:#FFEE04"/>
		<stop  offset="1" style="stop-color:#FFEE00"/>
	</linearGradient>
	<circle fill="url(#SVGID_8_)" cx="923.7" cy="658.4" r="44"/>
	<circle fill="#231F20" cx="920.3" cy="678.1" r="21.9"/>
	<circle fill="#231F20" cx="790.9" cy="678.1" r="21.9"/>
	
		<linearGradient id="SVGID_9_" gradientUnits="userSpaceOnUse" x1="176.6733" y1="411.0084" x2="511.0813" y2="411.0084" gradientTransform="matrix(2.6667 0 0 2.6667 0 143.9139)">
		<stop  offset="0" style="stop-color:#F4FBFE"/>
		<stop  offset="1" style="stop-color:#F7FCFB"/>
	</linearGradient>
	<rect x="424" y="773.3" fill="url(#SVGID_9_)" width="890.7" height="933.3"/>
</g>
<rect x="398.9" y="773.3" fill="#F4F4F4" width="961.1" height="1246.9"/>
<g id="MDBmvc.tif">
</g>
<circle fill="#E2E2E2" cx="895.7" cy="1352" r="378.7"/>
<g enable-background="new    ">
	<path fill="#0B0709" d="M498.1,897.4c7.4-2.1,14.2-4.1,21-7l9,6.2l-8.3,32.6l12.9-14l12.4,5.8c0.2,1.6,0.2,5.5,0.2,7.3
		c0,14.3-5.2,31.1-14.8,47.5l-12.6,6.5c7.2-19.7,7.2-33.6,7.2-42.8c0-2.3-0.1-3.1-1.3-3.1c-2,0-10.7,15.3-18,38.1l-12-4.2
		c6.8-22.2,12.3-44.7,13.6-67.8l-10.8,0.4L498.1,897.4z"/>
	<path fill="#0B0709" d="M592.8,923.9c0.4,2,0.6,4,0.6,5.4c0,11.7-11.1,18.4-27.3,24.1c0.4,5.6,0.9,9,2.3,9
		c1.5,0,10.8-6.2,18.3-12.8l4,4l-17,23.4l-23.6-6.3c-0.1-3.6,0.1-7.6,0.1-13.6c0-17,8.6-33.7,20.7-41.2L592.8,923.9z M565.2,943.5
		c0,3.2,0.2,3.8,0.8,3.8c1.4,0,10.8-5.2,10.8-16.2c0-4.1-2-8.6-3.6-8.6C571.5,922.5,565.2,934.5,565.2,943.5z"/>
	<path fill="#0B0709" d="M600,903.5l1.1-5.5l18.5-7.4l11.3,6c-6.9,19.7-12.9,39-16.8,59.1c-0.1,0.5-0.1,0.9-0.1,1.3
		c0,0.7,0.4,1.1,0.7,1.1c2,0,9.6-8.8,11.4-11l6.1,3.3l-20.8,27.5l-15.3-6.6c4.2-23.8,8-45.3,14.6-67.7L600,903.5L600,903.5z"/>
	<path fill="#0B0709" d="M638.7,903.5l1.1-5.5l18.5-7.4l11.3,6c-6.9,19.7-12.9,39-16.8,59.1c-0.1,0.5-0.1,0.9-0.1,1.3
		c0,0.7,0.4,1.1,0.7,1.1c2,0,9.6-8.8,11.4-11l6.1,3.3l-20.8,27.5l-15.3-6.6c4.2-23.8,8-45.3,14.6-67.7L638.7,903.5L638.7,903.5z"/>
	<path fill="#0B0709" d="M676.6,972.3c-2.3-6.8-2.6-11.4-2.6-14.4c0-7.9,0-26.5,23.7-41.4l22.5,4.2c0.7,3.6,1.2,8,1.2,10.8
		c0,19.4-8,34.1-25.2,44.5L676.6,972.3z M707.6,930.4c0-4.3-0.6-6.1-1.6-6.1c-2.5,0-17,15.1-17,35.8c0,3.6,0.2,4.6,1.5,4.6
		C692.2,964.6,707.6,950,707.6,930.4z"/>
	<path fill="#0B0709" d="M732.8,966.1c0,4.2-3.4,7.6-7.6,7.6c-4.2,0-7.6-3.4-7.6-7.6c0-4.2,3.4-7.6,7.6-7.6
		C729.4,958.4,732.8,961.8,732.8,966.1z"/>
</g>
<g enable-background="new    ">
	<path fill="#0B0709" d="M498.6,1094.5l9.4-0.4c2-26.4,5-47.6,7.4-63.5c-4.3,0-8.7,0-13.4,0.2l8.1-9.7h40.8l-15.5,10.4
		c-3.4,20.3-7.2,41.2-10.2,61.1c5.6-0.4,10.3-1.1,15.4-1.8l-14,12.4h-33.2L498.6,1094.5z"/>
	<path fill="#0B0709" d="M549.2,1048.8c4.8-8.4,10-19.4,11.9-28l7.9,5l-14.6,25.7L549.2,1048.8z"/>
	<path fill="#0B0709" d="M583.3,1046.9h12.8l-0.2,8.3c-0.1,1.2,0.4,1.9,0.9,1.9c0.4,0,0.8-0.4,1.3-0.9l7.9-10.2l14.8,4.2l0.2,6.7
		c0,0.8,0.6,1.5,1.3,1.5c0.4,0,0.6-0.1,0.9-0.6l8.9-11.7l15.3,3.6c0,4.3,0.2,8.6,0.2,12.9c0,14.8-5.5,22.4-10,38.5l-14.7,4.3
		c4.5-15.8,5.9-19.6,5.9-30.3c0-8-0.1-10.1-1.5-10.1c-1.2,0-3.5,3.3-7.3,10.4c-3.1,5.7-5.3,14.2-8.6,26.5l-14.9,3.5
		c3.9-15.6,5.3-21.1,5.3-28.6c0-6.3-0.5-10.9-2-10.9c-1.2,0-2.7,2.7-7.2,11c-3.5,6.7-7.5,16.5-10.8,29.5l-13.5-6.6l8.7-40.1h-8.3
		l0.4-4.1L583.3,1046.9z"/>
	<path fill="#0B0709" d="M673.3,1059.6l0.5-4.1l13.8-8.6h13.5l-0.5,8.8c0,0.7,0.1,1.2,0.6,1.2s1.1-0.4,1.6-1.1l7.6-10.2l14.4,4.2
		c0.2,5.7,0.5,11.6,0.5,17.4c0,11.6-5.3,23.5-8.6,34l-15.4,5.7c5.4-15.5,6.1-20.7,6.1-30.5c0-6.9-0.2-12.7-1.4-12.7
		c-2.9,0-11.1,16.4-14.9,29.1l-4.1,13.6l-13-6.6c2.8-13.8,6.1-27.3,9.3-40.4h-10V1059.6z"/>
	<path fill="#0B0709" d="M732.6,1102.4c-2.3-6.8-2.6-11.4-2.6-14.4c0-7.9,0-26.5,23.7-41.4l22.5,4.2c0.7,3.6,1.2,8,1.2,10.8
		c0,19.4-8,34.1-25.2,44.5L732.6,1102.4z M763.5,1060.5c0-4.3-0.6-6.1-1.6-6.1c-2.5,0-17,15.1-17,35.8c0,3.6,0.2,4.6,1.5,4.6
		C748.2,1094.8,763.5,1080.1,763.5,1060.5z"/>
	<path fill="#0B0709" d="M782.3,1046.9h31.8l-9.3,5.8l2.8,8.9c0.6,1.8,0.6,2.5,2,2.5c2,0,7.9-7.3,12-17.1h13.6
		c-4.9,11.3-10.9,20.1-21.9,32.2c3.5,9.3,6.8,17.6,10.9,26.3l-20.9-2.6l-3.2-10.7l-13.1,11c-5.6,0.4-9,1.5-13.4,2.8l21.9-29
		l-6.2-21.1H780L782.3,1046.9z"/>
	<path fill="#0B0709" d="M852.5,1096.2c0,4.2-3.4,7.6-7.6,7.6c-4.2,0-7.6-3.4-7.6-7.6s3.4-7.6,7.6-7.6S852.5,1092,852.5,1096.2z"/>
</g>
<g enable-background="new    ">
	<path fill="#0B0709" d="M522.8,1177l-8.2,40.2c-0.2,0.9-0.5,2.9,0.7,2.9c2.1,0,7.9-8.4,9.9-11.3l5.3,2.9l-16.8,26.6l-19-10.2
		l12.8-51.3h15.3V1177z M525.5,1158.3c0,4.1-3.4,7.5-7.5,7.5c-4.2,0-7.6-3.4-7.6-7.5c0-4.2,3.4-7.6,7.6-7.6
		C522.1,1150.6,525.5,1154,525.5,1158.3z"/>
	<path fill="#0B0709" d="M530.9,1178.9c4.8-8.4,10-19.4,11.9-28l7.9,5l-14.6,25.7L530.9,1178.9z"/>
	<path fill="#0B0709" d="M565,1177h12.8l-0.2,8.3c-0.1,1.2,0.4,1.9,0.9,1.9c0.4,0,0.8-0.4,1.3-0.9l7.9-10.2l14.8,4.2l0.2,6.7
		c0,0.8,0.6,1.5,1.3,1.5c0.4,0,0.6-0.1,0.9-0.6l8.9-11.7l15.3,3.6c0,4.3,0.2,8.6,0.2,12.9c0,14.8-5.5,22.4-10,38.5l-14.7,4.3
		c4.5-15.8,5.9-19.6,5.9-30.3c0-8-0.1-10.1-1.5-10.1c-1.2,0-3.5,3.3-7.3,10.4c-3.1,5.7-5.3,14.2-8.6,26.5l-14.9,3.5
		c3.9-15.6,5.3-21.1,5.3-28.6c0-6.3-0.5-10.9-2-10.9c-1.2,0-2.7,2.7-7.2,11c-3.5,6.7-7.5,16.5-10.8,29.5l-13.5-6.6l8.7-40.1h-8.3
		l0.4-4.1L565,1177z"/>
	<path fill="#0B0709" d="M684.5,1232l0.5-10c0.1-0.5,0-0.8-0.5-0.8c-0.4,0-0.8,0.2-1.3,0.8l-11.1,13.1l-17.1-10.2
		c1.4-16.8,5.9-30,13.3-43.7c19.1-3.6,32-5.2,39.2-5.2c2.1,0,4.9,0.1,7,0.5c-6.3,16.9-11.5,39.1-13.1,59.3L684.5,1232z
		 M689.7,1203.2c3.6-7.2,5.6-14.3,5.6-18c0-0.6-0.6-1.5-1.3-1.5c-3.4,0-19.8,10.3-19.8,29.3c0,3.4,0.5,4.2,1.9,4.2
		C678.5,1217.3,685.7,1210.8,689.7,1203.2z"/>
	<path fill="#0B0709" d="M720.5,1198.2h5.3c0.5-20.9,7.4-37,22.5-46.8H763c0.2,2.3,0.5,4.8,0.5,6.9c0,8.7-1.1,16.7-3.6,26l-6.6,2.6
		c0.1-2.1,0.2-4.2,0.2-6.3c0-5.9-1.3-12-2.6-12c-1.8,0-5.9,12.7-8.1,29.5h18.4l-9.4,12.6l-11,2c-2.1,18.2-2.5,23.8-2.3,45.5H718
		l-0.5-17.1h5.8c1.9,4.3,4,6.8,5,6.8c0.5,0,0.7-0.5,0.7-1.4c0-1.8-2.3-14-3.2-33.8h-8.4L720.5,1198.2z"/>
	<path fill="#0B0709" d="M776.4,1177h11l2.1,11c4.7-4.7,8.7-8.9,13.1-14l3.2,8.1l-3.1,20.4l-8.8,9.2c0-2.2-0.9-20.2-3.6-20.2
		c-0.6,0-1.1,0.7-1.3,1.8c-1.9,15-4.9,29.2-9.4,44.1l-14.4-5.2c3.4-14.7,5.8-27.6,5.8-42.2h-9l0.4-4.8L776.4,1177z"/>
	<path fill="#0B0709" d="M836.2,1232l0.5-10c0.1-0.5,0-0.8-0.5-0.8c-0.4,0-0.8,0.2-1.3,0.8l-11.1,13.1l-17.1-10.2
		c1.4-16.8,5.9-30,13.3-43.7c19.1-3.6,32-5.2,39.2-5.2c2.1,0,4.9,0.1,7,0.5c-6.3,16.9-11.5,39.1-13.1,59.3L836.2,1232z
		 M841.4,1203.2c3.6-7.2,5.6-14.3,5.6-18c0-0.6-0.6-1.5-1.3-1.5c-3.4,0-19.8,10.3-19.8,29.3c0,3.4,0.5,4.2,1.9,4.2
		C830.2,1217.3,837.5,1210.8,841.4,1203.2z"/>
	<path fill="#0B0709" d="M896.4,1177l-8.2,40.2c-0.2,0.9-0.5,2.9,0.7,2.9c2.1,0,7.9-8.4,9.9-11.3l5.3,2.9l-16.8,26.6l-19-10.2
		L881,1177H896.4z M899.1,1158.3c0,4.1-3.4,7.5-7.5,7.5c-4.2,0-7.6-3.4-7.6-7.5c0-4.2,3.4-7.6,7.6-7.6
		C895.6,1150.6,899.1,1154,899.1,1158.3z"/>
	<path fill="#0B0709" d="M904.3,1229.3c2.5-16.5,6.5-32.4,10.9-47.5c8.1-3.3,16.2-5.2,24.5-5.2c1.5,0,5.3,0.2,8.2,0.7l3.8-15.1
		h-12.3l1.4-6l20.4-5.4l11.9,5.5c-8.1,18.1-16.3,39-22.3,62.1c0,0.2-0.1,0.6-0.1,0.7c0,0.7,0.4,0.9,0.8,0.9c0.6,0,1.4-0.5,2.3-1.5
		l9.4-10.8l5,2.8l-17,27.6l-19-5.5l3.3-15.5l-13.4,20.9L904.3,1229.3z M929,1196.9c-4.7,7.6-6.5,17-6.5,19.9c0,1.6,0.8,2.3,1.4,2.3
		c2.1,0,7.5-6,12.7-14c5.9-9.2,8.9-18,8.9-20.1c0-0.6-0.4-1.3-1.4-1.3C942.6,1183.8,935.1,1186.8,929,1196.9z"/>
	<path fill="#0B0709" d="M995.7,1232.5c-2.3-6.8-2.6-11.4-2.6-14.4c0-7.9,0-26.5,23.7-41.4l22.5,4.2c0.7,3.6,1.2,8,1.2,10.8
		c0,19.4-8,34.1-25.2,44.5L995.7,1232.5z M1026.7,1190.7c0-4.3-0.6-6.1-1.6-6.1c-2.5,0-17,15.1-17,35.8c0,3.6,0.2,4.6,1.5,4.6
		C1011.3,1224.9,1026.7,1210.2,1026.7,1190.7z"/>
	<path fill="#0B0709" d="M1048.1,1198.2h5.3c0.5-20.9,7.4-37,22.5-46.8h14.7c0.2,2.3,0.5,4.8,0.5,6.9c0,8.7-1.1,16.7-3.6,26
		l-6.6,2.6c0.1-2.1,0.2-4.2,0.2-6.3c0-5.9-1.3-12-2.6-12c-1.8,0-5.9,12.7-8.1,29.5h18.4l-9.4,12.6l-11,2
		c-2.1,18.2-2.5,23.8-2.3,45.5h-20.5l-0.5-17.1h5.7c1.9,4.3,4,6.8,5,6.8c0.5,0,0.7-0.5,0.7-1.4c0-1.8-2.3-14-3.2-33.8h-8.4
		L1048.1,1198.2z"/>
	<path fill="#0B0709" d="M1113.8,1230.4c1.6-13.7,4.2-29.2,7.5-43.2h-6.5l1.1-6.8c7.3-1.8,10.7-6.7,14.2-13.8h11l-2,10.4h15.4
		l-6.2,10.1h-10.8c-2.7,16.1-4.9,32.5-4.9,33.4c0,1.1,0.4,1.4,0.8,1.4c0.6,0,4.1-1.2,10.8-12.2l5.3,2.3l-11.6,25.3L1113.8,1230.4z"
		/>
	<path fill="#0B0709" d="M1157.9,1157.7c7.4-2.1,14.2-4.1,21-7l9,6.2l-8.3,32.6l12.9-14l12.4,5.8c0.2,1.6,0.2,5.5,0.2,7.3
		c0,14.3-5.2,31.1-14.8,47.5l-12.6,6.5c7.2-19.7,7.2-33.6,7.2-42.8c0-2.3-0.1-3.1-1.3-3.1c-2,0-10.7,15.3-18,38.1l-12-4.2
		c6.8-22.2,12.3-44.7,13.6-67.8l-10.8,0.4L1157.9,1157.7z"/>
	<path fill="#0B0709" d="M1252.6,1184.2c0.4,2,0.6,4,0.6,5.4c0,11.7-11.1,18.4-27.3,24.1c0.4,5.6,0.9,9,2.3,9
		c1.5,0,10.8-6.2,18.3-12.8l4,4l-17,23.4l-23.6-6.3c-0.1-3.6,0.1-7.6,0.1-13.6c0-17,8.6-33.7,20.7-41.2L1252.6,1184.2z M1225,1203.8
		c0,3.2,0.2,3.8,0.8,3.8c1.4,0,10.8-5.2,10.8-16.2c0-4.1-2-8.6-3.6-8.6C1231.2,1182.8,1225,1194.8,1225,1203.8z"/>
</g>
<g enable-background="new    ">
	<path fill="#0B0709" d="M499.3,1293.9l1.1-5.5l18.5-7.4l11.3,6c-6.9,19.7-12.9,39-16.8,59.1c-0.1,0.5-0.1,0.9-0.1,1.3
		c0,0.7,0.4,1.1,0.7,1.1c2,0,9.6-8.8,11.4-11l6.1,3.3l-20.8,27.5l-15.3-6.6c4.2-23.8,8-45.3,14.6-67.7h-10.7V1293.9z"/>
	<path fill="#0B0709" d="M561.5,1307.2l-8.2,40.2c-0.2,0.9-0.5,2.9,0.7,2.9c2.1,0,7.9-8.4,9.9-11.3l5.3,2.9l-16.8,26.6l-19-10.2
		l12.8-51.3h15.3V1307.2z M564.2,1288.4c0,4.1-3.4,7.5-7.5,7.5c-4.2,0-7.6-3.4-7.6-7.5c0-4.2,3.4-7.6,7.6-7.6
		C560.8,1280.8,564.2,1284.2,564.2,1288.4z"/>
	<path fill="#0B0709" d="M618.3,1324.2c-1.6,7.5-3.5,12.7-6.2,19.7l-14.9,4.8c1.8,3.1,5.6,4.7,9.7,4.7c2.8,0,6.2-0.9,9-2.2l12.1,7.3
		c-8.4,22.6-22.1,30.2-40.5,30.2c-16.5,0-20.5-11-20.5-18.5c0-9.5,4.9-17.1,16.7-23.2c-6.8-1.8-10-7-10-12.3c0-8.6,6.7-18.1,13-23.9
		l33-6.8c0.5,6.5,3.9,11,10.1,13.6l-2.1,8.7L618.3,1324.2z M582.4,1358.2c-1.6,0-3.4,5.5-3.4,10.2c0,9.2,6.9,14.3,9.7,14.3
		c2.3,0,6.8-2.7,10.7-6.7c6.1-6.1,9.9-14,9.9-16.2c0-0.5-0.2-0.7-0.5-0.7c-1.9,0-7,4.2-14.3,4.2
		C586.2,1363.4,584,1358.2,582.4,1358.2z M590.6,1329c0,5.6,5.3,8.7,6.9,8.7c2.7,0,8-21.2,8-23.5c0-0.4-0.1-0.6-0.2-0.6
		C602.3,1313.6,590.6,1320,590.6,1329z"/>
	<path fill="#0B0709" d="M635.1,1287.8c7.4-2.1,14.2-4.1,21-7l9,6.2l-8.3,32.6l12.9-14l12.4,5.7c0.2,1.6,0.2,5.5,0.2,7.3
		c0,14.3-5.2,31.1-14.8,47.5l-12.6,6.5c7.2-19.7,7.2-33.6,7.2-42.8c0-2.3-0.1-3.1-1.3-3.1c-2,0-10.7,15.3-18,38.1l-12-4.2
		c6.8-22.2,12.3-44.7,13.6-67.8l-10.8,0.4L635.1,1287.8z"/>
	<path fill="#0B0709" d="M689.1,1360.6c1.6-13.7,4.2-29.2,7.5-43.2h-6.5l1.1-6.8c7.3-1.8,10.7-6.7,14.2-13.8h11l-2,10.4h15.4
		l-6.2,10.1h-10.8c-2.7,16.1-4.9,32.5-4.9,33.4c0,1.1,0.4,1.4,0.8,1.4c0.6,0,4.1-1.2,10.8-12.2l5.3,2.3l-11.6,25.3L689.1,1360.6z"/>
	<path fill="#0B0709" d="M744.6,1356.5c0,4.2-3.4,7.6-7.6,7.6c-4.2,0-7.6-3.4-7.6-7.6s3.4-7.6,7.6-7.6
		C741.2,1348.8,744.6,1352.2,744.6,1356.5z"/>
</g>
<g enable-background="new    ">
	<path fill="#0B0709" d="M499.1,1492c-2.9-6.1-2.9-13.4-2.9-16.7c0-17.6,9.6-29.5,29.1-38.7l10.8,8.1c-17.7,7.4-21.9,19.2-21.9,26.2
		c0,4.3,1.9,10.1,5,10.1c2.8,0,7.9-6.8,11.3-11.9l5.2,3.3l-12.9,26.5L499.1,1492z"/>
	<path fill="#0B0709" d="M540.8,1492.8c-2.3-6.8-2.6-11.4-2.6-14.4c0-7.9,0-26.5,23.7-41.4l22.5,4.2c0.7,3.6,1.2,8,1.2,10.8
		c0,19.4-8,34.1-25.2,44.5L540.8,1492.8z M571.8,1450.9c0-4.3-0.6-6.1-1.6-6.1c-2.5,0-17,15.1-17,35.8c0,3.6,0.2,4.6,1.5,4.6
		C556.4,1485.2,571.8,1470.5,571.8,1450.9z"/>
	<path fill="#0B0709" d="M606.5,1437.3h12.8l-0.2,8.3c-0.1,1.2,0.4,1.9,0.9,1.9c0.4,0,0.8-0.4,1.3-0.9l7.9-10.2l14.8,4.2l0.2,6.7
		c0,0.8,0.6,1.5,1.3,1.5c0.4,0,0.6-0.1,0.9-0.6l8.9-11.7l15.3,3.6c0,4.3,0.2,8.6,0.2,12.9c0,14.8-5.5,22.4-10,38.5l-14.7,4.3
		c4.5-15.8,5.9-19.6,5.9-30.3c0-8-0.1-10.1-1.5-10.1c-1.2,0-3.5,3.3-7.3,10.4c-3.1,5.7-5.3,14.2-8.6,26.5l-14.9,3.5
		c3.9-15.6,5.3-21.1,5.3-28.6c0-6.3-0.5-10.9-2-10.9c-1.2,0-2.7,2.7-7.2,11c-3.5,6.7-7.5,16.5-10.8,29.5l-13.5-6.6l8.7-40.1H592
		l0.4-4.1L606.5,1437.3z"/>
	<path fill="#0B0709" d="M719.2,1444.5c0.4,2,0.6,4,0.6,5.4c0,11.7-11.1,18.4-27.3,24.1c0.4,5.6,0.9,9,2.3,9
		c1.5,0,10.8-6.2,18.3-12.8l4,4l-17,23.4l-23.6-6.3c-0.1-3.6,0.1-7.6,0.1-13.6c0-17,8.6-33.7,20.7-41.2L719.2,1444.5z M691.6,1464.1
		c0,3.2,0.2,3.8,0.8,3.8c1.4,0,10.8-5.2,10.8-16.2c0-4.1-2-8.6-3.6-8.6C697.8,1443.1,691.6,1455,691.6,1464.1z"/>
	<path fill="#0B0709" d="M775.9,1437c14.8,0,22.4,7.4,22.4,16.4c0,9.5-7.7,22.4-20.9,40.5h-16.1l-4.1,16.7h18.3l-8.6,8h-32.4
		l1.8-7.9h6.5l14-64.7c-2.7,0.5-6,1.4-8.7,2.5l-2.5-4.9c4.1-2.2,7.4-3.5,12.7-4.8l2-9.5c6.5,0,12,0,17.7-0.5L775.9,1437z
		 M764.4,1482.5c2.3,1.9,4.8,3.9,6.9,3.9c4.5,0,8.7-18.3,8.7-23.9c0-5.9-4.2-13.4-6.1-13.4c-0.5,0-1.2,0.5-1.3,1.1L764.4,1482.5z"/>
	<path fill="#0B0709" d="M806.4,1424l1.1-5.5l18.5-7.4l11.3,6c-6.9,19.7-12.9,39-16.8,59.1c-0.1,0.5-0.1,0.9-0.1,1.3
		c0,0.7,0.4,1.1,0.7,1.1c2,0,9.6-8.8,11.4-11l6.1,3.3l-20.8,27.5l-15.3-6.6c4.2-23.8,8-45.3,14.6-67.7h-10.7V1424z"/>
	<path fill="#0B0709" d="M870.3,1492.2l0.5-10c0.1-0.5,0-0.8-0.5-0.8c-0.4,0-0.8,0.2-1.3,0.8l-11.1,13.1l-17.1-10.2
		c1.4-16.8,5.9-30,13.3-43.7c19.1-3.6,32-5.2,39.2-5.2c2.1,0,4.9,0.1,7,0.5c-6.3,16.9-11.5,39.1-13.1,59.3L870.3,1492.2z
		 M875.6,1463.5c3.6-7.2,5.6-14.3,5.6-18c0-0.6-0.6-1.5-1.3-1.5c-3.4,0-19.8,10.3-19.8,29.3c0,3.4,0.5,4.2,1.9,4.2
		C864.3,1477.6,871.6,1471.1,875.6,1463.5z"/>
	<path fill="#0B0709" d="M935.7,1437.3h27.6l-7.4,6.6c-4.3,41-35.1,66.1-45.9,75l-11.9-7.2v-13.6l8.7-7c2.2,5.9,5.3,12.1,7.3,12.1
		c1.9,0,1.9-2.9,1.9-5.2c0-16.9-4.9-38-12.2-49l16.9-13c5,6.7,7.6,25.8,7.6,37.4c0,6-0.7,13.4-1.4,19.9v0.5c0,0.7,0.2,1.1,0.5,1.1
		c0.5,0,1.1-0.5,1.6-1.4c5.2-8.6,14.8-27.1,15.1-47.8h-10L935.7,1437.3z"/>
	<path fill="#0B0709" d="M1013.8,1487.3l-11,10.1l-18.8-6.9l8.2-40.7H982l0.5-3.5l14.5-8.9h13.4l-6.8,43.9c-0.4,2.2,0.4,3.3,2,3.3
		c2.1,0,11-4.7,12.2-11.3l4.3-23.7h16.4l-4,32.2c-0.1,0.9-0.2,1.6-0.2,2.2c0,0.8,0.2,1.3,1.4,1.3c4.1,0,14.4-7.3,18.7-22.9
		c-5.9-2.2-7.7-6.2-7.7-11c0-5.5,1.8-9,4.9-14h8.2c3.3,4.9,4.2,9,4.2,15.4c0,22.5-18.7,35.3-35.3,45.9L1013.8,1487.3z"/>
	<path fill="#0B0709" d="M1095.8,1437.3l-8.2,40.2c-0.2,0.9-0.5,2.9,0.7,2.9c2.1,0,7.9-8.4,9.9-11.3l5.3,2.9l-16.8,26.6l-19-10.2
		l12.8-51.3h15.3V1437.3z M1098.5,1418.5c0,4.1-3.4,7.5-7.5,7.5c-4.2,0-7.6-3.4-7.6-7.5c0-4.2,3.4-7.6,7.6-7.6
		C1095.1,1410.9,1098.5,1414.3,1098.5,1418.5z"/>
	<path fill="#0B0709" d="M1107,1490.7c1.6-13.7,4.2-29.2,7.5-43.2h-6.5l1.1-6.8c7.3-1.8,10.7-6.7,14.2-13.8h11l-2,10.4h15.4
		l-6.2,10.1h-10.8c-2.7,16.1-4.9,32.5-4.9,33.4c0,1.1,0.4,1.4,0.8,1.4c0.6,0,4.1-1.2,10.8-12.2l5.3,2.3l-11.6,25.3L1107,1490.7z"/>
	<path fill="#0B0709" d="M1151.1,1417.9c7.4-2.1,14.2-4.1,21-7l9,6.2l-8.3,32.6l12.9-14l12.4,5.7c0.2,1.6,0.2,5.5,0.2,7.3
		c0,14.3-5.2,31.1-14.8,47.5l-12.6,6.5c7.2-19.7,7.2-33.6,7.2-42.8c0-2.3-0.1-3.1-1.3-3.1c-2,0-10.7,15.3-18,38.1l-12-4.2
		c6.8-22.2,12.3-44.7,13.6-67.8l-10.8,0.4L1151.1,1417.9z"/>
	<path fill="#0B0709" d="M1199.2,1499.4c5.2-8.7,9.5-19.6,12.2-28.2l7.5,5l-14.7,25.6L1199.2,1499.4z"/>
</g>
<g enable-background="new    ">
	<path fill="#0B0709" d="M512,1567.4h12.8l-0.2,8.3c-0.1,1.2,0.4,1.9,0.9,1.9c0.4,0,0.8-0.4,1.3-0.9l7.9-10.2l14.8,4.2l0.2,6.7
		c0,0.8,0.6,1.5,1.3,1.5c0.4,0,0.6-0.1,0.9-0.6l8.9-11.7l15.3,3.6c0,4.3,0.2,8.6,0.2,12.9c0,14.8-5.5,22.4-10,38.5l-14.7,4.3
		c4.5-15.8,5.9-19.6,5.9-30.3c0-8-0.1-10.1-1.5-10.1c-1.2,0-3.5,3.3-7.3,10.4c-3.1,5.7-5.3,14.2-8.6,26.5l-14.9,3.5
		c3.9-15.6,5.3-21.1,5.3-28.6c0-6.3-0.5-10.9-2-10.9c-1.2,0-2.7,2.7-7.2,11c-3.5,6.7-7.5,16.5-10.8,29.5l-13.5-6.6l8.7-40.1h-8.3
		l0.4-4.1L512,1567.4z"/>
	<path fill="#0B0709" d="M624.6,1574.6c0.4,2,0.6,4,0.6,5.4c0,11.7-11.1,18.4-27.3,24.1c0.4,5.6,0.9,9,2.3,9
		c1.5,0,10.8-6.2,18.3-12.8l4,4l-17,23.4l-23.6-6.3c-0.1-3.6,0.1-7.6,0.1-13.6c0-17,8.6-33.7,20.7-41.2L624.6,1574.6z M597,1594.2
		c0,3.2,0.2,3.8,0.8,3.8c1.4,0,10.8-5.2,10.8-16.2c0-4.1-2-8.6-3.6-8.6C603.3,1573.2,597,1585.2,597,1594.2z"/>
	<path fill="#0B0709" d="M675.8,1567.4l-8.2,40.2c-0.2,0.9-0.5,2.9,0.7,2.9c2.1,0,7.9-8.4,9.9-11.3l5.3,2.9l-16.8,26.6l-19-10.2
		l12.8-51.3h15.3V1567.4z M678.5,1548.7c0,4.1-3.4,7.5-7.5,7.5c-4.2,0-7.6-3.4-7.6-7.5c0-4.2,3.4-7.6,7.6-7.6
		C675.1,1541,678.5,1544.4,678.5,1548.7z"/>
	<path fill="#0B0709" d="M684.3,1580.1l0.5-4.1l13.8-8.6h13.5l-0.5,8.8c0,0.7,0.1,1.2,0.6,1.2s1.1-0.4,1.6-1.1l7.6-10.2l14.4,4.2
		c0.2,5.7,0.5,11.6,0.5,17.4c0,11.6-5.3,23.5-8.6,34l-15.4,5.8c5.4-15.5,6.1-20.7,6.1-30.5c0-6.9-0.2-12.7-1.4-12.7
		c-2.9,0-11.1,16.4-14.9,29.1L698,1627l-13-6.6c2.8-13.8,6.1-27.3,9.3-40.4L684.3,1580.1L684.3,1580.1z"/>
	<path fill="#0B0709" d="M763.3,1620.8c1.6-13.7,4.2-29.2,7.5-43.2h-6.5l1.1-6.8c7.3-1.8,10.7-6.7,14.2-13.8h11l-2,10.4H804
		l-6.2,10.1H787c-2.7,16.1-4.9,32.5-4.9,33.4c0,1.1,0.4,1.4,0.8,1.4c0.6,0,4.1-1.2,10.8-12.2l5.3,2.3l-11.6,25.3L763.3,1620.8z"/>
	<path fill="#0B0709" d="M807.4,1548.1c7.4-2.1,14.2-4.1,21-7l9,6.2l-8.3,32.6l12.9-14l12.4,5.7c0.2,1.6,0.2,5.5,0.2,7.3
		c0,14.3-5.2,31.1-14.8,47.5l-12.6,6.5c7.2-19.7,7.2-33.6,7.2-42.8c0-2.3-0.1-3.1-1.3-3.1c-2,0-10.7,15.3-18,38.1l-12-4.2
		c6.8-22.2,12.3-44.7,13.6-67.8l-10.8,0.4L807.4,1548.1z"/>
	<path fill="#0B0709" d="M902.1,1574.6c0.4,2,0.6,4,0.6,5.4c0,11.7-11.1,18.4-27.3,24.1c0.4,5.6,0.9,9,2.3,9
		c1.5,0,10.8-6.2,18.3-12.8l4,4l-17,23.4l-23.6-6.3c-0.1-3.6,0.1-7.6,0.1-13.6c0-17,8.6-33.7,20.7-41.2L902.1,1574.6z M874.5,1594.2
		c0,3.2,0.2,3.8,0.8,3.8c1.4,0,10.8-5.2,10.8-16.2c0-4.1-2-8.6-3.6-8.6C880.7,1573.2,874.5,1585.2,874.5,1594.2z"/>
	<path fill="#0B0709" d="M925,1619.7c2.5-16.5,6.5-32.4,10.9-47.5c8.1-3.3,16.2-5.2,24.5-5.2c1.5,0,5.3,0.2,8.2,0.7l3.8-15.1h-12.3
		l1.4-6l20.4-5.4l11.9,5.5c-8.1,18.1-16.3,39-22.3,62.1c0,0.2-0.1,0.6-0.1,0.7c0,0.7,0.4,0.9,0.8,0.9c0.6,0,1.4-0.5,2.3-1.5
		l9.4-10.8l5,2.8l-17,27.6l-19-5.5l3.3-15.5l-13.4,20.9L925,1619.7z M949.6,1587.3c-4.7,7.6-6.5,17-6.5,19.9c0,1.6,0.8,2.3,1.4,2.3
		c2.1,0,7.5-6,12.7-14c5.9-9.2,8.9-18,8.9-20.1c0-0.6-0.4-1.3-1.4-1.3C963.2,1574.2,955.7,1577.2,949.6,1587.3z"/>
	<path fill="#0B0709" d="M1021.9,1622.4l0.5-10c0.1-0.5,0-0.8-0.5-0.8c-0.4,0-0.8,0.2-1.3,0.8l-11.1,13.1l-17.1-10.2
		c1.4-16.8,5.9-30,13.3-43.7c19.1-3.6,32-5.2,39.2-5.2c2.1,0,4.9,0.1,7,0.5c-6.3,16.9-11.5,39.1-13.1,59.3L1021.9,1622.4z
		 M1027.2,1593.6c3.6-7.2,5.6-14.3,5.6-18c0-0.6-0.6-1.5-1.3-1.5c-3.4,0-19.8,10.3-19.8,29.3c0,3.4,0.5,4.2,1.9,4.2
		C1015.9,1607.7,1023.2,1601.2,1027.2,1593.6z"/>
	<path fill="#0B0709" d="M1067.8,1567.4h11l2.1,11c4.7-4.7,8.7-8.9,13.1-14l3.2,8.1l-3.1,20.4l-8.8,9.2c0-2.2-0.9-20.2-3.6-20.2
		c-0.6,0-1.1,0.7-1.3,1.8c-1.9,15-4.9,29.2-9.4,44.1l-14.4-5.2c3.4-14.7,5.8-27.6,5.8-42.2h-9l0.4-4.8L1067.8,1567.4z"/>
	<path fill="#0B0709" d="M1101.9,1554.7l1.4-5.8l20.2-7.7l10.8,5.5l-13.6,46.3c0,0.2,0.2,0.4,0.6,0.4c1.4,0,4.9-1.3,8.8-5.2
		c6.3-6.3,8.7-14.4,9.4-21.8l15,9.2c-2.9,9.4-9.7,17.6-18.2,20.4c5.4,5.4,8.7,10.3,12.2,17l-8.1,16.1c-4.2-7.6-6.9-11.9-12.4-17.2
		c-4.2-4.3-8.2-6.8-10-6.8c-0.5,0-0.8,0.1-0.9,0.5l-6.7,23l-13.7-6c7.4-22.9,12.9-45.4,16.1-67.8L1101.9,1554.7L1101.9,1554.7z"/>
	<path fill="#0B0709" d="M1170.8,1616.7c0,4.2-3.4,7.6-7.6,7.6s-7.6-3.4-7.6-7.6s3.4-7.6,7.6-7.6S1170.8,1612.5,1170.8,1616.7z"/>
</g>
<g enable-background="new    ">
	<path fill="#0B0709" d="M491.4,1760.1c1.5,4,3.9,8.1,5.4,8.1c0.9,0,1.6-3.1,2.7-9.5c2.6-14.2,5.9-38.7,6.9-61.1h19.5
		c-5.2,38-13.4,60.4-17.1,74.4l-19.8,7.3c-2.7-4.5-2.7-7.4-2.7-16.9L491.4,1760.1z M523.8,1678.8c0,4.2-3.5,7.7-7.7,7.7
		s-7.7-3.5-7.7-7.7s3.5-7.7,7.7-7.7S523.8,1674.6,523.8,1678.8z"/>
	<path fill="#0B0709" d="M591.1,1697.6l-9,39.5c-0.1,0.5-0.6,2.6,0.6,2.6c0.8,0,2.2-1.1,3.6-2.8l5.6-6.9l5.5,3.3l-16.7,25.2
		l-20.9-5.6c1.5-4.3,2.7-8.9,2.7-10.4c0-0.7-0.1-0.9-0.4-0.9c-0.4,0-0.9,0.7-1.5,1.5l-11.4,14.4l-16.8-5.2c-0.2-0.7-0.2-1.5-0.2-2.5
		c0-23.8,6-34.3,17.2-52.2h15c-11.1,19.8-12.7,28.5-12.7,36.7c0,2.1,0.1,4.1,1.9,4.1c3.2,0,10.6-11,14.8-20.9
		c2.9-6.8,4.5-12.4,6.2-19.9L591.1,1697.6L591.1,1697.6z"/>
	<path fill="#0B0709" d="M599.4,1710.2l0.5-4.1l13.8-8.6h13.5l-0.5,8.8c0,0.7,0.1,1.2,0.6,1.2s1.1-0.4,1.6-1.1l7.6-10.2l14.4,4.2
		c0.2,5.7,0.5,11.6,0.5,17.4c0,11.6-5.3,23.5-8.6,34l-15.4,5.8c5.4-15.5,6.1-20.7,6.1-30.5c0-6.9-0.2-12.7-1.4-12.7
		c-2.9,0-11.1,16.4-14.9,29.1l-4.1,13.6l-13-6.6c2.8-13.8,6.1-27.3,9.3-40.4L599.4,1710.2L599.4,1710.2z"/>
	<path fill="#0B0709" d="M698.4,1704.7c0.4,2,0.6,4,0.6,5.4c0,11.7-11.1,18.4-27.3,24.1c0.4,5.6,0.9,9,2.3,9
		c1.5,0,10.8-6.2,18.3-12.8l4,4l-17,23.4l-23.6-6.3c-0.1-3.6,0.1-7.6,0.1-13.6c0-17,8.6-33.7,20.7-41.2L698.4,1704.7z M670.8,1724.3
		c0,3.2,0.2,3.8,0.8,3.8c1.4,0,10.8-5.2,10.8-16.2c0-4.1-2-8.6-3.6-8.6C677.1,1703.3,670.8,1715.3,670.8,1724.3z"/>
	<path fill="#0B0709" d="M723.4,1744.4h12.4l11-51.7l-10.6,4.9l-4.3-6.3l24.9-19.4h8.6l-12.4,71.9h17.1l-10,10.3h-40.2L723.4,1744.4
		z"/>
	<path fill="#0B0709" d="M775.5,1759.6c5.2-8.7,9.5-19.6,12.2-28.2l7.5,5l-14.7,25.6L775.5,1759.6z"/>
	<path fill="#0B0709" d="M831.7,1673.8c3.3-1.2,7.6-2.3,10.7-2.3c7.7,0,19.5,6.3,19.5,21.1c0,6.3-1.8,14.1-14.8,27.1
		c-19,19-20.4,19.2-20.4,20.9c0,0.8,0.6,1.3,2.8,1.3H859l-3.2,12.3h-50.2v-0.9c9.5-9,14.7-15.1,22.5-24.5
		c12-13.8,17.6-22.1,17.6-29.6c0-6-3.8-9.7-8.7-9.7c-4.2,0-7.7,3.3-10.2,7.9l-5.3-3.3L831.7,1673.8z"/>
	<path fill="#0B0709" d="M924.5,1693.9c0,26.5-19.4,61-39.1,61c-10,0-17.7-8.2-17.7-19.5c0-16.5,15.7-64.7,39.5-64.7
		C910.5,1670.8,924.5,1673.3,924.5,1693.9z M907.5,1684.7c-2.6,0-8.3,8-14.4,19.4c-7.9,14.7-11.1,31-11.1,36.4
		c0,3.3,1.5,3.6,2.3,3.6c2.8,0,10.4-9.4,15.8-20.2c4.9-9.9,9.3-25.6,9.3-34.6C909.4,1686.5,909.4,1684.7,907.5,1684.7z"/>
	<path fill="#0B0709" d="M928.5,1744.4h12.4l11-51.7l-10.6,4.9l-4.3-6.3l24.9-19.4h8.6l-12.4,71.9h17.1l-10,10.3H925L928.5,1744.4z"
		/>
	<path fill="#0B0709" d="M1031.2,1684.7h-23.8l-2.6,10.7c14.5,0.2,24.1,9.6,24.1,21.1c0,17.1-15.6,29.1-37.9,37.7l-3.1-4.9
		c14.7-8,24.1-15.3,24.1-26.4c0-8.4-6.5-12.6-14.1-12.6c-1.3,0-2.7,0.1-3.8,0.2l10-38.6h33.1L1031.2,1684.7z"/>
	<path fill="#0B0709" d="M1055.5,1746.9c0,4.2-3.4,7.6-7.6,7.6s-7.6-3.4-7.6-7.6s3.4-7.6,7.6-7.6
		C1052,1739.2,1055.5,1742.6,1055.5,1746.9z"/>
</g>
<g enable-background="new    ">
	<path fill="#0B0709" d="M524.5,1882.6l0.5-10c0.1-0.5,0-0.8-0.5-0.8c-0.4,0-0.8,0.2-1.3,0.8l-11.1,13.1l-17.1-10.2
		c1.4-16.8,5.9-30,13.3-43.7c19.1-3.6,32-5.2,39.2-5.2c2.1,0,4.9,0.1,7,0.5c-6.3,16.9-11.5,39.1-13.1,59.3L524.5,1882.6z
		 M529.8,1853.9c3.6-7.2,5.6-14.3,5.6-18c0-0.6-0.6-1.5-1.3-1.5c-3.4,0-19.8,10.3-19.8,29.3c0,3.4,0.5,4.2,1.9,4.2
		C518.5,1868,525.8,1861.5,529.8,1853.9z"/>
	<path fill="#0B0709" d="M577,1879.9c2.5-16.5,6.5-32.4,10.9-47.5c8.1-3.3,16.2-5.2,24.5-5.2c1.5,0,5.3,0.2,8.2,0.7l3.8-15.1h-12.3
		l1.4-6l20.4-5.4l11.9,5.5c-8.1,18.1-16.3,39-22.3,62.1c0,0.2-0.1,0.6-0.1,0.7c0,0.7,0.4,0.9,0.8,0.9c0.6,0,1.4-0.5,2.3-1.5
		l9.4-10.8l5,2.8l-17,27.6l-19-5.5l3.3-15.5l-13.4,20.9L577,1879.9z M601.6,1847.5c-4.7,7.6-6.5,17-6.5,19.9c0,1.6,0.8,2.3,1.4,2.3
		c2.1,0,7.5-6,12.7-14c5.9-9.2,8.9-18,8.9-20.1c0-0.6-0.4-1.3-1.4-1.3C615.2,1834.5,607.7,1837.4,601.6,1847.5z"/>
	<path fill="#0B0709" d="M673.9,1882.6l0.5-10c0.1-0.5,0-0.8-0.5-0.8c-0.4,0-0.8,0.2-1.3,0.8l-11.1,13.1l-17.1-10.2
		c1.4-16.8,5.9-30,13.3-43.7c19.1-3.6,32-5.2,39.2-5.2c2.1,0,4.9,0.1,7,0.5c-6.3,16.9-11.5,39.1-13.1,59.3L673.9,1882.6z
		 M679.2,1853.9c3.6-7.2,5.6-14.3,5.6-18c0-0.6-0.6-1.5-1.3-1.5c-3.4,0-19.8,10.3-19.8,29.3c0,3.4,0.5,4.2,1.9,4.2
		C667.9,1868,675.2,1861.5,679.2,1853.9z"/>
	<path fill="#0B0709" d="M719.8,1827.7h11l2.1,11c4.7-4.7,8.7-8.9,13.1-14l3.2,8.1l-3.1,20.4l-8.8,9.2c0-2.2-0.9-20.2-3.6-20.2
		c-0.6,0-1.1,0.7-1.3,1.8c-1.9,15-4.9,29.2-9.4,44.1l-14.4-5.2c3.4-14.7,5.7-27.6,5.7-42.2h-9l0.4-4.8L719.8,1827.7z"/>
	<path fill="#0B0709" d="M753.9,1814.9l1.4-5.8l20.2-7.7l10.8,5.5l-13.6,46.3c0,0.2,0.2,0.4,0.6,0.4c1.4,0,4.9-1.3,8.8-5.2
		c6.3-6.3,8.7-14.4,9.4-21.8l15,9.2c-2.9,9.4-9.7,17.6-18.2,20.4c5.4,5.4,8.7,10.3,12.2,17l-8.1,16.1c-4.2-7.6-6.9-11.9-12.4-17.2
		c-4.2-4.3-8.2-6.8-10-6.8c-0.5,0-0.8,0.1-0.9,0.5l-6.7,23l-13.7-6c7.4-22.9,12.9-45.4,16.1-67.8L753.9,1814.9L753.9,1814.9z"/>
	<path fill="#0B0709" d="M862.1,1827.4c14.8,0,22.4,7.4,22.4,16.4c0,9.5-7.7,22.4-20.9,40.5h-16.1l-4.1,16.7h18.3l-8.6,8h-32.4
		l1.8-7.9h6.5l14-64.7c-2.7,0.5-6,1.4-8.7,2.5l-2.5-4.9c4.1-2.2,7.4-3.5,12.7-4.8l2-9.5c6.5,0,12,0,17.7-0.5L862.1,1827.4z
		 M850.6,1872.9c2.3,1.9,4.8,3.9,6.9,3.9c4.5,0,8.7-18.3,8.7-23.9c0-5.9-4.2-13.4-6.1-13.4c-0.5,0-1.2,0.5-1.3,1.1L850.6,1872.9z"/>
	<path fill="#0B0709" d="M892.6,1814.4l1.1-5.5l18.5-7.4l11.3,6c-6.9,19.7-12.9,39-16.8,59.1c-0.1,0.5-0.1,0.9-0.1,1.3
		c0,0.7,0.4,1.1,0.7,1.1c2,0,9.6-8.8,11.4-11l6.1,3.3l-20.8,27.5l-15.3-6.6c4.2-23.8,8-45.3,14.5-67.7h-10.6V1814.4z"/>
	<path fill="#0B0709" d="M956.5,1882.6l0.5-10c0.1-0.5,0-0.8-0.5-0.8c-0.4,0-0.8,0.2-1.3,0.8l-11.1,13.1l-17.1-10.2
		c1.4-16.8,5.9-30,13.3-43.7c19.1-3.6,32-5.2,39.2-5.2c2.1,0,4.9,0.1,7,0.5c-6.3,16.9-11.5,39.1-13.1,59.3L956.5,1882.6z
		 M961.8,1853.9c3.6-7.2,5.6-14.3,5.6-18c0-0.6-0.6-1.5-1.3-1.5c-3.4,0-19.8,10.3-19.8,29.3c0,3.4,0.5,4.2,1.9,4.2
		C950.6,1868,957.8,1861.5,961.8,1853.9z"/>
	<path fill="#0B0709" d="M993,1882.4c-2.9-6.1-2.9-13.4-2.9-16.7c0-17.6,9.6-29.5,29.1-38.7l10.8,8.1c-17.7,7.4-21.9,19.2-21.9,26.2
		c0,4.3,1.9,10.1,5,10.1c2.8,0,7.9-6.8,11.3-11.9l5.2,3.3l-12.9,26.5L993,1882.4z"/>
	<path fill="#0B0709" d="M1074.6,1834.9c0.4,2,0.6,4,0.6,5.4c0,11.7-11.1,18.4-27.3,24.1c0.4,5.6,0.9,9,2.3,9
		c1.5,0,10.8-6.2,18.3-12.8l4,4l-17,23.4l-23.6-6.3c-0.1-3.6,0.1-7.6,0.1-13.6c0-17,8.6-33.7,20.7-41.2L1074.6,1834.9z M1047,1854.5
		c0,3.2,0.2,3.8,0.8,3.8c1.4,0,10.8-5.2,10.8-16.2c0-4.1-2-8.6-3.6-8.6C1053.2,1833.5,1047,1845.4,1047,1854.5z"/>
	<path fill="#0B0709" d="M1084.9,1877c0,4.2-3.4,7.6-7.6,7.6s-7.6-3.4-7.6-7.6s3.4-7.6,7.6-7.6S1084.9,1872.8,1084.9,1877z"/>
</g>
<linearGradient id="SVGID_10_" gradientUnits="userSpaceOnUse" x1="160.8528" y1="466.3834" x2="174.5001" y2="466.3834" gradientTransform="matrix(2.6667 0 0 2.6667 0 143.9139)">
	<stop  offset="0" style="stop-color:#000000"/>
	<stop  offset="1" style="stop-color:#FBFFFF"/>
</linearGradient>
<path fill="none" stroke="url(#SVGID_10_)" stroke-width="5" stroke-miterlimit="10" d="M445.9,1882.7c5.1-11.5,11.2-29.3,11.5-52
	c0.5-36.8-15.5-47.7-16.5-85.6c-1.3-41.9,17.3-52.3,16.5-94.7c-0.8-44.8-21.9-53.3-21.9-94.7c0.3-41.1,21.3-49.3,21.9-91.7
	s-20.5-57.6-17.9-94.7c2.4-32.3,19.2-36.5,19.2-64c0-30.1-19.7-37.6-20.5-70.1c-0.5-29.6,15.7-38.4,15.5-70.1
	c-0.3-30.9-15.7-38.1-15.5-67.2c0.3-29.9,16.8-34.4,17.9-64c1.3-35.2-21.1-52-20.5-88.5c0.3-23.2,9.6-41.1,16.5-52"/>
</svg>
