<?xml version="1.0" encoding="utf-8"?>
<!-- Generator: Adobe Illustrator 18.1.1, SVG Export Plug-In . SVG Version: 6.00 Build 0)  -->
<svg version="1.1" id="Layer_1" xmlns="http://www.w3.org/2000/svg" xmlns:xlink="http://www.w3.org/1999/xlink" x="0px" y="0px"
	 viewBox="8.7 627.2 992.6 129.6" enable-background="new 8.7 627.2 992.6 129.6" xml:space="preserve">
<g>
	<path d="M52.3,747l0.7-14.7c0.2-0.7,0-1.2-0.7-1.2c-0.5,0-1.2,0.3-1.9,1.2L34,751.7l-25.3-15c2-24.6,8.6-44.2,19.6-64.3
		c28.2-5.4,47.1-7.6,57.7-7.6c3,0,7.3,0.2,10.3,0.7C87,690.3,79.4,723,76.9,752.7L52.3,747z M60,704.6c5.4-10.5,8.3-21.1,8.3-26.5
		c0-0.8-0.8-2.2-1.9-2.2c-5.1,0-29.2,15.2-29.2,43.2c0,5.1,0.7,6.2,2.7,6.2C43.5,725.4,54.1,715.9,60,704.6z"/>
	<path d="M107.9,684.9l0.7-6.1l20.4-12.7h19.9l-0.7,13c0,1,0.2,1.7,0.8,1.7s1.5-0.5,2.4-1.5l11.3-15l21.3,6.2
		c0.3,8.4,0.7,17,0.7,25.5c0,17-7.8,34.6-12.7,50.1l-22.6,8.4c7.9-22.8,8.9-30.4,8.9-44.9c0-10.1-0.3-18.7-2-18.7
		c-4.4,0-16.4,24.1-21.9,42.8l-6.2,20.1l-19.2-9.6c4.2-20.4,9.1-40.3,13.8-59.4h-14.9V684.9z"/>
	<path d="M276.6,666.2l-12.1,59.2c-0.3,1.3-0.7,4.4,1,4.4c3,0,11.6-12.5,14.5-16.5l7.8,4.4l-24.6,39l-28-15l18.9-75.4
		C254,666.2,276.6,666.2,276.6,666.2z M280.5,638.5c0,6.1-5.1,11-11,11c-6.2,0-11.3-5.1-11.3-11c0-6.2,5.1-11.3,11.3-11.3
		C275.4,627.4,280.5,632.4,280.5,638.5z"/>
	<path d="M296.9,684.9l0.7-6.1l20.4-12.7h19.9l-0.7,13c0,1,0.2,1.7,0.8,1.7s1.5-0.5,2.4-1.5l11.3-15l21.3,6.2
		c0.3,8.4,0.7,17,0.7,25.5c0,17-7.8,34.6-12.7,50.1l-22.6,8.4c7.9-22.8,8.9-30.4,8.9-44.9c0-10.1-0.3-18.7-2-18.7
		c-4.4,0-16.4,24.1-21.9,42.8l-6.1,20.1l-19.2-9.6c4.2-20.4,8.9-40.1,13.7-59.4L296.9,684.9L296.9,684.9z"/>
	<path d="M426.9,666.2l-10.1,66.6c-0.3,2,0.2,4.7,2.5,4.7c2.5,0,24-8.9,27.8-35.4c-6.7-2.4-9.4-8.8-9.4-14.8c0-6.7,3.4-14,6.9-21.1
		h11.5c5.1,5.6,6.7,14.5,6.7,20.6c0,20.7-14.5,44.5-48.6,68l-25.5-10l11.5-59.7h-15.7l0.8-5.7l20.9-13.2
		C406.3,666.2,426.9,666.2,426.9,666.2z"/>
	<path d="M515.6,666.2l-12.1,59.2c-0.3,1.3-0.7,4.4,1,4.4c3,0,11.6-12.5,14.5-16.5l7.8,4.4l-24.6,39.1l-28-15l18.9-75.4h22.6
		L515.6,666.2L515.6,666.2z M519.7,638.5c0,6.1-5.1,11-11,11c-6.2,0-11.3-5.1-11.3-11c0-6.2,5.1-11.3,11.3-11.3
		C514.6,627.4,519.7,632.4,519.7,638.5z"/>
	<path d="M539.7,744.8c2.4-20.2,6.2-43,11-63.6h-9.4l1.5-10c10.6-2.5,15.7-9.8,20.9-20.4h16.2l-2.9,15.3h22.6l-9.1,14.8h-15.9
		c-4,23.6-7.3,47.7-7.3,49.3s0.5,2,1.2,2c0.8,0,6.1-1.7,15.9-17.9l7.8,3.4l-17,37.3L539.7,744.8z"/>
	<path d="M651.2,747l0.7-14.7c0.2-0.7,0-1.2-0.7-1.2c-0.5,0-1.2,0.3-1.9,1.2L633,751.7l-25.1-15c2-24.6,8.6-44.2,19.6-64.3
		c28.2-5.4,47.1-7.6,57.7-7.6c3,0,7.3,0.2,10.3,0.7c-9.3,24.8-16.9,57.5-19.4,87.2L651.2,747z M659,704.6
		c5.4-10.5,8.3-21.1,8.3-26.5c0-0.8-0.8-2.2-1.9-2.2c-5.1,0-29.2,15.2-29.2,43.2c0,5.1,0.7,6.2,2.7,6.2
		C642.5,725.4,653.3,715.9,659,704.6z"/>
	<path d="M710.6,744.8c2.4-20.2,6.2-43,11-63.6h-9.4l1.5-10c10.6-2.5,15.7-9.8,20.9-20.4h16.2l-2.9,15.3h22.6l-9.1,14.8h-15.9
		c-4,23.6-7.3,47.7-7.3,49.3s0.5,2,1.2,2c0.8,0,6.1-1.7,15.9-17.9l7.8,3.4l-17,37.3L710.6,744.8z"/>
	<path d="M819.6,666.2l-12.1,59.2c-0.3,1.3-0.7,4.4,1,4.4c3,0,11.6-12.5,14.5-16.5l7.8,4.4l-24.6,39.1l-28-15l18.9-75.4h22.6v-0.2
		H819.6z M823.6,638.5c0,6.1-5.1,11-11,11c-6.2,0-11.3-5.1-11.3-11c0-6.2,5.1-11.3,11.3-11.3C818.6,627.4,823.6,632.4,823.6,638.5z"
		/>
	<path d="M845,747.8c-3.4-10-3.9-16.7-3.9-21.3c0-11.6,0-39,34.9-60.9l33.1,6.2c1,5.4,1.7,11.8,1.7,15.9c0,28.5-11.8,50.3-37.1,65.4
		L845,747.8z M890.6,686.2c0-6.4-0.8-8.9-2.4-8.9c-3.5,0-25,22.3-25,52.6c0,5.4,0.3,6.7,2.2,6.7C868,736.7,890.6,715.1,890.6,686.2z
		"/>
	<path d="M924.5,684.9l0.7-6.1l20.4-12.7h19.9l-0.7,13c0,1,0.2,1.7,0.8,1.7c0.7,0,1.5-0.5,2.4-1.5l11.3-15l21.3,6.2
		c0.3,8.4,0.7,17,0.7,25.5c0,17-7.8,34.6-12.7,50.1l-22.6,8.4c7.9-22.8,8.9-30.4,8.9-44.9c0-10.1-0.3-18.7-2-18.7
		c-4.4,0-16.4,24.1-21.9,42.8l-6.1,20.1l-19.2-9.6c4.2-20.4,8.9-40.1,13.7-59.4L924.5,684.9L924.5,684.9z"/>
</g>
</svg>
