<?xml version="1.0" encoding="utf-8"?>
<!-- Generator: Adobe Illustrator 18.1.1, SVG Export Plug-In . SVG Version: 6.00 Build 0)  -->
<svg version="1.1" id="Layer_1" xmlns="http://www.w3.org/2000/svg" xmlns:xlink="http://www.w3.org/1999/xlink" x="0px" y="0px"
	 viewBox="296 364 1128 916" enable-background="new 296 364 1128 916" xml:space="preserve">
<g>
	
		<linearGradient id="SVGID_1_" gradientUnits="userSpaceOnUse" x1="232.0974" y1="1885.2791" x2="868.1791" y2="1885.2791" gradientTransform="matrix(1.6875 0 0 1.6875 0 -2267.9136)">
		<stop  offset="0" style="stop-color:#100605"/>
		<stop  offset="1" style="stop-color:#696272"/>
	</linearGradient>
	<path fill="url(#SVGID_1_)" d="M1009.6,780c-19.5,44.8,88.5,251.7,40.3,390.9c-17.9,51.5-109.1,51.5-199.2,51.5
		c-112.3,0-177.1-23.7-204.3-74.1c-13.1-24-2.1-112,16-197.9c16.5-77.1,48.5-171.5,39.7-196.3c-8-22.1-213.1,53.3-258.1,81.1
		c-33.6,20.8-41.1,51.2-57.1,35.7c-15.2-14.4,25.1-29.3,22.9-40.5c-2.9-17.1-54.1,24.8-66.4-6.1c-4.8-11.7,54.1-9.1,51.7-21.6
		c-0.8-4.8-60.5-2.4-60.8-14.9c-0.8-21.3,53.6-3.5,54.9-22.1c0.5-6.1-54.9-9.6-55.7-17.3c-2.9-30.7,46.1-8,70.7-14.1
		c7.5-1.9-28.3-36-8-42.7c34.9-11.2,10.4,38.9,38.4,39.5c75.7,1.6,277.3-125.3,296.5-125.3c16.8,0,189.9-5.9,252.5,9.1
		c72.8,17.3,238.9,131.2,318.7,133.9c13.6,0.5,14.7-40.5,22.7-40.8c28.3-0.5,6.7,37.1,16.5,38.9c29.9,5.3,60.8-14.1,63.7,13.6
		c2.1,19.2-56.5-2.7-57.6,15.2c-0.5,8.5,66.1,9.1,56.8,34.7c-4,10.9-57.3-10.4-60.3-3.5c-8.3,20,69.1,17.6,62.1,39.2
		c-4,12.5-66.4-13.9-66.9-5.9c-0.8,14.9,26.1,12.5,23.5,29.1c-3.5,20.8-50.4-22.7-81.6-29.9C1256,833.9,1021.6,752.3,1009.6,780z"/>
	
		<linearGradient id="SVGID_2_" gradientUnits="userSpaceOnUse" x1="418.9212" y1="1688.397" x2="618.3524" y2="1688.397" gradientTransform="matrix(1.6875 0 0 1.6875 0 -2267.9136)">
		<stop  offset="0" style="stop-color:#100605"/>
		<stop  offset="1" style="stop-color:#696272"/>
	</linearGradient>
	<path fill="url(#SVGID_2_)" d="M1025.3,569.6c0,93.1-75.2,191.5-168.3,191.5s-168.3-98.7-168.3-191.5S764,401.3,857.1,401.3
		S1025.3,476.8,1025.3,569.6z"/>
	
		<linearGradient id="SVGID_3_" gradientUnits="userSpaceOnUse" x1="857.2805" y1="1718.5802" x2="931.3709" y2="1718.5802" gradientTransform="matrix(-1.6875 0 0 1.6875 2426.1501 -2267.9136)">
		<stop  offset="0" style="stop-color:#100605"/>
		<stop  offset="1" style="stop-color:#696272"/>
	</linearGradient>
	<path fill="url(#SVGID_3_)" d="M861.3,649.6c0,34.7,28,62.4,62.4,62.4c34.7,0,62.4-28,62.4-62.4s-51.2-97.3-85.6-97.3
		C865.9,552.3,861.3,614.9,861.3,649.6z"/>
	
		<linearGradient id="SVGID_4_" gradientUnits="userSpaceOnUse" x1="408.6369" y1="1718.5802" x2="482.7273" y2="1718.5802" gradientTransform="matrix(1.6875 0 0 1.6875 47.2501 -2267.9136)">
		<stop  offset="0" style="stop-color:#100605"/>
		<stop  offset="1" style="stop-color:#696272"/>
	</linearGradient>
	<path fill="url(#SVGID_4_)" d="M855.2,649.6c0,34.7-28,62.4-62.4,62.4c-34.7,0-62.4-28-62.4-62.4s51.2-97.3,85.6-97.3
		C850.1,552.3,855.2,614.9,855.2,649.6z"/>
	
		<linearGradient id="SVGID_5_" gradientUnits="userSpaceOnUse" x1="380.2808" y1="1764.8319" x2="419.0521" y2="1764.8319" gradientTransform="matrix(1.616 -0.4859 0.4859 1.616 -800.171 -2100.9673)">
		<stop  offset="0" style="stop-color:#100605"/>
		<stop  offset="1" style="stop-color:#696272"/>
	</linearGradient>
	<path fill="url(#SVGID_5_)" d="M670.7,574.9c4.3,12.5,12.8,37.3,30.1,30.9c17.3-6.4,33.6-69.6,21.9-80
		c-10.7-9.3-43.5-14.9-52.5-6.1C661.9,527.7,670.7,574.9,670.7,574.9z"/>
	
		<linearGradient id="SVGID_6_" gradientUnits="userSpaceOnUse" x1="673.7371" y1="1858.006" x2="712.5082" y2="1858.006" gradientTransform="matrix(-1.616 -0.4859 -0.4859 1.616 3032.6956 -2100.9673)">
		<stop  offset="0" style="stop-color:#100605"/>
		<stop  offset="1" style="stop-color:#696272"/>
	</linearGradient>
	<path fill="url(#SVGID_6_)" d="M1042.4,582.9c-4.3,12.5-12.8,37.3-30.1,30.9c-17.3-6.4-33.6-69.6-21.9-80
		c10.7-9.3,43.5-14.9,52.5-6.1C1051.2,535.5,1042.4,582.9,1042.4,582.9z"/>
	
		<linearGradient id="SVGID_7_" gradientUnits="userSpaceOnUse" x1="442.6359" y1="1734.146" x2="494.7851" y2="1734.146" gradientTransform="matrix(1.6875 0 0 1.6875 0 -2267.9136)">
		<stop  offset="0" style="stop-color:#FDC60B"/>
		<stop  offset="0.2509" style="stop-color:#FBD145"/>
		<stop  offset="0.7413" style="stop-color:#FFF23A"/>
		<stop  offset="0.7992" style="stop-color:#FFF022"/>
		<stop  offset="0.8634" style="stop-color:#FFEF0F"/>
		<stop  offset="0.9296" style="stop-color:#FFEE04"/>
		<stop  offset="1" style="stop-color:#FFEE00"/>
	</linearGradient>
	<circle fill="url(#SVGID_7_)" cx="790.9" cy="658.4" r="44"/>
	
		<linearGradient id="SVGID_8_" gradientUnits="userSpaceOnUse" x1="521.3337" y1="1734.146" x2="573.4829" y2="1734.146" gradientTransform="matrix(1.6875 0 0 1.6875 0 -2267.9136)">
		<stop  offset="0" style="stop-color:#FDC60B"/>
		<stop  offset="0.2509" style="stop-color:#FBD145"/>
		<stop  offset="0.7413" style="stop-color:#FFF23A"/>
		<stop  offset="0.7992" style="stop-color:#FFF022"/>
		<stop  offset="0.8634" style="stop-color:#FFEF0F"/>
		<stop  offset="0.9296" style="stop-color:#FFEE04"/>
		<stop  offset="1" style="stop-color:#FFEE00"/>
	</linearGradient>
	<circle fill="url(#SVGID_8_)" cx="923.7" cy="658.4" r="44"/>
	<circle fill="#231F20" cx="920.3" cy="678.1" r="21.9"/>
	<circle fill="#231F20" cx="790.9" cy="678.1" r="21.9"/>
</g>
<g id="MDBmvc.tif">
	
		<image overflow="visible" enable-background="new    " width="600" height="859" id="Layer_0_1_" xlink:href="../nox/svgs/55A53CEB9C8C77B9.png"  transform="matrix(1.1627 0 0 1.1627 -1383.4536 897.3994)">
	</image>
</g>
</svg>
