<?xml version="1.0" encoding="utf-8"?>
<!-- Generator: Adobe Illustrator 18.1.1, SVG Export Plug-In . SVG Version: 6.00 Build 0)  -->
<svg version="1.1" id="Layer_1" xmlns="http://www.w3.org/2000/svg" xmlns:xlink="http://www.w3.org/1999/xlink" x="0px" y="0px"
	 viewBox="0 332.7 1020 112.9" enable-background="new 0 332.7 1020 112.9" xml:space="preserve">
<g enable-background="new    ">
	<path d="M8.3,416.9c-2.1-6-2.3-10-2.3-12.6c0-6.9,0-23.2,20.7-36.2l19.7,3.7c0.6,3.2,1,7,1,9.4c0,16.9-7,29.9-22.1,38.9L8.3,416.9z
		 M35.4,380.3c0-3.8-0.5-5.3-1.4-5.3c-2.2,0-14.9,13.2-14.9,31.3c0,3.2,0.2,4,1.3,4C22,410.2,35.4,397.4,35.4,380.3z"/>
	<path d="M55.6,379.5l0.4-3.6l12.1-7.5H80l-0.4,7.7c0,0.6,0.1,1,0.5,1c0.4,0,0.9-0.3,1.4-0.9l6.7-8.9l12.6,3.7
		c0.2,5,0.4,10.2,0.4,15.2c0,10.2-4.6,20.5-7.5,29.8l-13.4,5c4.7-13.5,5.3-18.1,5.3-26.7c0-6.1-0.2-11.1-1.2-11.1
		c-2.6,0-9.8,14.4-13,25.5l-3.6,11.9l-11.4-5.7c2.5-12.1,5.3-23.9,8.1-35.3H55.6z"/>
	<path d="M135.4,356.8l0.9-4.8l16.2-6.5l9.9,5.2c-6.1,17.2-11.3,34.1-14.7,51.7c-0.1,0.4-0.1,0.8-0.1,1.1c0,0.6,0.3,0.9,0.6,0.9
		c1.7,0,8.4-7.7,10-9.6l5.3,2.9l-18.2,24L132,416c3.7-20.8,7-39.6,12.7-59.2H135.4z"/>
	<path d="M173.1,416.9c-2.1-6-2.3-10-2.3-12.6c0-6.9,0-23.2,20.7-36.2l19.7,3.7c0.6,3.2,1,7,1,9.4c0,16.9-7,29.9-22.1,38.9
		L173.1,416.9z M200.2,380.3c0-3.8-0.5-5.3-1.4-5.3c-2.2,0-14.9,13.2-14.9,31.3c0,3.2,0.2,4,1.3,4
		C186.8,410.2,200.2,397.4,200.2,380.3z"/>
	<path d="M244.3,368.4l-6.1,39.6c-0.2,1.2,0.1,2.8,1.5,2.8c1.5,0,14.3-5.3,16.5-21c-4-1.4-5.6-5.2-5.6-8.8c0-4,2.1-8.3,4.1-12.5h6.8
		c3,3.3,4,8.6,4,12.2c0,12.3-8.6,26.5-28.8,40.4l-15.2-6l6.8-35.5h-9.1l0.5-3.4l12.4-7.8H244.3z"/>
	<path d="M297,368.4l-7.2,35.2c-0.2,0.8-0.4,2.6,0.6,2.6c1.8,0,6.9-7.4,8.6-9.9l4.6,2.6L289,422.2l-16.6-8.9l11.2-44.8H297z
		 M299.4,352c0,3.6-3,6.6-6.6,6.6c-3.7,0-6.7-3-6.7-6.6c0-3.7,3-6.7,6.7-6.7C296.4,345.3,299.4,348.3,299.4,352z"/>
	<path d="M309.1,379.5l0.4-3.6l12.1-7.5h11.8l-0.4,7.7c0,0.6,0.1,1,0.5,1c0.4,0,0.9-0.3,1.4-0.9l6.7-8.9l12.6,3.7
		c0.2,5,0.4,10.2,0.4,15.2c0,10.2-4.6,20.5-7.5,29.8l-13.4,5c4.7-13.5,5.3-18.1,5.3-26.7c0-6.1-0.2-11.1-1.2-11.1
		c-2.6,0-9.8,14.4-13,25.5l-3.6,11.9l-11.4-5.7c2.5-12.1,5.3-23.9,8.1-35.3H309.1z"/>
	<path d="M404.8,383.3c-1.4,6.6-3.1,11.1-5.4,17.2l-13,4.2c1.5,2.7,4.9,4.1,8.5,4.1c2.5,0,5.4-0.8,7.9-2l10.6,6.4
		c-7.4,19.8-19.3,26.4-35.4,26.4c-14.5,0-18-9.6-18-16.2c0-8.3,4.3-15,14.6-20.3c-6-1.5-8.7-6.2-8.7-10.8c0-7.5,5.8-15.8,11.4-20.9
		l28.8-6c0.4,5.6,3.4,9.6,8.8,11.9l-1.8,7.6L404.8,383.3z M373.4,413c-1.4,0-3,4.8-3,8.9c0,8,6.1,12.5,8.5,12.5c2.1,0,6-2.4,9.3-5.8
		c5.3-5.3,8.6-12.2,8.6-14.2c0-0.4-0.2-0.6-0.4-0.6c-1.6,0-6.2,3.7-12.5,3.7C376.8,417.5,374.8,413,373.4,413z M380.6,387.5
		c0,4.9,4.6,7.6,6.1,7.6c2.4,0,7-18.6,7-20.5c0-0.3-0.1-0.5-0.2-0.5C390.8,374,380.6,379.6,380.6,387.5z"/>
	<path d="M446.2,415.1c1.4-12,3.7-25.6,6.6-37.8h-5.6l0.9-6c6.4-1.5,9.3-5.9,12.4-12.1h9.6l-1.7,9.1h13.4l-5.4,8.8H467
		c-2.4,14.1-4.3,28.4-4.3,29.2c0,0.9,0.3,1.2,0.7,1.2c0.5,0,3.6-1,9.4-10.7l4.6,2.1l-10.2,22.2L446.2,415.1z"/>
	<path d="M489.5,351.4c6.5-1.8,12.4-3.6,18.4-6.2l7.9,5.4l-7.3,28.5l11.3-12.2l10.9,5c0.2,1.4,0.2,4.8,0.2,6.4
		c0,12.5-4.5,27.2-12.9,41.6l-11,5.6c6.3-17.2,6.3-29.4,6.3-37.5c0-2.1-0.1-2.7-1.1-2.7c-1.7,0-9.3,13.3-15.7,33.4l-10.5-3.7
		c6-19.4,10.8-39.1,11.9-59.3l-9.4,0.3L489.5,351.4z"/>
	<path d="M576.9,374.6c0.3,1.7,0.5,3.5,0.5,4.7c0,10.3-9.8,16.1-23.9,21c0.3,4.9,0.8,7.9,2.1,7.9c1.3,0,9.4-5.4,16-11.2l3.5,3.5
		L560.2,421l-20.6-5.5c-0.1-3.2,0.1-6.7,0.1-11.9c0-14.9,7.5-29.5,18.1-36L576.9,374.6z M552.8,391.8c0,2.8,0.2,3.3,0.7,3.3
		c1.2,0,9.4-4.5,9.4-14.2c0-3.6-1.7-7.5-3.2-7.5C558.2,373.4,552.8,383.9,552.8,391.8z"/>
	<path d="M606.1,414c2.2-14.5,5.6-28.3,9.5-41.6c7.1-2.9,14.2-4.5,21.5-4.5c1.3,0,4.6,0.2,7.2,0.6l3.3-13.2h-10.8l1.2-5.2l17.9-4.7
		l10.4,4.8c-7.1,15.8-14.3,34.1-19.5,54.3c0,0.2-0.1,0.5-0.1,0.6c0,0.6,0.3,0.8,0.7,0.8c0.5,0,1.2-0.4,2.1-1.3l8.2-9.4l4.4,2.5
		l-14.9,24.1l-16.6-4.8l2.9-13.5l-11.7,18.3L606.1,414z M627.7,385.7c-4.1,6.7-5.6,14.9-5.6,17.4c0,1.4,0.7,2.1,1.2,2.1
		c1.8,0,6.6-5.2,11.1-12.2c5.1-8,7.8-15.7,7.8-17.5c0-0.5-0.3-1.1-1.2-1.1C639.6,374.3,633,376.9,627.7,385.7z"/>
	<path d="M695.5,416.4l0.4-8.7c0.1-0.4,0-0.7-0.4-0.7c-0.3,0-0.7,0.2-1.1,0.7l-9.8,11.5l-15-8.9c1.2-14.7,5.1-26.3,11.6-38.2
		c16.7-3.2,28-4.5,34.3-4.5c1.8,0,4.3,0.1,6.2,0.4c-5.5,14.8-10.1,34.2-11.5,51.8L695.5,416.4z M700.2,391.3
		c3.2-6.3,4.9-12.5,4.9-15.7c0-0.5-0.5-1.3-1.1-1.3c-3,0-17.3,9-17.3,25.7c0,3,0.4,3.7,1.6,3.7C690.3,403.6,696.7,397.9,700.2,391.3
		z"/>
	<path d="M740.3,368.4h9.6l1.8,9.6c4.1-4.1,7.6-7.8,11.5-12.2l2.8,7.1l-2.7,17.9l-7.7,8c0-2-0.8-17.7-3.2-17.7
		c-0.5,0-0.9,0.6-1.1,1.5c-1.6,13.1-4.3,25.6-8.2,38.6l-12.6-4.5c3-12.8,5-24.1,5-36.9h-7.9l0.3-4.2L740.3,368.4z"/>
	<path d="M774.8,357.2l1.2-5l17.7-6.8l9.4,4.8l-11.9,40.5c0,0.2,0.2,0.3,0.5,0.3c1.2,0,4.3-1.1,7.7-4.5c5.5-5.5,7.6-12.6,8.2-19.1
		l13.1,8c-2.6,8.2-8.5,15.4-15.9,17.9c4.7,4.7,7.6,9,10.7,14.9l-7.1,14.1c-3.7-6.7-6.1-10.4-10.9-15.1c-3.7-3.8-7.2-6-8.7-6
		c-0.4,0-0.7,0.1-0.8,0.4l-5.8,20.1l-12-5.2c6.5-20,11.3-39.7,14.1-59.3H774.8z"/>
	<path d="M827,379.5l0.4-3.6l12.1-7.5h11.8l-0.4,7.7c0,0.6,0.1,1,0.5,1c0.4,0,0.9-0.3,1.4-0.9l6.7-8.9l12.6,3.7
		c0.2,5,0.4,10.2,0.4,15.2c0,10.2-4.6,20.5-7.5,29.8l-13.4,5c4.7-13.5,5.3-18.1,5.3-26.7c0-6.1-0.2-11.1-1.2-11.1
		c-2.6,0-9.8,14.4-13,25.5l-3.6,11.9l-11.4-5.7c2.5-12.1,5.3-23.9,8.1-35.3H827z"/>
	<path d="M918.3,374.6c0.3,1.7,0.5,3.5,0.5,4.7c0,10.3-9.8,16.1-23.9,21c0.3,4.9,0.8,7.9,2.1,7.9c1.3,0,9.4-5.4,16-11.2l3.5,3.5
		L901.5,421l-20.6-5.5c-0.1-3.2,0.1-6.7,0.1-11.9c0-14.9,7.5-29.5,18.1-36L918.3,374.6z M894.1,391.8c0,2.8,0.2,3.3,0.7,3.3
		c1.2,0,9.4-4.5,9.4-14.2c0-3.6-1.7-7.5-3.2-7.5C899.6,373.4,894.1,383.9,894.1,391.8z"/>
	<path d="M957.6,389.3c-2.1-3.6-4.3-7.3-6.5-10.3c-0.4-0.5-0.8-0.8-1.4-0.8c-0.7,0-1.3,0.6-1,2.2l5.2,32.1l-16.8,7.3
		c-9.3-2.8-11.9-10.1-11.8-18l5-2.9c0.1,6.3,5.5,10.2,8.5,10.2c1.1,0,1.2-1.2,1.2-2.2c0-8.5-8.1-12.5-8.1-20.7
		c0-10.7,9.2-16.7,27.5-18.7l3,9.1L957.6,389.3z"/>
	<path d="M1000.4,389.3c-2.1-3.6-4.3-7.3-6.5-10.3c-0.4-0.5-0.8-0.8-1.4-0.8c-0.7,0-1.3,0.6-1,2.2l5.2,32.1l-16.8,7.3
		c-9.3-2.8-11.9-10.1-11.8-18l5-2.9c0.1,6.3,5.5,10.2,8.5,10.2c1.1,0,1.2-1.2,1.2-2.2c0-8.5-8.1-12.5-8.1-20.7
		c0-10.7,9.2-16.7,27.5-18.7l3,9.1L1000.4,389.3z"/>
</g>
</svg>
