<?xml version="1.0" encoding="utf-8"?>
<!-- Generator: Adobe Illustrator 18.1.1, SVG Export Plug-In . SVG Version: 6.00 Build 0)  -->
<svg version="1.1" id="Layer_1" xmlns="http://www.w3.org/2000/svg" xmlns:xlink="http://www.w3.org/1999/xlink" x="0px" y="0px"
	 viewBox="0 324.2 1024 126.5" enable-background="new 0 324.2 1024 126.5" xml:space="preserve">
<g>
	<path d="M38.8,419.6l0.5-11.7c0.1-0.5,0-0.9-0.5-0.9c-0.4,0-0.9,0.3-1.5,0.9l-13,15.4l-20.1-12c1.6-19.7,6.8-35.2,15.6-51.2
		c22.4-4.3,37.5-6,45.9-6c2.4,0,5.8,0.1,8.2,0.5c-7.4,19.7-13.4,45.8-15.4,69.4L38.8,419.6z M45,385.9c4.3-8.3,6.6-16.8,6.6-21.1
		c0-0.7-0.7-1.7-1.5-1.7c-4,0-23.2,12.1-23.2,34.4c0,4,0.5,5,2.1,5C31.8,402.4,40.3,394.9,45,385.9z"/>
	<path d="M133.1,355.3h15l-0.3,9.8c-0.1,1.3,0.4,2.1,1.1,2.1c0.4,0,0.9-0.4,1.5-1.1l9.3-12l17.3,5l0.3,7.8c0,0.9,0.7,1.7,1.5,1.7
		c0.4,0,0.7-0.1,1.1-0.7l10.5-13.7l17.9,4.3c0,5.1,0.3,10.1,0.3,15.2c0,17.3-6.4,26.2-11.7,45.1l-17.2,5.1c5.2-18.5,6.8-23,6.8-35.4
		c0-9.4-0.1-11.8-1.7-11.8c-1.3,0-4.2,3.9-8.5,12.2c-3.6,6.7-6.2,16.7-10.1,31l-17.5,4.2c4.6-18.3,6.2-24.7,6.2-33.6
		c0-7.4-0.5-12.8-2.3-12.8c-1.3,0-3.2,3.2-8.3,12.9c-4.2,7.8-8.7,19.3-12.6,34.5l-15.8-7.7l10.2-47h-9.8l0.4-4.8L133.1,355.3z"/>
	<path d="M257,355.3h32.2l-8.6,7.7c-5.1,47.9-41.1,77.3-53.7,87.8l-13.8-8.3v-16l10.2-8.2c2.6,6.8,6.2,14.1,8.5,14.1
		c2.1,0,2.1-3.5,2.1-6c0-19.7-5.8-44.6-14.2-57.5l19.7-15.3c5.9,7.8,9,30.2,9,43.8c0,7-0.8,15.7-1.6,23.4v0.5c0,0.8,0.3,1.2,0.5,1.2
		c0.5,0,1.2-0.5,1.9-1.6c6-10.1,17.3-31.7,17.7-56h-11.7L257,355.3z"/>
	<path d="M329.4,383.3c-2.7-4.8-5.8-9.8-8.6-13.7c-0.5-0.7-1.1-1.1-1.9-1.1c-0.9,0-1.7,0.8-1.3,2.8l7,43l-22.6,9.8
		c-12.5-3.8-16-13.4-15.8-24l6.7-3.9c0.1,8.3,7.4,13.6,11.4,13.6c1.5,0,1.6-1.6,1.6-2.8c0-11.4-10.9-16.8-10.9-27.8
		c0-14.2,12.4-22.4,36.8-25l4,12.2L329.4,383.3z"/>
	<path d="M346.7,417.8c1.9-16.1,5-34.2,8.7-50.6h-7.5l1.2-7.9c8.5-2,12.5-7.8,16.7-16.2h12.9l-2.3,12.2h18l-7.3,11.8h-12.6
		c-3.2,18.8-5.8,38-5.8,39.2s0.4,1.6,0.9,1.6c0.7,0,4.8-1.3,12.6-14.2l6.2,2.7L374.9,426L346.7,417.8z"/>
	<path d="M451.4,363.7c0.4,2.3,0.7,4.7,0.7,6.3c0,13.7-13,21.6-32,28.2c0.4,6.6,1.1,10.6,2.7,10.6c1.7,0,12.6-7.3,21.5-15l4.7,4.7
		l-19.9,27.4l-27.7-7.5c-0.1-4.3,0.1-9,0.1-16c0-19.9,10.1-39.5,24.2-48.2L451.4,363.7z M419.2,386.7c0,3.8,0.3,4.4,0.9,4.4
		c1.6,0,12.6-6,12.6-18.9c0-4.8-2.3-10.1-4.3-10.1C426.5,362,419.2,376.1,419.2,386.7z"/>
	<path d="M476.8,355.3h12.9l2.4,12.9c5.5-5.5,10.2-10.5,15.4-16.4l3.8,9.5l-3.6,23.9L497.4,396c0-2.6-1.1-23.6-4.3-23.6
		c-0.7,0-1.2,0.8-1.5,2c-2.1,17.6-5.8,34.2-11,51.7l-16.9-6c4-17.2,6.7-32.2,6.7-49.4h-10.6l0.4-5.6L476.8,355.3z"/>
	<path d="M550.8,355.3l-9.7,47.1c-0.3,1.1-0.5,3.5,0.8,3.5c2.4,0,9.3-9.9,11.5-13.2l6.2,3.5l-19.5,31l-22.3-12l15-60
		C532.9,355.3,550.8,355.3,550.8,355.3z M554,333.2c0,4.8-4,8.7-8.7,8.7c-5,0-9-4-9-8.7c0-5,4-9,9-9C550,324.4,554,328.4,554,333.2z
		"/>
	<path d="M571.1,420.3c-2.7-7.9-3.1-13.3-3.1-16.9c0-9.3,0-31,27.8-48.5l26.3,5c0.8,4.3,1.3,9.4,1.3,12.6c0,22.7-9.4,40-29.5,52.1
		L571.1,420.3z M607.3,371.2c0-5.1-0.7-7.1-1.9-7.1c-2.8,0-19.9,17.7-19.9,41.9c0,4.3,0.3,5.4,1.7,5.4
		C589.3,411.4,607.3,394.2,607.3,371.2z"/>
	<path d="M704.4,355.3l-10.6,46.3c-0.1,0.5-0.7,3.1,0.7,3.1c0.9,0,2.6-1.2,4.3-3.4l6.6-8.1l6.4,3.9l-19.5,29.5l-24.4-6.6
		c1.7-5.1,3.2-10.5,3.2-12.2c0-0.8-0.1-1.1-0.4-1.1c-0.4,0-1.1,0.8-1.7,1.7l-13.3,16.9l-19.6-6c-0.3-0.8-0.3-1.7-0.3-2.8
		c0-27.9,7-40.1,20.1-61.1h17.6c-13,23.2-14.9,33.4-14.9,43c0,2.4,0.1,4.8,2.1,4.8c3.8,0,12.4-12.9,17.3-24.4
		c3.5-7.9,5.2-14.5,7.3-23.4h19.1V355.3z"/>
	<path d="M763.4,383.3c-2.7-4.8-5.8-9.8-8.6-13.7c-0.5-0.7-1.1-1.1-1.9-1.1c-0.9,0-1.7,0.8-1.3,2.8l7,43l-22.7,9.8
		c-12.5-3.8-16-13.4-15.8-24l6.7-3.9c0.1,8.3,7.4,13.6,11.4,13.6c1.5,0,1.6-1.6,1.6-2.8c0-11.4-10.9-16.8-10.9-27.8
		c0-14.2,12.4-22.4,36.8-25l4,12.2L763.4,383.3z"/>
	<path d="M809.6,415.7c3.9-27.7,9.1-51.8,15.3-77.1h-12.2l1.9-6.6l24.3-7.5l11.4,6.2c-11.7,29.4-13.6,39.2-13.6,39.7
		c0,0.7,0.3,0.9,0.5,0.9c0.4,0,0.9-0.3,1.5-0.9l15.2-15.7l22.8,6.4c-0.7,21.4-7.3,46.6-41.4,66.3L809.6,415.7z M848,393.7
		c5.2-7.9,7.7-20.3,7.7-23.2c0-1.7-0.3-2.7-1.3-2.7c-0.5,0-9,5.9-15.4,15c-7.4,10.7-11.3,22.3-11.3,25.8c0,0.9,0.1,1.9,1.3,1.9
		C830.8,410.5,841.5,403.3,848,393.7z"/>
	<path d="M890.5,420.3c-2.7-7.9-3.1-13.3-3.1-16.9c0-9.3,0-31,27.8-48.5l26.3,5c0.8,4.3,1.3,9.4,1.3,12.6c0,22.7-9.4,40-29.5,52.1
		L890.5,420.3z M926.8,371.2c0-5.1-0.7-7.1-1.9-7.1c-2.8,0-19.9,17.7-19.9,41.9c0,4.3,0.3,5.4,1.7,5.4
		C908.8,411.4,926.8,394.2,926.8,371.2z"/>
	<path d="M955,355.3h37.3l-10.9,6.7l3.4,10.5c0.7,2,0.7,2.8,2.3,2.8c2.3,0,9.3-8.5,14-20h16c-5.8,13.2-12.8,23.5-25.6,37.6
		c4.2,10.9,7.9,20.7,12.8,30.7l-24.4-3.1l-3.8-12.5l-15.4,12.9c-6.6,0.4-10.6,1.7-15.7,3.4l25.6-34l-7.3-24.7h-10.9L955,355.3z"/>
</g>
</svg>
