<?xml version="1.0" encoding="utf-8"?>
<!-- Generator: Adobe Illustrator 18.1.1, SVG Export Plug-In . SVG Version: 6.00 Build 0)  -->
<svg version="1.1" id="Layer_1" xmlns="http://www.w3.org/2000/svg" xmlns:xlink="http://www.w3.org/1999/xlink" x="0px" y="0px"
	 viewBox="4.2 965 1024 127.9" enable-background="new 4.2 965 1024 127.9" xml:space="preserve">
<g>
	<path d="M39.2,1061.4l0.5-11.8c0.1-0.5,0-0.9-0.5-0.9c-0.4,0-0.9,0.3-1.5,0.9l-13.1,15.6L4.2,1053c1.6-19.9,6.9-35.6,15.8-51.8
		c22.6-4.3,37.9-6.1,46.4-6.1c2.4,0,5.9,0.1,8.3,0.5c-7.5,19.9-13.5,46.3-15.6,70.2L39.2,1061.4z M45.4,1027.4
		c4.3-8.4,6.7-17,6.7-21.3c0-0.7-0.7-1.7-1.5-1.7c-4,0-23.5,12.2-23.5,34.8c0,4,0.5,5.1,2.1,5.1
		C32.1,1044.1,40.7,1036.5,45.4,1027.4z"/>
	<path d="M134.5,996.3h15.2l-0.3,9.9c-0.1,1.3,0.4,2.1,1.1,2.1c0.4,0,0.9-0.4,1.5-1.1l9.4-12.1l17.5,5.1l0.3,7.9
		c0,0.9,0.7,1.7,1.5,1.7c0.4,0,0.7-0.1,1.1-0.7l10.6-13.9l18.1,4.3c0,5.2,0.3,10.2,0.3,15.4c0,17.5-6.5,26.5-11.8,45.6l-17.4,5.2
		c5.3-18.7,6.9-23.3,6.9-35.8c0-9.5-0.1-11.9-1.7-11.9c-1.3,0-4.2,3.9-8.6,12.3c-3.6,6.8-6.3,16.9-10.2,31.3l-17.7,4.2
		c4.7-18.5,6.3-25,6.3-34c0-7.5-0.5-12.9-2.3-12.9c-1.3,0-3.2,3.2-8.4,13c-4.2,7.9-8.8,19.5-12.7,34.9l-16-7.8l10.3-47.5h-9.9
		l0.4-4.9L134.5,996.3z"/>
	<path d="M259.8,996.3h32.6l-8.7,7.8c-5.2,48.4-41.6,78.1-54.3,88.8l-14-8.4v-16.2l10.3-8.3c2.6,6.9,6.3,14.3,8.6,14.3
		c2.1,0,2.1-3.5,2.1-6.1c0-19.9-5.9-45.1-14.4-58.1l19.9-15.5c6,7.9,9.1,30.5,9.1,44.3c0,7.1-0.8,15.9-1.6,23.7v0.5
		c0,0.8,0.3,1.2,0.5,1.2c0.5,0,1.2-0.5,1.9-1.6c6.1-10.2,17.5-32,17.9-56.6H258L259.8,996.3z"/>
	<path d="M333,1024.7c-2.7-4.9-5.9-9.9-8.7-13.9c-0.5-0.7-1.1-1.1-1.9-1.1c-0.9,0-1.7,0.8-1.3,2.8l7.1,43.5l-22.8,9.9
		c-12.6-3.8-16.2-13.5-16-24.3l6.8-3.9c0.1,8.4,7.5,13.7,11.5,13.7c1.5,0,1.6-1.6,1.6-2.8c0-11.5-11-17-11-28.1
		c0-14.4,12.5-22.6,37.2-25.3l4,12.3L333,1024.7z"/>
	<path d="M350.5,1059.5c1.9-16.3,5.1-34.6,8.8-51.2h-7.6l1.2-8c8.6-2,12.6-7.9,16.9-16.4h13l-2.3,12.3h18.2l-7.4,11.9h-12.7
		c-3.2,19-5.9,38.4-5.9,39.6c0,1.2,0.4,1.6,0.9,1.6c0.7,0,4.9-1.3,12.7-14.4l6.3,2.7l-13.6,29.9L350.5,1059.5z"/>
	<path d="M456.3,1004.9c0.4,2.3,0.7,4.8,0.7,6.4c0,13.9-13.1,21.8-32.4,28.5c0.4,6.7,1.1,10.7,2.7,10.7c1.7,0,12.7-7.4,21.7-15.2
		l4.8,4.8l-20.1,27.7l-28-7.6c-0.1-4.3,0.1-9.1,0.1-16.2c0-20.1,10.2-39.9,24.5-48.7L456.3,1004.9z M423.7,1028.2
		c0,3.8,0.3,4.4,0.9,4.4c1.6,0,12.7-6.1,12.7-19.1c0-4.9-2.3-10.2-4.3-10.2C431.1,1003.2,423.7,1017.4,423.7,1028.2z"/>
	<path d="M482,996.3h13l2.4,13c5.6-5.6,10.3-10.6,15.6-16.6l3.8,9.6l-3.6,24.2l-10.4,10.9c0-2.6-1.1-23.9-4.3-23.9
		c-0.7,0-1.2,0.8-1.5,2c-2.1,17.8-5.9,34.6-11.1,52.3l-17.1-6.1c4-17.4,6.8-32.6,6.8-49.9h-10.7l0.4-5.7L482,996.3z"/>
	<path d="M556.8,996.3L547,1044c-0.3,1.1-0.5,3.5,0.8,3.5c2.4,0,9.4-10,11.6-13.3l6.3,3.5L546,1069l-22.5-12.1l15.2-60.7
		C538.7,996.3,556.8,996.3,556.8,996.3z M560,974.1c0,4.9-4,8.8-8.8,8.8c-5.1,0-9.1-4-9.1-8.8c0-5.1,4-9.1,9.1-9.1
		C556,965.2,560,969.3,560,974.1z"/>
	<path d="M577.3,1062.1c-2.7-8-3.1-13.4-3.1-17.1c0-9.4,0-31.3,28.1-49l26.6,5.1c0.8,4.3,1.3,9.5,1.3,12.7
		c0,22.9-9.5,40.4-29.8,52.7L577.3,1062.1z M613.9,1012.5c0-5.2-0.7-7.2-1.9-7.2c-2.8,0-20.1,17.9-20.1,42.4c0,4.3,0.3,5.5,1.7,5.5
		C595.7,1053.2,613.9,1035.8,613.9,1012.5z"/>
	<path d="M712.1,996.3l-10.7,46.8c-0.1,0.5-0.7,3.1,0.7,3.1c0.9,0,2.6-1.2,4.3-3.4l6.7-8.2l6.5,3.9l-19.7,29.8l-24.7-6.7
		c1.7-5.2,3.2-10.6,3.2-12.3c0-0.8-0.1-1.1-0.4-1.1c-0.4,0-1.1,0.8-1.7,1.7l-13.4,17.1L643,1061c-0.3-0.8-0.3-1.7-0.3-2.8
		c0-28.2,7.1-40.5,20.3-61.8h17.8c-13.1,23.5-15.1,33.8-15.1,43.5c0,2.4,0.1,4.9,2.1,4.9c3.8,0,12.5-13,17.5-24.7
		c3.5-8,5.3-14.7,7.4-23.7L712.1,996.3L712.1,996.3L712.1,996.3z"/>
	<path d="M771.7,1024.7c-2.7-4.9-5.9-9.9-8.7-13.9c-0.5-0.7-1.1-1.1-1.9-1.1c-0.9,0-1.7,0.8-1.3,2.8l7.1,43.5l-22.9,9.9
		c-12.6-3.8-16.2-13.5-16-24.3l6.8-3.9c0.1,8.4,7.5,13.7,11.5,13.7c1.5,0,1.6-1.6,1.6-2.8c0-11.5-11-17-11-28.1
		c0-14.4,12.5-22.6,37.2-25.3l4,12.3L771.7,1024.7z"/>
	<path d="M818.4,1057.5c3.9-28,9.2-52.4,15.5-77.9h-12.3l1.9-6.7l24.6-7.6l11.5,6.3c-11.8,29.7-13.7,39.6-13.7,40.1
		c0,0.7,0.3,0.9,0.5,0.9c0.4,0,0.9-0.3,1.5-0.9l15.4-15.9l23,6.5c-0.7,21.6-7.4,47.1-41.9,67L818.4,1057.5z M857.2,1035.3
		c5.3-8,7.8-20.5,7.8-23.5c0-1.7-0.3-2.7-1.3-2.7c-0.5,0-9.1,6-15.6,15.2c-7.5,10.8-11.4,22.5-11.4,26.1c0,0.9,0.1,1.9,1.3,1.9
		C839.9,1052.2,850.7,1044.9,857.2,1035.3z"/>
	<path d="M900.2,1062.1c-2.7-8-3.1-13.4-3.1-17.1c0-9.4,0-31.3,28.1-49l26.6,5.1c0.8,4.3,1.3,9.5,1.3,12.7
		c0,22.9-9.5,40.4-29.8,52.7L900.2,1062.1z M936.9,1012.5c0-5.2-0.7-7.2-1.9-7.2c-2.8,0-20.1,17.9-20.1,42.4c0,4.3,0.3,5.5,1.7,5.5
		C918.7,1053.2,936.9,1035.8,936.9,1012.5z"/>
	<path d="M965.4,996.3h37.7l-11,6.8l3.4,10.6c0.7,2,0.7,2.8,2.3,2.8c2.3,0,9.4-8.6,14.2-20.2h16.2c-5.9,13.3-12.9,23.8-25.9,38
		c4.2,11,8,20.9,12.9,31l-24.7-3.1l-3.8-12.6l-15.6,13c-6.7,0.4-10.7,1.7-15.9,3.4l25.9-34.4l-7.4-25h-11L965.4,996.3z"/>
</g>
</svg>
