<?xml version="1.0" encoding="utf-8"?>
<!-- Generator: Adobe Illustrator 18.1.1, SVG Export Plug-In . SVG Version: 6.00 Build 0)  -->
<svg version="1.1" id="Layer_1" xmlns="http://www.w3.org/2000/svg" xmlns:xlink="http://www.w3.org/1999/xlink" x="0px" y="0px"
	 viewBox="240 1153.4 1260 478.6" enable-background="new 240 1153.4 1260 478.6" xml:space="preserve">
<g enable-background="new    ">
	<path fill="#231F20" d="M267.7,1257l3.4-30.5l102.5-63.5h100l-3.4,65.2c0,5.1,0.8,8.8,4.2,8.8s7.9-2.5,12.1-7.9l56.5-75.7
		l106.7,31.3c1.7,42.6,3.4,86.1,3.4,128.5c0,86.1-39,173.6-63.5,251.9l-113.8,42.6c39.8-114.6,45.2-152.8,45.2-225.9
		c0-51.1-1.7-93.7-10.4-93.7c-21.7,0-82.4,121.7-110.4,215.4l-30.5,100.8l-96.3-48.6c20.9-102.5,45.2-202.4,68.6-298.7L267.7,1257
		L267.7,1257z"/>
</g>
<g enable-background="new    ">
	<path fill="#231F20" d="M689.6,1574.1c-17.5-50.3-19.2-84.1-19.2-106.7c0-58.2,0-196.2,175.3-306.6l166.9,31.3
		c5.1,26.8,8.8,59,8.8,79.9c0,143.4-59,252.7-186.6,329.2L689.6,1574.1z M918.8,1263.8c0-32.2-4.2-45.2-12.1-45.2
		c-18.4,0-125.9,112.1-125.9,264.8c0,26.8,1.7,33.9,11.3,33.9C805.1,1517.6,918.8,1408.9,918.8,1263.8z"/>
	<path fill="#231F20" d="M1057,1163.3h235.5l-68.6,42.6l20.9,66.1c4.2,13,4.2,18.4,14.7,18.4c14.7,0,58.2-53.9,88.7-126.8h100.8
		c-36.4,83.3-80.8,148.5-162.4,238c26,68.6,50.3,130.2,80.8,194.5l-154.7-19.2l-23.4-79.1l-97.4,81.3c-41.8,2.5-66.9,11.3-99.1,20.9
		l162.4-214.6l-46-156.4h-68.6L1057,1163.3z"/>
</g>
</svg>
