<?xml version="1.0" encoding="utf-8"?>
<!-- Generator: Adobe Illustrator 18.1.1, SVG Export Plug-In . SVG Version: 6.00 Build 0)  -->
<svg version="1.1" id="Layer_1" xmlns="http://www.w3.org/2000/svg" xmlns:xlink="http://www.w3.org/1999/xlink" x="0px" y="0px"
	 viewBox="0 0 648 864" enable-background="new 0 0 648 864" xml:space="preserve">
<path fill="#FFFFFF" d="M453.3,601H208.7c-12.5,0-22.7-10.2-22.7-22.7V333.7c0-12.5,10.2-22.7,22.7-22.7h244.5
	c12.5,0,22.7,10.2,22.7,22.7v244.5C476,590.8,465.8,601,453.3,601z"/>
<g>
	
		<linearGradient id="SVGID_1_" gradientUnits="userSpaceOnUse" x1="232.0974" y1="706.7392" x2="868.3489" y2="706.7392" gradientTransform="matrix(0.6328 0 0 -0.6328 0 735.75)">
		<stop  offset="0" style="stop-color:#100605"/>
		<stop  offset="1" style="stop-color:#696272"/>
	</linearGradient>
	<path fill="url(#SVGID_1_)" d="M378.6,238.5c-7.3,16.8,33.2,94.4,15.1,146.6c-6.7,19.3-40.9,19.3-74.7,19.3
		c-42.1,0-66.4-8.9-76.6-27.8c-4.9-9-0.8-42,6-74.2c6.2-28.9,18.2-64.3,14.9-73.6c-3-8.3-79.9,20-96.8,30.4
		c-12.6,7.8-15.4,19.2-21.4,13.4c-5.7-5.4,9.4-11,8.6-15.2c-1.1-6.4-20.3,9.3-24.9-2.3c-1.8-4.4,20.3-3.4,19.4-8.1
		c-0.3-1.8-22.7-0.9-22.8-5.6c-0.3-8,20.1-1.3,20.6-8.3c0.2-2.3-20.6-3.6-20.9-6.5c-1.1-11.5,17.3-3,26.5-5.3
		c2.8-0.7-10.6-13.5-3-16c13.1-4.2,3.9,14.6,14.4,14.8c28.4,0.6,104-47,111.2-47c6.3,0,71.2-2.2,94.7,3.4
		c27.3,6.5,89.6,49.2,119.5,50.2c5.1,0.2,5.5-15.2,8.5-15.3c10.6-0.2,2.5,13.9,6.2,14.6c11.2,2,22.8-5.3,23.9,5.1
		c0.8,7.2-21.2-1-21.6,5.7c-0.2,3.2,24.8,3.4,21.3,13c-1.5,4.1-21.5-3.9-22.6-1.3c-3.1,7.5,25.9,6.6,23.3,14.7
		c-1.5,4.7-24.9-5.2-25.1-2.2c-0.3,5.6,9.8,4.7,8.8,10.9c-1.3,7.8-18.9-8.5-30.6-11.2C471,258.7,383.1,228.1,378.6,238.5z"/>
	
		<linearGradient id="SVGID_2_" gradientUnits="userSpaceOnUse" x1="418.9212" y1="903.65" x2="618.3212" y2="903.65" gradientTransform="matrix(0.6328 0 0 -0.6328 0 735.75)">
		<stop  offset="0" style="stop-color:#100605"/>
		<stop  offset="1" style="stop-color:#696272"/>
	</linearGradient>
	<path fill="url(#SVGID_2_)" d="M384.5,159.6c0,34.9-28.2,71.8-63.1,71.8s-63.1-37-63.1-71.8s28.2-63.1,63.1-63.1
		S384.5,124.8,384.5,159.6z"/>
	
		<linearGradient id="SVGID_3_" gradientUnits="userSpaceOnUse" x1="857.2805" y1="873.45" x2="931.3709" y2="873.45" gradientTransform="matrix(-0.6328 0 0 -0.6328 909.8063 735.75)">
		<stop  offset="0" style="stop-color:#100605"/>
		<stop  offset="1" style="stop-color:#696272"/>
	</linearGradient>
	<path fill="url(#SVGID_3_)" d="M323,189.6c0,13,10.5,23.4,23.4,23.4c13,0,23.4-10.5,23.4-23.4c0-12.9-19.2-36.5-32.1-36.5
		C324.7,153.1,323,176.6,323,189.6z"/>
	
		<linearGradient id="SVGID_4_" gradientUnits="userSpaceOnUse" x1="408.6369" y1="873.45" x2="482.7273" y2="873.45" gradientTransform="matrix(0.6328 0 0 -0.6328 17.7188 735.75)">
		<stop  offset="0" style="stop-color:#100605"/>
		<stop  offset="1" style="stop-color:#696272"/>
	</linearGradient>
	<path fill="url(#SVGID_4_)" d="M320.7,189.6c0,13-10.5,23.4-23.4,23.4c-13,0-23.4-10.5-23.4-23.4c0-12.9,19.2-36.5,32.1-36.5
		C318.8,153.1,320.7,176.6,320.7,189.6z"/>
	
		<linearGradient id="SVGID_5_" gradientUnits="userSpaceOnUse" x1="380.2808" y1="827.1764" x2="419.0521" y2="827.1764" gradientTransform="matrix(0.606 -0.1822 -0.1822 -0.606 172.1983 728.8893)">
		<stop  offset="0" style="stop-color:#100605"/>
		<stop  offset="1" style="stop-color:#696272"/>
	</linearGradient>
	<path fill="url(#SVGID_5_)" d="M251.5,161.6c1.6,4.7,4.8,14,11.3,11.6c6.5-2.4,12.6-26.1,8.2-30c-4-3.5-16.3-5.6-19.7-2.3
		C248.2,143.9,251.5,161.6,251.5,161.6z"/>
	
		<linearGradient id="SVGID_6_" gradientUnits="userSpaceOnUse" x1="673.7371" y1="734.0325" x2="712.5082" y2="734.0325" gradientTransform="matrix(-0.606 -0.1822 0.1822 -0.606 664.9984 728.8893)">
		<stop  offset="0" style="stop-color:#100605"/>
		<stop  offset="1" style="stop-color:#696272"/>
	</linearGradient>
	<path fill="url(#SVGID_6_)" d="M390.9,164.6c-1.6,4.7-4.8,14-11.3,11.6s-12.6-26.1-8.2-30c4-3.5,16.3-5.6,19.7-2.3
		C394.2,146.8,390.9,164.6,390.9,164.6z"/>
	
		<linearGradient id="SVGID_7_" gradientUnits="userSpaceOnUse" x1="442.6538" y1="857.9" x2="494.7759" y2="857.9" gradientTransform="matrix(0.6328 0 0 -0.6328 0 735.75)">
		<stop  offset="0" style="stop-color:#FDC60B"/>
		<stop  offset="0.2509" style="stop-color:#FBD145"/>
		<stop  offset="0.7413" style="stop-color:#FFF23A"/>
		<stop  offset="0.7992" style="stop-color:#FFF022"/>
		<stop  offset="0.8634" style="stop-color:#FFEF0F"/>
		<stop  offset="0.9296" style="stop-color:#FFEE04"/>
		<stop  offset="1" style="stop-color:#FFEE00"/>
	</linearGradient>
	<circle fill="url(#SVGID_7_)" cx="296.6" cy="192.9" r="16.5"/>
	
		<linearGradient id="SVGID_8_" gradientUnits="userSpaceOnUse" x1="521.3367" y1="857.9" x2="573.4589" y2="857.9" gradientTransform="matrix(0.6328 0 0 -0.6328 0 735.75)">
		<stop  offset="0" style="stop-color:#FDC60B"/>
		<stop  offset="0.2509" style="stop-color:#FBD145"/>
		<stop  offset="0.7413" style="stop-color:#FFF23A"/>
		<stop  offset="0.7992" style="stop-color:#FFF022"/>
		<stop  offset="0.8634" style="stop-color:#FFEF0F"/>
		<stop  offset="0.9296" style="stop-color:#FFEE04"/>
		<stop  offset="1" style="stop-color:#FFEE00"/>
	</linearGradient>
	<circle fill="url(#SVGID_8_)" cx="346.4" cy="192.9" r="16.5"/>
	<circle fill="#231F20" cx="345.1" cy="200.3" r="8.2"/>
	<circle fill="#231F20" cx="296.6" cy="200.3" r="8.2"/>
	<linearGradient id="SVGID_9_" gradientUnits="userSpaceOnUse" x1="176.6733" y1="411" x2="511.0813" y2="411">
		<stop  offset="0" style="stop-color:#F4FBFE"/>
		<stop  offset="1" style="stop-color:#F7FCFB"/>
	</linearGradient>
	<rect x="159" y="236" fill="url(#SVGID_9_)" width="334" height="350"/>
</g>
<rect x="149.6" y="236" fill="#FFFFFF" width="360.4" height="467.6"/>
<g id="MDBmvc.tif">
	
		<image overflow="visible" width="600" height="857" id="Layer_0_1_" xlink:href="55A53CEB9C8C77B9.png"  transform="matrix(0.4367 0 0 0.4367 -519 282.6681)">
	</image>
</g>
<circle fill="#F2F2F2" cx="335.9" cy="453" r="142"/>
<text transform="matrix(1 0 0 1 183.3661 311.0002)"><tspan x="0" y="0" fill="#0B0709" font-family="'MercuriusMTStd-BoldScript'" font-size="44" letter-spacing="-2">hello.</tspan><tspan x="0" y="48.8" fill="#0B0709" font-family="'MercuriusMTStd-BoldScript'" font-size="44" letter-spacing="-2">I’m knox.</tspan><tspan x="0" y="97.6" fill="#0B0709" font-family="'MercuriusMTStd-BoldScript'" font-size="44" letter-spacing="-2">i’m afraid of the</tspan><tspan x="0" y="146.4" fill="#0B0709" font-family="'MercuriusMTStd-BoldScript'" font-size="44" letter-spacing="-2">light.  </tspan><tspan x="0" y="195.2" fill="#0B0709" font-family="'MercuriusMTStd-BoldScript'" font-size="44" letter-spacing="-2">come play with,</tspan><tspan x="0" y="244" fill="#0B0709" font-family="'MercuriusMTStd-BoldScript'" font-size="44" letter-spacing="-2">me in the dark.</tspan><tspan x="0" y="292.8" fill="#0B0709" font-family="'MercuriusMTStd-BoldScript'" font-size="44" letter-spacing="-2">june 1, 2015.</tspan><tspan x="0" y="341.6" fill="#0B0709" font-family="'MercuriusMTStd-BoldScript'" font-size="44" letter-spacing="-2">a dark place.</tspan></text>
<linearGradient id="SVGID_10_" gradientUnits="userSpaceOnUse" x1="160.8528" y1="466.3238" x2="174.5001" y2="466.3238">
	<stop  offset="0" style="stop-color:#000000"/>
	<stop  offset="1" style="stop-color:#FBFFFF"/>
</linearGradient>
<path fill="none" stroke="url(#SVGID_10_)" stroke-width="5" stroke-miterlimit="10" d="M167.2,652c1.9-4.3,4.2-11,4.3-19.5
	c0.2-13.8-5.8-17.9-6.2-32.1c-0.5-15.7,6.5-19.6,6.2-35.5c-0.3-16.8-8.2-20-8.2-35.5c0.1-15.4,8-18.5,8.2-34.4
	c0.2-15.9-7.7-21.6-6.7-35.5c0.9-12.1,7.2-13.7,7.2-24c0-11.3-7.4-14.1-7.7-26.3c-0.2-11.1,5.9-14.4,5.8-26.3
	c-0.1-11.6-5.9-14.3-5.8-25.2c0.1-11.2,6.3-12.9,6.7-24c0.5-13.2-7.9-19.5-7.7-33.2c0.1-8.7,3.6-15.4,6.2-19.5"/>
</svg>
