<?xml version="1.0" encoding="utf-8"?>
<!-- Generator: Adobe Illustrator 18.1.1, SVG Export Plug-In . SVG Version: 6.00 Build 0)  -->
<svg version="1.1" id="Layer_1" xmlns="http://www.w3.org/2000/svg" xmlns:xlink="http://www.w3.org/1999/xlink" x="0px" y="0px"
	 viewBox="0 0 648 864" enable-background="new 0 0 648 864" xml:space="preserve">
<g>
	
		<linearGradient id="SVGID_1_" gradientUnits="userSpaceOnUse" x1="215.5436" y1="561.4608" x2="851.7952" y2="561.4608" gradientTransform="matrix(0.6328 0 0 0.6328 0 128.25)">
		<stop  offset="0" style="stop-color:#303030"/>
		<stop  offset="0.4502" style="stop-color:#231F20"/>
	</linearGradient>
	<path fill="url(#SVGID_1_)" d="M368.1,433.6c-7.3,16.8,33.2,94.4,15.1,146.6c-6.7,19.3-40.9,19.3-74.7,19.3
		c-42.1,0-66.4-8.9-76.6-27.8c-4.9-9-0.8-42,6-74.2c6.2-28.9,18.2-64.3,14.9-73.6c-3-8.3-79.9,20-96.8,30.4
		c-12.6,7.8-15.4,19.2-21.4,13.4c-5.7-5.4,9.4-11,8.6-15.2c-1.1-6.4-20.3,9.3-24.9-2.3c-1.8-4.4,20.3-3.4,19.4-8.1
		c-0.3-1.8-22.7-0.9-22.8-5.6c-0.3-8,20.1-1.3,20.6-8.3c0.2-2.3-20.6-3.6-20.9-6.5c-1.1-11.5,17.3-3,26.5-5.3
		c2.8-0.7-10.6-13.5-3-16c13.1-4.2,3.9,14.6,14.4,14.8c28.4,0.6,104-47,111.2-47c6.3,0,71.2-2.2,94.7,3.4
		c27.3,6.5,89.6,49.2,119.5,50.2c5.1,0.2,5.5-15.2,8.5-15.3c10.6-0.2,2.5,13.9,6.2,14.6c11.2,2,22.8-5.3,23.9,5.1
		c0.8,7.2-21.2-1-21.6,5.7c-0.2,3.2,24.8,3.4,21.3,13c-1.5,4.1-21.5-3.9-22.6-1.3c-3.1,7.5,25.9,6.6,23.3,14.7
		c-1.5,4.7-24.9-5.2-25.1-2.2c-0.3,5.6,9.8,4.7,8.8,10.9c-1.3,7.8-18.9-8.5-30.6-11.2C460.5,453.8,372.7,423.1,368.1,433.6z"/>
	
		<linearGradient id="SVGID_2_" gradientUnits="userSpaceOnUse" x1="402.3674" y1="364.55" x2="601.7675" y2="364.55" gradientTransform="matrix(0.6328 0 0 0.6328 0 128.25)">
		<stop  offset="0" style="stop-color:#303030"/>
		<stop  offset="0.4502" style="stop-color:#231F20"/>
	</linearGradient>
	<path fill="url(#SVGID_2_)" d="M374,354.6c0,34.9-28.2,71.8-63.1,71.8s-63.1-37-63.1-71.8s28.2-63.1,63.1-63.1S374,319.8,374,354.6
		z"/>
	
		<linearGradient id="SVGID_3_" gradientUnits="userSpaceOnUse" x1="873.8343" y1="394.75" x2="947.9247" y2="394.75" gradientTransform="matrix(-0.6328 0 0 0.6328 909.8063 128.25)">
		<stop  offset="0" style="stop-color:#303030"/>
		<stop  offset="0.4502" style="stop-color:#231F20"/>
	</linearGradient>
	<path fill="url(#SVGID_3_)" d="M312.5,384.6c0,13,10.5,23.4,23.4,23.4c13,0,23.4-10.5,23.4-23.4c0-12.9-19.2-36.5-32.1-36.5
		C314.3,348.1,312.5,371.6,312.5,384.6z"/>
	
		<linearGradient id="SVGID_4_" gradientUnits="userSpaceOnUse" x1="392.0831" y1="394.75" x2="466.1735" y2="394.75" gradientTransform="matrix(0.6328 0 0 0.6328 17.7188 128.25)">
		<stop  offset="0" style="stop-color:#303030"/>
		<stop  offset="0.4502" style="stop-color:#231F20"/>
	</linearGradient>
	<path fill="url(#SVGID_4_)" d="M310.2,384.6c0,13-10.5,23.4-23.4,23.4c-13,0-23.4-10.5-23.4-23.4c0-12.9,19.2-36.5,32.1-36.5
		C308.4,348.1,310.2,371.6,310.2,384.6z"/>
	
		<linearGradient id="SVGID_5_" gradientUnits="userSpaceOnUse" x1="275.6612" y1="423.2053" x2="314.4325" y2="423.2053" gradientTransform="matrix(0.606 -0.1822 0.1822 0.606 -2.7617 147.1473)">
		<stop  offset="0" style="stop-color:#303030"/>
		<stop  offset="0.4502" style="stop-color:#231F20"/>
	</linearGradient>
	<path fill="url(#SVGID_5_)" d="M241,356.6c1.6,4.7,4.8,14,11.3,11.6s12.6-26.1,8.2-30c-4-3.5-16.3-5.6-19.7-2.3
		C237.7,338.9,241,356.6,241,356.6z"/>
	
		<linearGradient id="SVGID_6_" gradientUnits="userSpaceOnUse" x1="600.8231" y1="525.8848" x2="639.5943" y2="525.8848" gradientTransform="matrix(-0.606 -0.1822 -0.1822 0.606 839.9584 147.1473)">
		<stop  offset="0" style="stop-color:#625956"/>
		<stop  offset="1" style="stop-color:#231F20"/>
	</linearGradient>
	<path fill="url(#SVGID_6_)" d="M380.4,359.6c-1.6,4.7-4.8,14-11.3,11.6c-6.5-2.4-12.6-26.1-8.2-30c4-3.5,16.3-5.6,19.7-2.3
		C383.7,341.8,380.4,359.6,380.4,359.6z"/>
	<g>
		
			<linearGradient id="SVGID_7_" gradientUnits="userSpaceOnUse" x1="426.1" y1="410.3" x2="478.2221" y2="410.3" gradientTransform="matrix(0.6328 0 0 0.6328 0 128.25)">
			<stop  offset="0" style="stop-color:#FFFFFF"/>
			<stop  offset="0.5696" style="stop-color:#FFFFFF"/>
			<stop  offset="1" style="stop-color:#DADADA"/>
		</linearGradient>
		<circle fill="url(#SVGID_7_)" cx="286.2" cy="387.9" r="16.5"/>
	</g>
	<g>
		
			<linearGradient id="SVGID_8_" gradientUnits="userSpaceOnUse" x1="504.783" y1="410.3" x2="556.9051" y2="410.3" gradientTransform="matrix(0.6328 0 0 0.6328 0 128.25)">
			<stop  offset="0" style="stop-color:#FFFFFF"/>
			<stop  offset="0.5696" style="stop-color:#FFFFFF"/>
			<stop  offset="1" style="stop-color:#DADADA"/>
		</linearGradient>
		<circle fill="url(#SVGID_8_)" cx="335.9" cy="387.9" r="16.5"/>
	</g>
</g>
<rect x="147" y="432" fill="#FFFFFF" stroke="#000000" stroke-width="1.0565" stroke-miterlimit="10" width="337" height="419.7"/>
</svg>
