<?xml version="1.0" encoding="utf-8"?>
<!-- Generator: Adobe Illustrator 18.1.1, SVG Export Plug-In . SVG Version: 6.00 Build 0)  -->
<svg version="1.1" id="Layer_1" xmlns="http://www.w3.org/2000/svg" xmlns:xlink="http://www.w3.org/1999/xlink" x="0px" y="0px"
	 viewBox="0 0 648 864" enable-background="new 0 0 648 864" xml:space="preserve">
<linearGradient id="SVGID_1_" gradientUnits="userSpaceOnUse" x1="593.3" y1="499.95" x2="647" y2="499.95" gradientTransform="matrix(2.7823 0 0 2.7823 -737.1635 -702.5235)">
	<stop  offset="0" style="stop-color:#69605C"/>
	<stop  offset="1" style="stop-color:#231F20"/>
</linearGradient>
<polygon fill="url(#SVGID_1_)" points="1061.6,996.4 1063,521.1 913.6,380.6 913.6,855.8 "/>
<linearGradient id="SVGID_2_" gradientUnits="userSpaceOnUse" x1="362.3" y1="474.1" x2="594.1" y2="474.1" gradientTransform="matrix(2.7823 0 0 2.7823 -737.1635 -702.5235)">
	<stop  offset="0" style="stop-color:#69605C"/>
	<stop  offset="1" style="stop-color:#231F20"/>
</linearGradient>
<rect x="270.9" y="377.3" fill="url(#SVGID_2_)" width="644.9" height="478.6"/>
<linearGradient id="SVGID_3_" gradientUnits="userSpaceOnUse" x1="362.3" y1="584.75" x2="646.5" y2="584.75" gradientTransform="matrix(2.7823 0 0 2.7823 -737.1635 -702.5235)">
	<stop  offset="0" style="stop-color:#69605C"/>
	<stop  offset="1" style="stop-color:#231F20"/>
</linearGradient>
<polygon fill="url(#SVGID_3_)" points="916.1,854.7 270.9,853.9 413.6,995 1061.6,995 "/>
<g>
	
		<linearGradient id="SVGID_4_" gradientUnits="userSpaceOnUse" x1="402.7736" y1="529.5279" x2="648.1071" y2="529.5279" gradientTransform="matrix(2.7823 0 0 2.7823 -737.1635 -702.5235)">
		<stop  offset="0" style="stop-color:#4D4744"/>
		<stop  offset="1" style="stop-color:#231F20"/>
	</linearGradient>
	<path fill="url(#SVGID_4_)" d="M776.4,685.8c-12.5,28.4,56.2,160.3,25.6,248.5c-11.4,32.8-69.3,32.8-126.6,32.8
		c-71.2,0-112.7-15-129.9-47.3c-8.3-15.3-1.4-71.2,10.3-125.8c10.6-49,30.9-109.1,25-124.9c-5-13.9-135.5,33.9-164.2,51.8
		c-21.4,13.4-26.2,32.6-36.2,22.8c-9.7-9.2,15.9-18.6,14.7-25.6c-1.9-10.9-34.5,15.9-42.3-3.9c-3.1-7.5,34.5-5.6,32.8-13.9
		c-0.6-3.1-38.4-1.4-38.7-9.5c-0.6-13.6,33.9-2.2,35.1-14.2c0.3-3.9-35.1-6.1-35.6-11.1c-1.9-19.5,29.5-5,44.8-8.9
		c4.7-1.1-18.1-22.8-5-27c22.3-7.2,6.4,24.8,24.5,25c48.1,1.1,176.4-79.6,188.6-79.6c10.9,0,120.8-3.6,160.5,5.8
		c46.2,11.1,151.9,83.5,202.6,85.1c8.6,0.3,9.5-25.9,14.5-25.9c18.1-0.3,4.2,23.6,10.6,24.8c18.9,3.3,38.7-9.2,40.6,8.6
		c1.4,12.2-35.9-1.7-36.7,9.7c-0.3,5.6,42,5.8,36.2,22c-2.5,7-36.4-6.7-38.4-2.2c-5.3,12.8,44,11.1,39.5,25
		c-2.5,7.8-42.3-8.9-42.6-3.6c-0.3,9.5,16.7,8.1,15,18.6c-2.2,13.4-32-14.5-51.8-18.9C933.1,720.1,784.2,668,776.4,685.8z"/>
	
		<linearGradient id="SVGID_5_" gradientUnits="userSpaceOnUse" x1="474.8174" y1="453.55" x2="551.6996" y2="453.55" gradientTransform="matrix(2.7823 0 0 2.7823 -737.1635 -702.5235)">
		<stop  offset="0" style="stop-color:#4D4744"/>
		<stop  offset="1" style="stop-color:#231F20"/>
	</linearGradient>
	<path fill="url(#SVGID_5_)" d="M786.2,552c0,59-47.9,121.6-106.8,121.6S572.5,611,572.5,552s47.9-106.8,106.8-106.8
		S786.2,492.8,786.2,552z"/>
	
		<linearGradient id="SVGID_6_" gradientUnits="userSpaceOnUse" x1="900.6163" y1="465.15" x2="929.1874" y2="465.15" gradientTransform="matrix(-2.7823 0 0 2.7823 3263.0156 -702.5235)">
		<stop  offset="0" style="stop-color:#4D4744"/>
		<stop  offset="1" style="stop-color:#231F20"/>
	</linearGradient>
	<path fill="url(#SVGID_6_)" d="M682.1,602.7c0,22,17.8,39.8,39.8,39.8c22,0,39.8-17.8,39.8-39.8s-32.6-61.8-54.5-61.8
		C685.2,540.9,682.1,580.7,682.1,602.7z"/>
	
		<linearGradient id="SVGID_7_" gradientUnits="userSpaceOnUse" x1="453.649" y1="465.15" x2="482.2202" y2="465.15" gradientTransform="matrix(2.7823 0 0 2.7823 -659.2587 -702.5235)">
		<stop  offset="0" style="stop-color:#4D4744"/>
		<stop  offset="1" style="stop-color:#231F20"/>
	</linearGradient>
	<path fill="url(#SVGID_7_)" d="M678.2,602.7c0,22-17.8,39.8-39.8,39.8s-39.8-17.8-39.8-39.8s32.6-61.8,54.5-61.8
		C675.1,540.9,678.2,580.7,678.2,602.7z"/>
	
		<linearGradient id="SVGID_8_" gradientUnits="userSpaceOnUse" x1="330.1479" y1="538.085" x2="345.0934" y2="538.085" gradientTransform="matrix(2.6643 -0.8013 0.8013 2.6643 -749.3057 -619.437)">
		<stop  offset="0" style="stop-color:#4D4744"/>
		<stop  offset="1" style="stop-color:#231F20"/>
	</linearGradient>
	<path fill="url(#SVGID_8_)" d="M560.8,555.4c2.8,7.8,8.1,23.6,19.2,19.5c11.1-4.2,21.4-44.2,13.9-50.9c-6.7-5.8-27.5-9.5-33.4-3.9
		C555.2,525.3,560.8,555.4,560.8,555.4z"/>
	
		<linearGradient id="SVGID_9_" gradientUnits="userSpaceOnUse" x1="621.6831" y1="627.6474" x2="636.6287" y2="627.6474" gradientTransform="matrix(-2.6643 -0.8013 -0.8013 2.6643 2955.9126 -619.437)">
		<stop  offset="0" style="stop-color:#4D4744"/>
		<stop  offset="1" style="stop-color:#231F20"/>
	</linearGradient>
	<path fill="url(#SVGID_9_)" d="M797.3,560.4c-2.8,7.8-8.1,23.6-19.2,19.5c-11.1-4.2-21.4-44.2-13.9-50.9c6.7-5.8,27.5-9.5,33.4-3.9
		C802.8,530.3,797.3,560.4,797.3,560.4z"/>
	
		<linearGradient id="SVGID_10_" gradientUnits="userSpaceOnUse" x1="484" y1="471.1" x2="504.0996" y2="471.1" gradientTransform="matrix(2.7823 0 0 2.7823 -737.1635 -702.5235)">
		<stop  offset="0" style="stop-color:#FDC60B"/>
		<stop  offset="0.2509" style="stop-color:#FBD145"/>
		<stop  offset="0.7413" style="stop-color:#FFF23A"/>
		<stop  offset="0.7992" style="stop-color:#FFF022"/>
		<stop  offset="0.8634" style="stop-color:#FFEF0F"/>
		<stop  offset="0.9296" style="stop-color:#FFEE04"/>
		<stop  offset="1" style="stop-color:#FFEE00"/>
	</linearGradient>
	<circle fill="url(#SVGID_10_)" cx="637.3" cy="608.2" r="27.8"/>
	
		<linearGradient id="SVGID_11_" gradientUnits="userSpaceOnUse" x1="514.3115" y1="471.1" x2="534.411" y2="471.1" gradientTransform="matrix(2.7823 0 0 2.7823 -737.1635 -702.5235)">
		<stop  offset="0" style="stop-color:#FDC60B"/>
		<stop  offset="0.2509" style="stop-color:#FBD145"/>
		<stop  offset="0.7413" style="stop-color:#FFF23A"/>
		<stop  offset="0.7992" style="stop-color:#FFF022"/>
		<stop  offset="0.8634" style="stop-color:#FFEF0F"/>
		<stop  offset="0.9296" style="stop-color:#FFEE04"/>
		<stop  offset="1" style="stop-color:#FFEE00"/>
	</linearGradient>
	<circle fill="url(#SVGID_11_)" cx="721.9" cy="608.2" r="27.8"/>
	<circle fill="#231F20" cx="719.7" cy="620.7" r="13.9"/>
	<circle fill="#231F20" cx="637.3" cy="620.7" r="13.9"/>
</g>
<linearGradient id="SVGID_12_" gradientUnits="userSpaceOnUse" x1="361.5" y1="413.75" x2="646.7" y2="413.75" gradientTransform="matrix(2.7823 0 0 2.7823 -737.1635 -702.5235)">
	<stop  offset="0" style="stop-color:#7E746F"/>
	<stop  offset="1" style="stop-color:#231F20"/>
</linearGradient>
<polygon fill="url(#SVGID_12_)" points="1062.2,520 409.1,520 268.6,377.3 921.6,377.3 "/>
<linearGradient id="SVGID_13_" gradientUnits="userSpaceOnUse" x1="362.3" y1="499.95" x2="413.6" y2="499.95" gradientTransform="matrix(2.7823 0 0 2.7823 -737.1635 -702.5235)">
	<stop  offset="0" style="stop-color:#69605C"/>
	<stop  offset="1" style="stop-color:#231F20"/>
</linearGradient>
<polygon fill="url(#SVGID_13_)" points="413.6,996.4 413.6,521.1 270.9,380.6 270.9,855.8 "/>
<rect x="413.6" y="518.2" fill="#231F20" width="648" height="478.1"/>
</svg>
