<?xml version="1.0" encoding="utf-8"?>
<!-- Generator: Adobe Illustrator 18.1.1, SVG Export Plug-In . SVG Version: 6.00 Build 0)  -->
<svg version="1.1" id="Layer_1" xmlns="http://www.w3.org/2000/svg" xmlns:xlink="http://www.w3.org/1999/xlink" x="0px" y="0px"
	 viewBox="0 0 1024 768" enable-background="new 0 0 1024 768" xml:space="preserve">
<g>
	<linearGradient id="SVGID_1_" gradientUnits="userSpaceOnUse" x1="215.5436" y1="465.4813" x2="851.842" y2="465.4813">
		<stop  offset="0" style="stop-color:#C4B4AB"/>
		<stop  offset="1" style="stop-color:#231F20"/>
	</linearGradient>
	<path fill="url(#SVGID_1_)" d="M581.7,386.5c-11.6,26.5,52.4,149.2,23.8,231.6c-10.6,30.5-64.6,30.5-118,30.5
		c-66.5,0-104.9-14.1-121-44c-7.7-14.3-1.3-66.4,9.5-117.2c9.8-45.7,28.8-101.6,23.5-116.3c-4.7-13.1-126.3,31.6-152.9,48.1
		c-19.9,12.4-24.3,30.3-33.8,21.2c-9-8.6,14.8-17.4,13.6-24c-1.8-10.1-32.1,14.7-39.4-3.7c-2.8-6.9,32.1-5.3,30.7-12.8
		c-0.5-2.8-35.8-1.4-36-8.9c-0.5-12.7,31.7-2.1,32.6-13.1c0.3-3.6-32.6-5.7-33.1-10.3c-1.8-18.1,27.4-4.7,41.9-8.4
		c4.4-1.1-16.8-21.4-4.7-25.3c20.7-6.6,6.1,23,22.7,23.4C286,358.2,405.5,283,416.9,283c10,0,112.5-3.5,149.6,5.4
		c43.1,10.3,141.6,77.8,188.9,79.4c8,0.3,8.7-24,13.5-24.1c16.8-0.3,4,22,9.8,23.1c17.7,3.2,36.1-8.4,37.8,8
		c1.2,11.3-33.5-1.6-34.2,9c-0.3,5.1,39.2,5.3,33.7,20.6c-2.3,6.5-34-6.2-35.7-2c-4.9,11.9,41,10.5,36.8,23.3
		c-2.4,7.4-39.4-8.2-39.6-3.5c-0.4,8.8,15.5,7.5,13.9,17.3c-2,12.4-29.8-13.5-48.3-17.7C727.7,418.4,588.9,370,581.7,386.5z"/>
	<linearGradient id="SVGID_2_" gradientUnits="userSpaceOnUse" x1="402.3674" y1="268.597" x2="601.738" y2="268.597">
		<stop  offset="0" style="stop-color:#C4B4AB"/>
		<stop  offset="1" style="stop-color:#231F20"/>
	</linearGradient>
	<path fill="url(#SVGID_2_)" d="M591,261.7c0,55.1-44.6,113.4-99.7,113.4s-99.7-58.4-99.7-113.4s44.6-99.7,99.7-99.7
		S591,206.7,591,261.7z"/>
	
		<linearGradient id="SVGID_3_" gradientUnits="userSpaceOnUse" x1="873.8343" y1="298.7582" x2="947.9247" y2="298.7582" gradientTransform="matrix(-1 0 0 1 1437.7186 0)">
		<stop  offset="0" style="stop-color:#5A5B5D"/>
		<stop  offset="1" style="stop-color:#6D6E70"/>
	</linearGradient>
	<path fill="url(#SVGID_3_)" d="M493.8,309.1c0,20.5,16.6,37,37,37c20.5,0,37-16.6,37-37s-30.3-57.7-50.8-57.7
		C496.6,251.4,493.8,288.6,493.8,309.1z"/>
	
		<linearGradient id="SVGID_4_" gradientUnits="userSpaceOnUse" x1="392.0831" y1="298.7582" x2="466.1735" y2="298.7582" gradientTransform="matrix(1 0 0 1 28 0)">
		<stop  offset="0" style="stop-color:#5A5B5D"/>
		<stop  offset="1" style="stop-color:#6D6E70"/>
	</linearGradient>
	<path fill="url(#SVGID_4_)" d="M490.2,309.1c0,20.5-16.6,37-37,37c-20.5,0-37-16.6-37-37s30.3-57.7,50.8-57.7
		C487.3,251.4,490.2,288.6,490.2,309.1z"/>
	
		<linearGradient id="SVGID_5_" gradientUnits="userSpaceOnUse" x1="275.6612" y1="327.1925" x2="314.4325" y2="327.1925" gradientTransform="matrix(0.9576 -0.288 0.288 0.9576 23.2839 25.792)">
		<stop  offset="0" style="stop-color:#C4B4AB"/>
		<stop  offset="1" style="stop-color:#231F20"/>
	</linearGradient>
	<path fill="url(#SVGID_5_)" d="M380.9,264.9c2.6,7.4,7.6,22.1,17.9,18.3c10.3-3.8,19.9-41.3,13-47.4c-6.3-5.5-25.8-8.9-31.2-3.7
		C375.6,236.9,380.9,264.9,380.9,264.9z"/>
	
		<linearGradient id="SVGID_6_" gradientUnits="userSpaceOnUse" x1="600.8231" y1="429.8339" x2="639.5943" y2="429.8339" gradientTransform="matrix(-0.9576 -0.288 -0.288 0.9576 1299.6936 25.792)">
		<stop  offset="0" style="stop-color:#625956"/>
		<stop  offset="1" style="stop-color:#231F20"/>
	</linearGradient>
	<path fill="url(#SVGID_6_)" d="M601.2,269.6c-2.6,7.4-7.6,22.1-17.9,18.3c-10.3-3.8-19.9-41.3-13-47.4c6.3-5.5,25.8-8.9,31.2-3.7
		C606.4,241.5,601.2,269.6,601.2,269.6z"/>
	<linearGradient id="SVGID_7_" gradientUnits="userSpaceOnUse" x1="426.1511" y1="314.3277" x2="478.2732" y2="314.3277">
		<stop  offset="0" style="stop-color:#FDC60B"/>
		<stop  offset="0.2509" style="stop-color:#FBD145"/>
		<stop  offset="0.7413" style="stop-color:#FFF23A"/>
		<stop  offset="0.7992" style="stop-color:#FFF022"/>
		<stop  offset="0.8634" style="stop-color:#FFEF0F"/>
		<stop  offset="0.9296" style="stop-color:#FFEE04"/>
		<stop  offset="1" style="stop-color:#FFEE00"/>
	</linearGradient>
	<circle fill="url(#SVGID_7_)" cx="452.2" cy="314.3" r="26.1"/>
	<linearGradient id="SVGID_8_" gradientUnits="userSpaceOnUse" x1="504.783" y1="314.3277" x2="556.9051" y2="314.3277">
		<stop  offset="0" style="stop-color:#FDC60B"/>
		<stop  offset="0.2509" style="stop-color:#FBD145"/>
		<stop  offset="0.7413" style="stop-color:#FFF23A"/>
		<stop  offset="0.7992" style="stop-color:#FFF022"/>
		<stop  offset="0.8634" style="stop-color:#FFEF0F"/>
		<stop  offset="0.9296" style="stop-color:#FFEE04"/>
		<stop  offset="1" style="stop-color:#FFEE00"/>
	</linearGradient>
	<circle fill="url(#SVGID_8_)" cx="530.8" cy="314.3" r="26.1"/>
	<circle fill="#231F20" cx="528.8" cy="326" r="13"/>
	<circle fill="#231F20" cx="452.2" cy="326" r="13"/>
</g>
</svg>
